<svg width="901" height="107" viewBox="0 0 901 107" fill="none" xmlns="http://www.w3.org/2000/svg">
<path d="M466.606 45.8152V38.8601C466.547 38.009 465.846 37.3396 464.984 37.3086H426.791C425.902 37.3308 425.183 38.04 425.16 38.9177V45.7709C425.187 46.6442 425.888 47.349 426.773 47.3933H439.269C439.723 47.411 440.082 47.7701 440.096 48.2178V87.3554C440.096 88.242 440.801 88.9734 441.7 89.0133H450.044C450.915 88.9734 451.607 88.2819 451.639 87.4219V48.0139C451.733 47.6504 452.061 47.3933 452.439 47.38H464.993C465.851 47.3357 466.543 46.6619 466.597 45.8152" fill="#FF8000"/>
<path d="M487.881 55.2706C486.56 53.6571 484.821 52.4336 482.844 51.7244C480.265 50.8422 477.542 50.4344 474.815 50.5186C471.889 50.5098 468.987 50.993 466.223 51.9416C464.044 52.6819 462.004 53.7812 460.198 55.1953C459.587 55.8513 459.614 56.8665 460.252 57.4959L463.716 60.9979C464.377 61.6495 465.446 61.6495 466.107 60.9979C466.96 60.2532 467.904 59.6148 468.915 59.1006C470.465 58.3426 472.177 57.9525 473.911 57.9702C475.731 57.9436 477.506 58.551 478.912 59.6902C480.22 60.7585 480.921 62.6646 481.015 65.7277C480.948 66.1355 480.597 66.4325 480.179 66.4414C478.881 66.4414 477.483 66.4414 476.028 66.5168C474.221 66.5655 472.424 66.7118 470.636 66.9601C468.87 67.1994 467.127 67.5762 465.424 68.0904C463.82 68.5647 462.301 69.2917 460.93 70.2448C459.632 71.158 458.567 72.3593 457.817 73.7512C457.012 75.3603 456.617 77.1423 456.671 78.9376C456.63 80.5778 456.985 82.2046 457.709 83.6807C458.374 85.015 459.335 86.1897 460.517 87.1118C461.744 88.0604 463.137 88.7696 464.633 89.1996C466.192 89.6606 467.81 89.8956 469.436 89.8912C471.66 89.9045 473.862 89.4789 475.92 88.6411C477.515 88.0028 478.917 86.9832 480.009 85.6711H480.121C480.355 85.5647 480.629 85.609 480.813 85.7863C480.925 85.8927 480.993 86.039 480.997 86.1942V87.4753C481.024 88.3397 481.725 89.04 482.601 89.0755H489.602C490.487 89.04 491.188 88.3308 491.206 87.4575V71.0383C491.233 67.7003 490.986 64.3713 490.464 61.0732C490.051 58.9987 489.152 57.0526 487.84 55.3815M481.047 75.7726C481.069 76.7877 480.826 77.7939 480.341 78.6938C479.874 79.5139 479.218 80.2187 478.423 80.7418C477.596 81.287 476.684 81.7037 475.727 81.9741C474.707 82.2755 473.646 82.4218 472.581 82.4174C471.328 82.4174 470.097 82.0894 469.014 81.4688C467.917 80.9058 467.257 79.7621 467.324 78.5475C467.266 77.4659 467.715 76.4153 468.542 75.7016C469.409 74.9924 470.42 74.4693 471.503 74.1634C472.685 73.8221 473.902 73.6182 475.129 73.5473C476.41 73.4719 477.457 73.4364 478.274 73.4364H480.197C480.638 73.4719 480.984 73.8265 480.997 74.2609L481.047 75.7726Z" fill="#FF8000"/>
<path d="M598.424 55.2706C597.108 53.6571 595.369 52.4336 593.396 51.7244C590.817 50.8422 588.094 50.4344 585.362 50.5186C582.437 50.5142 579.53 50.993 576.767 51.9416C574.587 52.6774 572.552 53.7768 570.75 55.1953C570.135 55.8513 570.157 56.8665 570.8 57.4959L574.259 60.9979C574.924 61.6495 575.998 61.6495 576.663 60.9979C577.513 60.2487 578.456 59.6148 579.467 59.1006C581.022 58.3382 582.738 57.9525 584.477 57.9702C586.292 57.9392 588.063 58.551 589.465 59.6902C590.772 60.7585 591.473 62.6646 591.572 65.7277C591.504 66.1355 591.154 66.4325 590.736 66.4414C589.438 66.4414 588.04 66.4414 586.58 66.5168C584.774 66.5655 582.976 66.7118 581.188 66.9601C579.418 67.195 577.674 67.5718 575.967 68.0904C574.363 68.5647 572.844 69.2917 571.474 70.2448C570.18 71.1624 569.119 72.3637 568.369 73.7512C567.556 75.3603 567.16 77.1423 567.219 78.9376C567.183 80.5778 567.538 82.2002 568.257 83.6807C568.921 85.015 569.879 86.1897 571.06 87.1118C572.287 88.0604 573.68 88.7696 575.176 89.1996C578.905 90.2857 582.895 90.0906 586.499 88.65C588.09 88.0116 589.496 86.9921 590.583 85.68H590.691C590.983 85.5204 591.352 85.6268 591.513 85.9149C591.563 86.0036 591.59 86.1011 591.59 86.203V87.4841C591.617 88.3485 592.318 89.0489 593.194 89.0844H600.19C601.075 89.0534 601.78 88.3397 601.798 87.4664V71.0383C601.825 67.7048 601.578 64.3713 601.066 61.0732C600.648 58.9987 599.745 57.0526 598.433 55.3815M591.599 75.7726C591.626 76.7877 591.383 77.7939 590.898 78.6938C590.431 79.5183 589.77 80.2187 588.975 80.7418C588.148 81.287 587.236 81.7037 586.279 81.9741C585.259 82.2755 584.198 82.4218 583.134 82.4174C581.884 82.4174 580.653 82.0894 579.575 81.4688C578.474 80.9102 577.809 79.7665 577.877 78.5475C577.823 77.4659 578.272 76.4153 579.099 75.7016C579.966 74.9924 580.972 74.4693 582.055 74.1634C583.241 73.8221 584.459 73.6182 585.69 73.5473C586.971 73.4719 588.022 73.4364 588.836 73.4364H590.759C591.203 73.463 591.549 73.8221 591.554 74.261L591.599 75.7726Z" fill="#FF8000"/>
<path d="M693.842 55.2706C692.521 53.6571 690.782 52.4336 688.805 51.7244C686.226 50.8422 683.503 50.4344 680.776 50.5186C677.855 50.5142 674.952 50.993 672.194 51.9416C670.005 52.6774 667.965 53.7768 666.155 55.1953C665.548 55.8558 665.575 56.8665 666.213 57.4959L669.673 60.9979C670.338 61.6495 671.412 61.6495 672.077 60.9979C672.93 60.2487 673.879 59.6148 674.894 59.1006C676.449 58.3382 678.161 57.9525 679.895 57.9702C681.71 57.9392 683.481 58.551 684.882 59.6902C686.19 60.7585 686.882 62.6646 686.985 65.7277C686.922 66.14 686.563 66.4458 686.141 66.4414C684.851 66.4414 683.445 66.4414 681.998 66.5168C680.192 66.5655 678.394 66.7118 676.606 66.9601C674.836 67.1994 673.092 67.5762 671.385 68.0904C669.781 68.5647 668.262 69.2917 666.892 70.2448C665.593 71.158 664.533 72.3593 663.787 73.7512C662.973 75.3603 662.578 77.1423 662.637 78.9376C662.601 80.5778 662.955 82.2002 663.674 83.6807C664.335 85.0195 665.296 86.1942 666.487 87.1118C667.714 88.0693 669.111 88.7829 670.612 89.2129C674.346 90.299 678.336 90.1039 681.944 88.6633C683.539 88.0294 684.945 87.0098 686.028 85.6933H686.136C686.37 85.5869 686.644 85.6312 686.828 85.8085C686.94 85.9149 686.999 86.0612 686.999 86.2163V87.4974C687.039 88.3618 687.74 89.0534 688.616 89.0977H695.603C696.493 89.0667 697.207 88.3574 697.23 87.4797V71.0383C697.257 67.7003 697.005 64.3713 696.479 61.0732C696.057 59.0031 695.154 57.0615 693.842 55.3948M686.994 75.7859C687.026 76.801 686.788 77.8117 686.302 78.7071C685.835 79.5272 685.179 80.232 684.384 80.7551C683.557 81.3003 682.645 81.717 681.688 81.9874C680.668 82.2888 679.607 82.4351 678.542 82.4307C677.293 82.4307 676.062 82.1027 674.984 81.4821C673.883 80.9235 673.218 79.7798 673.285 78.5608C673.227 77.4792 673.676 76.4286 674.503 75.7149C675.37 75.0057 676.381 74.4826 677.464 74.1767C678.65 73.8354 679.868 73.6315 681.099 73.5606C682.348 73.4852 683.404 73.4497 684.244 73.4497H686.168C686.612 73.4763 686.958 73.8354 686.958 74.2742L686.994 75.7859Z" fill="#FF8000"/>
<path d="M562.078 55.5987C560.618 53.9542 558.798 52.6598 556.754 51.8087C554.538 50.9088 552.161 50.4566 549.767 50.4788C547.102 50.4699 544.456 50.9221 541.948 51.8087C539.598 52.6509 537.433 53.9364 535.586 55.5987C533.775 57.2522 532.324 59.2558 531.326 61.4811C529.251 67.1153 529.251 73.2947 531.326 78.9288C532.319 81.1541 533.771 83.1533 535.586 84.7979C537.428 86.4735 539.589 87.7635 541.948 88.5924C544.456 89.4878 547.102 89.94 549.767 89.9223C552.678 89.9223 555.558 89.2972 558.205 88.0959C560.276 87.1916 562.154 85.9017 563.732 84.3014C564.32 83.6631 564.32 82.6923 563.732 82.054L558.717 78.388L558.353 78.1309C557.693 77.763 556.861 77.8693 556.322 78.3969C555.617 79.1682 554.813 79.8508 553.932 80.4271C552.539 81.2605 550.935 81.6772 549.308 81.624C547.304 81.6727 545.354 80.9989 543.818 79.7267C542.137 78.0289 541.131 75.7903 540.982 73.4188C540.982 73.0198 541.274 72.6785 541.674 72.612H565.102C565.992 72.5588 566.693 71.8362 566.697 70.9541V69.1366C566.738 66.5346 566.338 63.9413 565.515 61.4678C564.796 59.3046 563.651 57.3054 562.141 55.5854M554.727 65.0717H541.827C541.382 65.0673 541.018 64.7215 540.991 64.2827C541.095 63.6842 541.279 63.1035 541.531 62.5494C541.899 61.7515 542.429 61.0334 543.09 60.4438C543.791 59.8011 544.604 59.2913 545.489 58.9322C546.527 58.5288 547.637 58.3338 548.751 58.356C550.607 58.2895 552.404 59.0076 553.694 60.3286C554.763 61.388 555.415 62.7932 555.531 64.2827C555.5 64.7215 555.132 65.0673 554.687 65.0717" fill="#FF8000"/>
<path d="M519.505 70.728L519.253 70.3866C518.934 69.8636 518.934 69.2119 519.253 68.6888L532.225 52.7572C532.522 52.4247 532.486 51.9194 532.149 51.6268C531.996 51.4938 531.803 51.4229 531.601 51.4274H521.401C520.341 51.4274 519.343 51.9194 518.705 52.7572L518.148 53.4576L508.186 66.0912L508.056 66.2419L507.975 66.3173H507.908C507.679 66.4281 507.4 66.3838 507.216 66.2065C507.135 66.1222 507.081 66.0158 507.054 65.9006V35.3627C507.005 34.5249 506.335 33.8511 505.486 33.7891H497.488C496.63 33.8556 495.956 34.5426 495.92 35.3938V87.4087C495.96 88.2687 496.652 88.9558 497.524 89.0001H505.419C506.281 88.9647 506.978 88.2865 507.023 87.4353V72.7094C507.045 72.5942 507.104 72.4878 507.184 72.4036C507.369 72.2263 507.647 72.1819 507.876 72.2927H507.944C507.98 72.306 508.007 72.3326 508.025 72.3681V72.4124L508.222 72.6429L517.905 86.9965L518.462 87.6969C519.096 88.5037 520.071 88.9824 521.104 88.9957H531.888C532.01 88.978 532.117 88.9248 532.207 88.845C532.472 88.6012 532.544 88.22 532.391 87.8964L519.505 70.728Z" fill="#FF8000"/>
<path d="M663.193 54.0648C663.324 53.7101 663.391 53.3378 663.386 52.961C663.391 52.8945 663.391 52.828 663.386 52.7615C663.234 52.0168 662.587 51.4715 661.818 51.4317H655.483C653.888 51.4272 652.504 52.5221 652.167 54.0603L651.965 54.8095L646.622 74.1588C646.487 74.3051 646.303 74.3982 646.101 74.4115C645.849 74.3938 645.625 74.2475 645.503 74.0259L645.436 73.7156L640.102 54.1534L640.017 53.8032C639.568 52.4157 638.256 51.4716 636.777 51.4716H629.894C628.308 51.4671 626.933 52.5443 626.578 54.0692V54.2465L626.434 54.8361L621.568 74.1057C621.397 74.416 621.006 74.5312 620.692 74.3628C620.683 74.3628 620.678 74.3539 620.669 74.3495C620.575 74.2918 620.494 74.212 620.436 74.1145L614.666 54.8272L614.388 53.9406C614.397 53.883 614.397 53.8254 614.388 53.7678C613.916 52.4113 612.622 51.5026 611.171 51.5026H604.193C603.424 51.5469 602.782 52.0921 602.624 52.8324C602.62 52.9034 602.62 52.9699 602.624 53.0408C602.624 53.4176 602.692 53.7899 602.818 54.1446L614.311 86.8678C614.352 86.9919 614.401 87.1161 614.464 87.2313C614.976 88.3085 616.032 89.031 617.232 89.1241H623.972C625.36 89.0177 626.546 88.0868 626.96 86.7747L627.238 85.8261L632.527 67.0663C632.648 66.9023 632.841 66.8003 633.048 66.7915C633.255 66.8048 633.448 66.9111 633.574 67.0752L639.64 86.194C639.752 86.5575 639.891 86.9121 640.053 87.2535C640.565 88.3306 641.621 89.0532 642.821 89.1507H649.359C650.558 89.0621 651.619 88.3351 652.117 87.2535C652.194 87.1116 652.427 86.4777 652.567 86.0522L663.35 54.415C663.35 54.344 663.373 54.2775 663.409 54.2155" fill="#FF8000"/>
<path d="M736.401 52.735C736.365 52.6419 736.338 52.5488 736.315 52.4513C736.055 51.8795 735.498 51.4938 734.864 51.4451H728.124C726.839 51.4894 725.689 52.2474 725.154 53.3999C725.109 53.4975 725.073 53.5994 725.037 53.7014L724.992 53.8743C724.961 53.9629 724.934 54.056 724.911 54.1491L724.714 54.783L718.589 74.5446L718.504 74.784C718.41 75.143 718.073 75.3913 717.695 75.3735C717.354 75.3824 717.039 75.1741 716.918 74.8593L709.63 54.7741L709.567 54.5081L709.077 53.1517C708.498 52.11 707.397 51.4495 706.193 51.4185H698.59C698.051 51.5204 697.593 51.875 697.359 52.3671C697.319 52.4513 697.292 52.54 697.269 52.6331C697.22 52.9212 697.238 53.2138 697.328 53.493L711.823 88.3352C712.047 89.0666 712.002 89.8512 711.697 90.5516V90.658L711.432 91.3141C711.045 92.2582 710.672 93.1315 710.326 93.8718C710.007 94.5722 709.572 95.215 709.037 95.7691C708.48 96.301 707.806 96.7 707.064 96.9349C706.08 97.2319 705.056 97.3693 704.027 97.3427H699.224C698.325 97.3649 697.606 98.0786 697.588 98.9651V104.91C697.611 105.796 698.334 106.51 699.233 106.532H705.667C707.842 106.594 710.012 106.337 712.106 105.765C713.611 105.322 714.995 104.546 716.15 103.5C717.246 102.445 718.136 101.195 718.774 99.8207C719.466 98.3445 720.18 96.6601 720.917 94.7761L736.432 53.3999C736.477 53.1827 736.477 52.9611 736.432 52.7439" fill="#FF8000"/>
<path d="M734.874 81.3843C733.778 81.3533 732.726 81.7966 731.989 82.5989C730.408 84.1682 730.412 86.7082 732.003 88.2685C733.594 89.8289 736.168 89.8245 737.75 88.2552L737.844 88.1666C739.354 86.6107 739.354 84.1549 737.844 82.5989C737.107 81.801 736.056 81.3577 734.96 81.3843" fill="#FF8000"/>
<path d="M803.985 55.6386C802.291 54.0073 800.278 52.7351 798.067 51.9017C793.242 50.133 787.926 50.133 783.101 51.9017C780.89 52.7351 778.877 54.0073 777.187 55.6386C775.534 57.2655 774.226 59.1982 773.341 61.3304C772.38 63.5468 771.921 67.9176 771.921 70.6394C771.89 73.5074 772.366 76.3577 773.341 79.0618C775.13 83.4325 778.684 86.868 783.145 88.5436C787.971 90.3123 793.287 90.3123 798.112 88.5436C800.332 87.7014 802.35 86.4203 804.048 84.7801C805.697 83.1533 807.004 81.2206 807.894 79.0928C808.865 76.3888 809.345 73.5384 809.314 70.6704C809.314 67.9575 808.833 63.5778 807.894 61.3614C807.004 59.2336 805.697 57.2965 804.048 55.6696M802.156 76.6946C801.613 78.2062 800.759 79.5937 799.645 80.764C798.535 81.9254 797.196 82.8518 795.713 83.4946C792.428 84.8067 788.753 84.8067 785.468 83.4946C783.99 82.8474 782.656 81.9209 781.537 80.764C780.436 79.5848 779.587 78.2018 779.039 76.6946C778.432 74.722 778.131 72.6652 778.14 70.6039C778.131 68.2501 778.432 65.9051 779.039 63.6266C780.122 60.5812 782.449 58.1254 785.455 56.8532C788.735 55.5145 792.419 55.5145 795.7 56.8532C798.705 58.1343 801.037 60.5945 802.129 63.6443C802.713 65.9228 803.001 68.2678 802.983 70.6216C803.001 72.6829 802.713 74.7353 802.129 76.7123" fill="#FF8000"/>
<path d="M748.896 59.6593C749.898 58.458 751.166 57.5094 752.608 56.8799C754.239 56.2106 755.991 55.887 757.757 55.9313C759.411 55.9003 761.051 56.2239 762.565 56.8799C763.688 57.4207 764.713 58.1433 765.593 59.0166C766.218 59.5618 767.148 59.5795 767.795 59.0609L769.92 57.1636C770.576 56.5696 770.653 55.5722 770.091 54.8896C768.649 53.5908 766.973 52.5668 765.148 51.8752C762.794 50.9798 760.291 50.5277 757.766 50.5454C755.241 50.5144 752.738 50.9842 750.402 51.9196C748.236 52.7795 746.272 54.0695 744.632 55.7141C743.019 57.372 741.761 59.3313 740.934 61.4768C739.191 67.1819 739.191 73.2682 740.934 78.9732C741.757 81.1187 743.006 83.078 744.605 84.7359C746.209 86.3982 748.16 87.6926 750.325 88.5304C755.048 90.3124 760.269 90.3124 764.991 88.5304C766.815 87.8256 768.478 86.7706 769.884 85.4274C770.437 84.7758 770.401 83.8183 769.799 83.211L768.002 81.4733C767.35 80.8882 766.353 80.8882 765.701 81.4733C763.634 83.5657 760.763 84.696 757.802 84.5763C756.126 84.5941 754.464 84.2572 752.936 83.579C751.512 82.9229 750.249 81.9743 749.229 80.7907C748.191 79.5761 747.378 78.1886 746.834 76.6903C746.25 74.5891 745.962 72.417 745.98 70.2361C745.967 68.0596 746.218 65.8919 746.726 63.7774C747.18 62.2791 747.917 60.8784 748.901 59.6505" fill="#FF8000"/>
<path d="M864.957 59.0693C864.561 57.3982 863.797 55.8378 862.71 54.4991C861.609 53.2224 860.194 52.2428 858.599 51.6532C856.586 50.9306 854.451 50.5893 852.308 50.6514C849.985 50.5539 847.685 51.1567 845.721 52.3846C844.279 53.3909 843.025 54.6365 842.014 56.0639L841.839 56.3121L841.754 56.4362C841.641 56.5604 841.475 56.6313 841.304 56.6224C841.08 56.6224 840.873 56.4983 840.765 56.3033C840.765 56.2368 840.657 56.1304 840.608 56.0284C840.437 55.7492 840.262 55.4654 840.082 55.1419C839.552 54.3173 838.882 53.5948 838.101 52.9964C837.135 52.2738 836.061 51.702 834.919 51.2986C832.062 50.4164 829.011 50.3632 826.126 51.1567C824.94 51.4936 823.808 51.9901 822.761 52.6373C821.799 53.2091 820.927 53.914 820.173 54.734C819.925 55.0089 819.723 55.2837 819.49 55.5674L819.422 55.6428C819.404 55.6871 819.377 55.727 819.337 55.758C819.103 55.9885 818.726 55.993 818.492 55.758C818.407 55.6738 818.348 55.5674 818.321 55.4521V53.054C818.294 52.1807 817.58 51.4759 816.69 51.4537H814.583C813.68 51.4848 812.965 52.2117 812.961 53.1027V87.342C812.974 88.233 813.698 88.9556 814.601 88.9822H817.131C818.052 88.9512 818.78 88.2109 818.784 87.3021V69.1984C818.771 67.3809 818.982 65.5679 819.418 63.8036C819.786 62.2965 820.438 60.8691 821.341 59.6013C822.213 58.4177 823.376 57.4735 824.72 56.8529C826.265 56.1836 827.941 55.86 829.631 55.9043C832.026 55.9043 833.747 56.7022 834.794 58.3025C835.84 59.9027 836.362 62.6201 836.362 66.4589V87.311C836.371 88.2109 837.103 88.9467 838.015 88.9689H840.549C841.47 88.9379 842.198 88.1976 842.203 87.2888V66.1176C842.18 64.6991 842.423 63.2894 842.917 61.9551C843.34 60.7716 843.991 59.6811 844.836 58.7413C845.645 57.8636 846.624 57.1588 847.721 56.6712C848.826 56.1747 850.026 55.9265 851.239 55.9309C852.681 55.8777 854.119 56.157 855.431 56.7465C856.464 57.2386 857.363 57.97 858.046 58.8832C858.702 59.7919 859.16 60.8248 859.394 61.9152C859.637 63.0545 859.758 64.2159 859.758 65.3773V87.3775C859.78 88.2685 860.508 88.9866 861.411 89.0088H863.937C864.858 88.9866 865.59 88.2419 865.59 87.3332V65.0847C865.617 63.0589 865.397 61.0331 864.93 59.0605" fill="#FF8000"/>
<path d="M131.916 36.6227H117.659C114.577 36.6227 112.715 38.3958 112.074 41.9421C111.113 47.2615 111.108 47.4566 115.35 47.4566H123.824L119.007 74.6166C117.853 80.6985 115.157 84.8787 106.876 87.3522C104.755 87.9196 104.18 88.682 104.18 89.6307C104.18 90.7743 104.562 91.723 105.528 94.0014C106.876 97.233 107.648 97.8048 108.803 97.8048C109.958 97.8048 112.079 97.233 112.847 97.0468C124.601 93.2434 129.418 84.3113 131.341 73.668L136.733 43.0814C137.374 38.7638 135.769 36.605 131.916 36.605" fill="#FF8000"/>
<path d="M182.43 36.6183C178.578 36.6183 176.394 38.2008 175.879 41.3659L171.642 66.079C170.487 73.3001 168.559 77.4802 161.433 77.4802C154.307 77.4802 151.997 73.3001 153.147 66.8414L157.191 43.2675C158.351 36.6183 158.157 36.6183 152.186 36.6183C146.214 36.6183 146.21 36.6183 145.446 41.1797L141.209 65.875C138.702 79.9405 147.562 88.682 160.08 88.682C174.144 88.682 181.271 82.4096 183.585 67.5861L187.822 43.0636C188.783 36.605 188.397 36.605 182.43 36.605" fill="#FF8000"/>
<path d="M212.754 77.4674C217.382 77.2812 219.885 75.1889 219.885 73.0966C219.885 70.4369 216.609 69.4883 212.179 68.154C203.507 65.4943 195.608 62.4534 195.608 53.3306C195.608 42.4967 204.666 36.6055 216.03 36.6055C220.847 36.6055 226.243 36.7961 229.712 37.1729C232.794 37.5541 233.562 38.5027 232.601 43.2547C231.639 48.0067 230.48 48.388 227.784 48.1974C224.508 48.0067 220.271 47.63 215.261 47.63C209.483 47.63 207.749 49.7178 207.749 51.6195C207.749 54.0886 210.058 55.4229 215.455 56.9389C225.47 59.7892 232.021 63.7788 232.021 72.3342C232.021 82.4056 224.508 88.2924 212.372 88.6781C206.576 88.8776 200.771 88.5628 195.033 87.7295C191.178 87.1576 190.989 87.1576 191.951 81.6476C192.912 76.705 192.912 76.3282 196.574 76.705C203.7 77.463 208.131 77.6536 212.75 77.463" fill="#FF8000"/>
<path d="M275.139 36.6045H242.581C239.498 36.6045 237.637 38.4412 236.996 42.1145C236.034 47.6245 236.223 47.6245 240.271 47.6245H250.866L244.895 81.6422C243.735 88.2915 243.929 88.2915 249.9 88.2915C255.49 88.2915 255.683 88.2915 256.451 83.5394L262.616 47.6334H272.834C275.916 47.6334 277.778 45.7967 278.419 42.1234C279.06 38.45 277.966 36.6104 275.139 36.6045Z" fill="#FF8000"/>
<path d="M318.728 47.6295C321.81 47.6295 323.672 45.7913 324.313 42.115C324.954 38.4387 323.862 36.602 321.037 36.605H297.726C289.441 36.605 289.639 36.605 288.291 44.7747L282.315 79.178C280.773 88.1102 280.967 88.1102 289.252 88.1102H311.983C316.8 88.1102 316.607 88.1102 317.573 82.7908C318.214 79.1145 317.122 77.2763 314.297 77.2763H294.644L296.181 67.3867H312.558C315.512 67.3867 317.245 65.6756 317.757 62.2534C318.272 58.7072 316.539 56.934 312.558 56.934H298.099L299.64 47.625H318.728V47.6295Z" fill="#FF8000"/>
<path d="M348.858 65.8751L356.371 49.5267C356.757 48.6402 357.271 48.1969 357.912 48.1969C358.874 48.1969 358.878 48.1969 359.071 49.7173L361.381 65.8751H348.858ZM369.28 43.0636C368.51 38.7579 365.043 36.605 358.878 36.605C350.206 36.605 350.399 36.605 347.703 41.9244L328.243 82.015C325.354 87.7201 325.934 88.2875 333.06 88.2875C336.786 88.2875 339.419 86.5779 340.959 83.1587L344.041 76.3144H362.913L363.879 83.1587C364.647 88.2875 364.841 88.2875 370.426 88.2875C376.784 88.2875 377.363 87.9107 376.208 81.6382L369.28 43.0636Z" fill="#FF8000"/>
<path d="M418.933 36.6045H386.177C383.095 36.6045 381.231 38.4412 380.587 42.1145C379.621 47.6245 379.842 47.6245 383.885 47.6245H394.481L388.522 81.6422C387.368 88.2915 387.561 88.2915 393.532 88.2915C399.118 88.2915 399.311 88.2915 400.084 83.5394L406.248 47.6334H416.457C419.539 47.6334 421.402 45.7967 422.046 42.1234C422.816 38.45 421.789 36.6134 418.964 36.6134" fill="#FF8000"/>
<path d="M101.135 49.8784C100.816 49.0583 96.3987 41.0127 88.2031 30.9191C87.9964 30.6753 87.8661 30.3739 87.8256 30.0591C87.3359 24.1812 86.5181 18.3298 85.3723 12.5405C85.1072 11.3481 84.1008 10.4571 82.8696 10.3241L74.3325 9.30897C74.2561 9.30454 74.1842 9.30454 74.1078 9.30897C73.1148 9.30897 72.3105 10.1025 72.3105 11.0821V13.9989C72.3105 14.0566 72.2611 14.1053 72.2027 14.1053C72.1757 14.1053 72.1488 14.0964 72.1308 14.0787C66.8018 9.30454 61.0505 5.01355 54.9397 1.25893C53.6906 0.434419 52.2213 0 50.7206 0C49.2198 0 47.7505 0.434419 46.5014 1.25893C17.0753 19.1898 0.899657 48.2825 0.279592 49.8784C-0.403379 51.3146 0.216687 53.0257 1.668 53.7039C1.83874 53.7837 2.01398 53.8458 2.1982 53.8901L10.6679 55.4992C11.8137 55.8095 12.6539 56.7759 12.7842 57.9417C12.8516 59.4179 14.4557 92.3672 16.4642 100.914C16.8057 102.177 17.9604 103.055 19.2859 103.055H19.3489C24.2914 102.931 28.8161 102.851 33.7272 102.784H34.1495C34.6708 102.78 35.0931 102.359 35.0976 101.845V101.822C34.8954 98.9455 34.4686 92.3672 34.1226 85.4209C34.1226 85.248 34.1001 85.0308 34.0911 84.8535C34.0417 84.2728 33.7047 83.7542 33.1925 83.466C30.5774 81.919 28.9149 79.1928 28.7577 76.1873C28.3083 64.6353 28.0882 51.2791 28.7262 40.8309C28.7442 39.9045 29.5215 39.1642 30.4606 39.1863C31.3997 39.2041 32.1501 39.971 32.1321 40.8974V41.0304C31.7142 47.9944 31.6828 56.2306 31.8265 64.356C31.8445 65.4598 32.7656 66.3331 33.8844 66.3154C35.0033 66.2976 35.8884 65.3889 35.8704 64.2851C35.7177 56.1065 35.7626 47.8171 36.1895 40.8309C36.2074 39.9045 36.9848 39.1642 37.9239 39.1863C38.8629 39.2041 39.6133 39.971 39.5953 40.8974V41.0304C39.182 47.9589 39.146 56.1464 39.2898 64.2275C39.3078 65.3313 40.2244 66.209 41.3432 66.1912C42.462 66.1735 43.3517 65.2692 43.3337 64.1654C43.1809 56.0223 43.2259 47.7639 43.6527 40.8265C43.6707 39.9 44.448 39.1598 45.3871 39.1819C46.3262 39.1996 47.0766 39.9665 47.0586 40.893V41.026C46.452 51.1861 46.6497 64.0413 47.0586 75.3229V75.6022V75.713C47.0586 78.683 45.5803 81.4668 43.0956 83.1469C42.6507 83.4527 42.3721 83.9448 42.3407 84.4767C42.3407 84.4767 42.134 86.21 42.9068 94.6013C43.2708 98.2673 43.5449 100.807 43.6752 101.955C43.7336 102.399 44.12 102.731 44.5738 102.727H57.4245L62.2277 102.767C62.686 102.767 63.0725 102.434 63.1264 101.986C64.2407 91.9283 64.5013 86.2765 64.5013 86.2765C64.4878 85.78 64.1059 85.3633 63.6027 85.3101L57.7615 84.5166C56.9706 84.4191 56.3101 83.865 56.09 83.107C56.0181 82.8188 55.9956 82.5174 56.0181 82.2204C58.3501 48.6771 69.5517 37.3866 69.5517 37.3866C69.7179 37.2226 69.9022 37.0719 70.0954 36.9433C70.8997 36.3671 72.023 36.5444 72.6071 37.3379C72.6969 37.462 72.7688 37.5905 72.8228 37.7324C72.9036 37.9939 72.9531 38.2643 72.9665 38.5392C73.9326 49.076 73.4608 67.0113 72.8632 81.0014C72.3555 92.877 71.7399 102.199 71.7399 102.199C71.7399 102.58 72.0544 102.891 72.4408 102.891C75.622 102.944 78.7313 103.006 82.0743 103.09H82.1372C83.4627 103.09 84.622 102.213 84.959 100.949C86.9674 92.4026 88.5535 59.4533 88.6389 57.9772C88.7692 56.8113 89.6094 55.8405 90.7552 55.5347L99.225 53.9256C100.784 53.5355 101.728 51.9751 101.337 50.4369C101.287 50.2552 101.224 50.0823 101.144 49.9138L101.135 49.8784Z" fill="#FF8000"/>
</svg>
