<svg width="149" height="103" viewBox="0 0 149 103" fill="none" xmlns="http://www.w3.org/2000/svg">
<g clip-path="url(#clip0_370_775)">
<path d="M15.7618 48.0777C17.1238 46.6806 18.5185 45.3267 20.1856 44.2587C22.7353 42.6296 25.5302 41.7288 28.5266 41.3458C30.3518 41.1139 32.166 41.0546 33.9802 41.3728C37.4452 41.9716 40.6214 43.2014 43.2638 45.5694C44.6094 46.7777 45.6446 48.2179 46.4182 49.8415C47.911 52.9863 48.7881 56.2659 48.5048 59.7612C48.227 63.2027 47.2463 66.4607 45.601 69.5191C42.7135 74.8809 38.6056 79.0936 33.3918 82.2815C31.6048 83.3765 29.7743 84.3906 27.7694 85.0433C24.348 86.1599 20.8448 86.4997 17.26 86.1167C14.3017 85.8039 11.4578 85.1242 8.85902 83.6516C5.18155 81.5587 2.47385 78.6082 1.00286 74.6381C0.398121 72.9983 0.147508 71.283 0.0439943 69.5245C-0.114001 66.8868 0.147508 64.3139 0.926586 61.7948C1.84187 58.8335 3.32375 56.1688 5.42127 53.8871C8.1889 50.8772 11.6321 48.9785 15.7618 48.0831V48.0777ZM14.634 82.2761C14.9554 82.3894 15.2605 82.5135 15.5765 82.6052C18.306 83.4197 21.1063 83.5438 23.9176 83.3604C25.0235 83.2902 26.1458 83.1014 27.2082 82.7994C31.8936 81.467 35.6528 78.8078 38.5457 74.924C40.5833 72.1838 41.9453 69.1362 42.7353 65.8458C43.3128 63.4292 43.4544 60.9533 43.4054 58.4559C43.3509 55.419 42.6808 52.5494 41.297 49.8469C39.1232 45.591 35.522 43.5197 30.8148 43.1906C28.5811 43.0342 26.4237 43.4603 24.3643 44.2856C18.8181 46.5026 15.6419 50.656 14.8628 56.4493C14.3997 59.8853 14.8574 63.3321 15.8816 66.6819C16.5245 68.7963 17.2818 70.8838 17.5487 73.09C17.8484 75.5443 17.5869 77.9177 16.2902 80.0808C15.8326 80.8413 15.2169 81.5102 14.6285 82.2761H14.634ZM14.0728 50.5428C13.9584 50.5428 13.8604 50.5212 13.7732 50.5428C13.4518 50.6506 13.1358 50.7585 12.8252 50.888C10.3845 51.9021 8.63019 53.6875 7.28996 55.8721C4.28261 60.7753 3.56891 66.0615 4.76205 71.6282C5.73181 76.1539 8.62475 79.1638 12.6563 81.4562C13.0486 81.0679 13.479 80.7388 13.7841 80.3235C14.3507 79.5521 14.6177 78.6513 14.7212 77.7074C14.9282 75.7709 14.634 73.8991 13.9257 72.0921C12.6999 68.9635 11.6866 65.7918 11.4251 62.4097C11.2017 59.5617 11.4959 56.7945 12.5201 54.1298C12.9832 52.9215 13.5498 51.7564 14.0837 50.5374L14.0728 50.5428Z" fill="white"/>
<path d="M54.7369 66.8758C56.3659 65.7376 57.8805 64.6318 59.4441 63.5962C61.4109 62.2854 63.4811 61.1527 65.7421 60.3921C67.5944 59.7664 69.4849 59.5344 71.4354 59.6315C73.048 59.7124 74.0722 60.5971 74.41 62.1452C74.677 63.375 74.5081 64.5671 74.0177 65.6837C72.5522 68.9956 70.6944 72.0649 67.9704 74.5246C64.4672 77.6855 60.6372 80.361 56.1752 82.0385C53.6419 82.9933 51.0213 83.6622 48.3354 84.0505C46.7337 84.2825 45.1156 84.4497 43.503 84.6277C43.1161 84.6709 42.7239 84.6331 42.2227 84.6331C42.3425 84.2933 42.3915 84.1045 42.4733 83.9265C45.1101 78.3436 47.7579 72.7661 50.3948 67.1778C53.1897 61.2605 55.9791 55.3432 58.7685 49.4259C58.9538 49.0321 59.1281 48.6276 59.2752 48.2176C59.6021 47.306 59.1989 46.6695 58.2237 46.648C57.7279 46.6372 57.2267 46.7936 56.7309 46.8691C56.553 46.8979 56.3005 46.79 55.9737 46.5455C56.2188 46.3944 56.4095 46.2272 56.6383 46.1409C59.03 45.2077 61.4217 44.2907 63.8135 43.3684C64.3147 43.1742 64.8105 42.9476 65.3171 42.7696C65.5514 42.6887 65.8075 42.6779 66.0799 42.6348C66.0417 43.3036 63.1161 49.6417 60.5446 54.8578C58.5942 58.817 56.7037 62.8086 54.7478 66.8704L54.7369 66.8758ZM47.8778 81.4776C48.1938 81.5261 48.3845 81.5746 48.5751 81.5854C53.522 81.8605 57.8206 80.2207 61.5961 77.1623C64.6634 74.681 66.908 71.5524 68.586 68.0139C69.1798 66.7571 69.6375 65.4733 69.425 64.0385C69.2452 62.841 68.5588 62.1775 67.3493 62.0966C66.2488 62.0211 65.1755 62.1452 64.2003 62.6846C63.1107 63.2887 62.0156 63.8928 60.9913 64.5941C58.5833 66.2447 56.464 68.2135 54.5735 70.4251C52.6176 72.7122 51.0213 75.2366 49.6266 77.8851C49.0219 79.034 48.488 80.2207 47.8778 81.4668V81.4776Z" fill="white"/>
<path d="M133.996 59.7555C133.707 60.597 133.451 61.336 133.167 62.1397C132.634 62.1397 132.165 62.1397 131.696 62.1397C129.73 62.1451 127.779 62.3285 125.862 62.7762C122.097 63.6662 119.035 65.635 116.731 68.7205C115.319 70.6138 114.039 72.5988 113.276 74.8373C112.857 76.0618 112.612 77.3564 112.399 78.6402C112.307 79.2119 112.443 79.8431 112.574 80.4256C112.71 81.0297 113.091 81.5044 113.68 81.7957C114.905 82.4052 116.186 82.5077 117.531 82.2758C119.667 81.9036 121.487 80.9165 123.061 79.4816C125.862 76.9302 127.812 73.834 129.011 70.2739C129.321 69.3462 129.485 68.3968 129.212 67.4097C128.923 66.3686 128.264 65.9101 127.196 66.0288C125.845 66.1798 124.766 66.8379 123.884 67.8089C123.388 68.3537 122.963 68.9632 122.5 69.5404C122.358 69.7184 122.206 69.8856 122.01 70.1175C121.748 69.6968 121.863 69.357 121.955 69.0171C122.549 66.7408 124.135 65.3761 126.227 64.5023C127.36 64.0276 128.553 63.8226 129.795 63.8658C131.86 63.9359 133.429 65.484 133.456 67.5391C133.478 69.3462 132.764 70.9374 131.844 72.437C130.656 74.3573 129.305 76.1697 127.659 77.7232C126.341 78.9638 124.908 80.102 123.432 81.1646C121.171 82.7936 118.714 84.0396 115.93 84.5791C114.377 84.8757 112.846 84.8973 111.304 84.5251C110.024 84.2123 109.158 83.4571 108.607 82.292C107.91 80.814 108.008 79.309 108.351 77.7717C108.847 75.5763 109.844 73.6183 111.152 71.7951C113.789 68.1217 117.177 65.3006 121.138 63.1214C123.878 61.611 126.777 60.5268 129.866 59.982C130.923 59.7932 132.012 59.7447 133.086 59.653C133.336 59.6314 133.598 59.7123 133.996 59.7609V59.7555Z" fill="white"/>
<path d="M80.4632 68.6073C80.7247 68.5911 80.9263 68.548 81.117 68.5695C84.1026 68.8392 86.892 68.2297 89.4853 66.7355C90.406 66.2069 91.2069 65.5381 91.7571 64.6265C92.1439 63.9792 92.4545 63.2671 92.0568 62.5389C91.6536 61.7946 90.9018 61.7083 90.1227 61.6975C88.4392 61.6651 86.9192 62.1883 85.4973 63.0028C82.3428 64.8099 79.7659 67.2264 77.7828 70.2741C76.5951 72.0919 75.7234 74.0337 75.1241 76.1051C74.7645 77.3457 74.6501 78.6079 74.7482 79.8809C74.8353 81.0299 75.658 81.8767 76.8402 82.1842C77.8917 82.4593 78.9323 82.2867 79.9566 82.1087C81.7926 81.785 83.4052 80.9166 84.8762 79.827C87.938 77.5507 90.2644 74.681 91.8498 71.2234C91.9424 71.0238 92.0786 70.8458 92.2802 70.6786C92.5689 72.0379 92.6125 73.3918 91.7898 74.5731C89.6596 77.6208 87.2951 80.4419 83.9718 82.3244C81.5256 83.7107 78.9323 84.59 76.1265 84.8165C74.9988 84.9082 73.8765 84.768 72.8304 84.3742C71.2178 83.7647 70.6131 82.4161 70.4442 80.8141C70.2807 79.2768 70.6131 77.815 71.147 76.3909C72.4273 72.9711 74.4485 70.0313 77.0309 67.453C79.8748 64.6103 83.1873 62.4526 86.9029 60.8884C88.8478 60.0685 90.8745 59.5722 92.9884 59.4751C93.7402 59.4427 94.4648 59.5668 95.1241 59.9714C95.6253 60.2842 95.8596 60.7157 95.8977 61.2983C96.0067 62.8572 95.3638 64.1194 94.2633 65.1443C92.7977 66.509 91.1361 67.6202 89.2456 68.3214C87.6329 68.9201 85.9822 69.4272 84.3205 69.8587C83.6231 70.0421 82.8386 70.0097 82.1031 69.9342C81.3458 69.8533 80.7356 69.4596 80.4578 68.5965L80.4632 68.6073Z" fill="white"/>
<path d="M100.239 64.1843C99.6944 63.6179 99.1278 63.6826 98.5121 63.9092C98.0054 64.0926 98 64.0764 97.4225 63.7042C97.7821 63.4938 98.0708 63.2835 98.3868 63.1432C100.348 62.2478 102.32 61.3686 104.287 60.4839C104.892 60.2088 105.497 59.9337 106.227 59.5993C106.483 62.3772 104.963 64.4917 103.955 66.9946C104.739 66.5954 105.257 66.1909 105.785 65.8187C108.406 63.9793 111.043 62.1669 113.903 60.6943C115.434 59.9014 117.03 59.4375 118.779 59.6371C118.975 59.6586 119.16 59.7126 119.471 59.7719C119.199 60.759 118.73 61.5897 118.305 62.4851C118.049 62.4851 117.809 62.5229 117.586 62.4797C115.63 62.1183 113.854 62.6254 112.116 63.4938C109.087 65.0096 106.472 67.0323 104.167 69.4867C103.007 70.7273 102.135 72.1567 101.274 73.5969C99.4111 76.7201 98.0163 80.0645 96.5508 83.3764C96.4691 83.5598 96.3819 83.7378 96.2512 84.0075C94.7747 84.2718 93.2656 84.5415 91.6094 84.8436C91.7183 84.4822 91.7565 84.2287 91.8654 84.0129C92.8788 81.9308 93.9466 79.8757 94.9109 77.772C96.5617 74.1795 98.1743 70.5655 99.7597 66.946C100.13 66.1046 100.55 65.2199 100.239 64.1951V64.1843Z" fill="white"/>
<path d="M137.259 62.6417C136.976 62.2641 137.118 62.0645 137.401 61.9351C137.771 61.7679 138.147 61.6276 138.529 61.4928C140.692 60.7214 142.854 59.9501 145.017 59.1841C145.17 59.1302 145.333 59.1194 145.595 59.0654C145.791 59.9986 145.573 60.8617 145.257 61.633C144.478 63.5587 143.65 65.4682 142.724 67.3292C141.067 70.6681 139.319 73.9585 137.613 77.2759C137.259 77.9609 136.894 78.6459 136.605 79.358C136.382 79.9028 136.055 80.5123 136.535 81.0679C137.036 81.6451 137.706 81.4401 138.332 81.289C138.627 81.2189 138.91 81.0733 139.204 81.0355C139.384 81.014 139.58 81.1488 139.972 81.2837C139.569 81.5534 139.379 81.7422 139.144 81.8285C136.627 82.8048 134.099 83.7649 131.577 84.7251C131.517 84.7467 131.446 84.7251 131.332 84.7251C131.103 84.1479 131.206 83.5654 131.31 82.9828C131.686 80.8144 132.508 78.797 133.516 76.8551C135.015 73.9639 136.567 71.0996 138.066 68.2138C138.697 66.9947 139.27 65.7379 139.863 64.4973C139.891 64.4379 139.912 64.3732 139.94 64.3139C140.185 63.7745 140.332 63.1973 139.972 62.6849C139.575 62.1077 138.926 62.3342 138.376 62.3828C137.989 62.4152 137.608 62.5554 137.254 62.6363L137.259 62.6417Z" fill="white"/>
<path d="M5.49666 93.3714H7.56149C7.80665 94.5473 7.52335 95.761 7.70314 96.9207C8.43318 97.1742 10.7486 97.2282 11.9908 97.0232C12.3504 95.8742 11.9744 94.6768 12.0017 93.4955C12.7644 93.215 13.4509 93.2959 14.2735 93.4253C14.1047 96.4838 14.0883 99.526 14.2953 102.584C13.4999 102.822 12.8189 102.806 12.0453 102.606V98.2423C10.607 98.0211 9.21226 98.1398 7.6759 98.1559C7.65411 99.6987 7.63776 101.155 7.61597 102.676H5.49121V93.3714H5.49666Z" fill="white"/>
<path d="M117.591 98.7547V102.568C116.812 102.86 116.088 102.741 115.221 102.676C115.27 101.635 115.341 100.621 115.363 99.6069C115.385 98.6036 115.385 97.5949 115.358 96.5916C115.33 95.5614 115.26 94.5311 115.205 93.5494C115.314 93.4523 115.363 93.3714 115.412 93.366C117.063 93.312 118.719 93.1178 120.354 93.4685C121.41 93.695 121.988 94.2938 122.086 95.173C122.222 96.419 121.803 97.2497 120.789 97.7514C120.555 97.87 120.321 97.9887 120.048 98.1236C120.206 99.0567 120.833 99.6878 121.318 100.384C121.814 101.096 122.337 101.786 122.898 102.568C122.048 102.887 121.252 102.692 120.375 102.714C119.525 101.392 118.659 100.049 117.798 98.7061C117.733 98.7223 117.662 98.7385 117.597 98.7493L117.591 98.7547ZM117.651 97.9024C118.147 97.8215 118.518 97.8377 118.823 97.6974C119.711 97.2983 119.939 96.5593 119.874 95.6315C119.781 94.3045 118.964 93.7813 117.651 94.3045V97.897V97.9024Z" fill="white"/>
<path d="M84.5815 102.693H82.1353C81.013 101.571 80.5336 99.8876 79.2152 98.5014V102.676H77.1285C76.927 101.894 76.8997 94.3533 77.1067 93.3446C77.7442 93.3338 78.4088 93.2853 79.0735 93.3122C80.0814 93.3446 81.0948 93.3824 82.0918 93.501C82.9253 93.6035 83.7207 94.4504 83.846 95.2218C83.9986 96.1711 83.5355 97.1474 82.7128 97.6005C82.4186 97.7624 82.119 97.9188 81.8302 98.086C81.7812 98.113 81.754 98.1939 81.6396 98.3719C82.5603 99.7204 83.5083 101.117 84.587 102.698L84.5815 102.693ZM81.1547 94.4234C80.4791 94.1501 79.8635 94.0962 79.3078 94.2616C79.0953 95.4267 79.1443 97.1043 79.4222 97.7839C80.1304 98.0968 80.7134 97.7678 81.1056 97.2661C81.7867 96.3923 81.7976 95.4213 81.1601 94.4234H81.1547Z" fill="white"/>
<path d="M21.6722 92.978C22.8218 93.005 23.846 93.334 24.8158 93.8411C27.5398 95.2759 27.6542 98.7929 26.3903 100.638C25.4804 101.965 24.2328 102.612 22.7074 102.844C20.9476 103.114 19.2969 102.882 17.8259 101.76C17.3083 101.366 17.0304 100.848 16.7962 100.303C15.6357 97.536 16.7253 94.5315 19.6455 93.4743C20.2939 93.2369 20.9967 93.1399 21.6777 92.9834L21.6722 92.978ZM18.6376 98.1294C18.6376 98.4314 18.6049 98.7335 18.6431 99.0356C18.7738 100.093 19.0626 101.123 20.016 101.716C21.4271 102.601 23.2631 102.321 24.1729 100.621C25.0391 99.0086 25.11 97.3149 24.3963 95.5996C23.9822 94.5963 23.214 94.0676 22.1843 93.9166C21.1002 93.7602 20.1794 94.1054 19.5148 95.0008C18.8229 95.934 18.6322 97.0074 18.6376 98.1348V98.1294Z" fill="white"/>
<path d="M107.84 103C107.306 102.919 106.777 102.833 106.244 102.752C102.806 102.228 101.607 97.8376 103.378 95.4642C104.751 93.6248 107.322 92.6701 109.556 93.2634C110.918 93.6248 112.057 94.2344 112.792 95.475C114.285 97.994 113.097 101.452 110.411 102.423C109.572 102.725 108.75 102.984 107.84 102.989V103ZM105.001 98.1721C104.925 99.2131 105.132 100.141 105.606 101.085C106.298 102.466 108.935 102.45 109.883 101.425C111.37 99.8226 111.49 96.7858 110.46 95.2269C109.687 94.051 108.303 93.5709 107.012 94.0779C106.265 94.3746 105.731 94.9248 105.399 95.653C105.029 96.4621 104.909 97.3144 104.99 98.1774L105.001 98.1721Z" fill="white"/>
<path d="M100.332 26.496C95.4067 28.3947 87.2128 26.8412 82.1787 22.1753C82.571 22.2508 82.8107 22.267 83.0286 22.3479C85.3168 23.2217 87.6704 23.745 90.1438 23.6856C91.7946 23.6425 93.4617 23.7773 95.0798 23.3027C95.5974 23.1516 96.1095 23.2757 96.529 23.5831C97.7875 24.5217 99.0242 25.4873 100.337 26.4906L100.332 26.496Z" fill="white"/>
<path d="M72.3675 6.81256C71.9589 4.97857 72.0189 3.19313 72.422 1.2998C72.6781 1.41847 72.9124 1.46702 73.0595 1.60187C75.5819 3.91054 77.4615 6.62916 78.671 9.83864C79.717 12.6274 79.9676 15.4647 79.6898 18.4044C78.5784 13.7332 76.0396 9.95731 72.373 6.80716L72.3675 6.81256Z" fill="white"/>
<path d="M82.424 20.2438C83.0669 19.9741 83.7152 19.7152 84.3526 19.4347C86.2812 18.5878 88.0955 17.5629 89.5991 16.0742C90.3183 15.3621 91.0483 14.6609 91.7402 13.9327C92.0617 13.5929 92.3504 13.2207 92.5956 12.8215C92.9987 12.1688 93.5435 11.8236 94.3226 11.7643C95.4994 11.678 96.6708 11.5162 97.8421 11.4137C98.1308 11.3867 98.4305 11.4514 98.7519 11.4784C98.8282 12.0933 98.4414 12.4547 98.1581 12.7676C97.0085 14.0298 95.908 15.3298 94.4806 16.3385C92.1652 17.9729 89.6808 19.2135 86.9078 19.823C85.6602 20.0981 84.3853 20.233 83.1159 20.4164C82.898 20.4488 82.6746 20.4164 82.4512 20.4164C82.4403 20.3571 82.424 20.3031 82.4131 20.2438H82.424Z" fill="white"/>
<path d="M75.9298 41.2646C73.5435 35.6709 74.9546 27.5852 78.9317 23.0703C78.7247 23.8039 78.5176 24.3757 78.4087 24.9636C78.1798 26.1773 77.9347 27.391 77.8312 28.6154C77.7549 29.4677 77.9565 30.3469 77.9347 31.21C77.902 32.5693 78.1254 33.9124 78.6266 35.1369C79.1442 36.4099 78.79 37.4078 78.1254 38.4165C77.5697 39.2526 76.9758 40.0671 76.382 40.8762C76.273 41.0272 76.0932 41.1243 75.9352 41.2592L75.9298 41.2646Z" fill="white"/>
<path d="M80.5721 18.4478C80.9807 14.0786 80.5394 9.84959 78.3765 5.9227C78.0442 5.31856 77.9734 4.76297 78.1749 4.11029C78.6271 2.67007 79.221 1.30537 80.0218 0C82.735 2.98293 84.1243 12.1421 80.5666 18.4478H80.5721Z" fill="white"/>
<path d="M78.049 19.0842C76.5127 18.1025 74.8891 17.3851 73.222 16.7701C70.9556 15.9394 68.6129 15.4324 66.1776 15.5996C65.2079 15.6697 64.4833 15.3515 63.8622 14.6341C63.3555 14.0515 62.7617 13.5445 62.2605 12.9673C61.8682 12.5142 61.5522 11.9964 61.1055 11.3814C61.4487 11.3005 61.683 11.2034 61.9172 11.198C63.4427 11.1549 64.9246 11.3868 66.4228 11.7051C68.2643 12.0989 69.9913 12.7407 71.6366 13.5984C73.1948 14.4075 74.6658 15.3623 75.8862 16.6461C76.4201 17.2071 76.9867 17.7303 77.5097 18.2967C77.7222 18.5286 77.8693 18.8199 78.049 19.0842Z" fill="white"/>
<path d="M68.7654 38.3356C68.0136 33.6859 73.5488 24.2571 77.94 22.709C77.8419 22.9194 77.8092 23.0704 77.7221 23.1729C76.4309 24.6994 75.4393 26.4039 74.7746 28.2757C74.2952 29.6242 73.9465 31.0267 73.5979 32.4183C73.4726 32.9308 73.4943 33.481 73.4889 34.015C73.478 34.7594 73.2655 35.4067 72.6499 35.8652C71.5766 36.6689 70.487 37.4564 69.3865 38.2278C69.2448 38.3302 69.0106 38.2979 68.7599 38.341L68.7654 38.3356Z" fill="white"/>
<path d="M77.3416 19.8231C76.9384 19.7961 76.6824 19.7907 76.4317 19.753C74.4214 19.4779 72.422 19.3052 70.3844 19.5696C68.4612 19.8231 66.5979 20.2438 64.8164 20.9936C64.1517 21.2741 63.5361 21.2795 62.8769 20.9181C61.8744 20.3679 60.8284 19.8932 59.8096 19.37C59.5209 19.2189 59.2593 19.0248 58.9434 18.8252C63.5524 15.9987 72.0242 16.2252 77.3416 19.8177V19.8231Z" fill="white"/>
<path d="M82.7998 21.0637C83.4263 21.0637 84.0583 21.0745 84.6848 21.0637C87.289 21.0152 89.757 20.3409 92.127 19.3322C93.1131 18.9115 94.0283 18.3181 94.9436 17.7518C95.3413 17.5036 95.7336 17.3742 96.1803 17.4389C97.8257 17.6763 99.362 18.248 100.887 18.9223C98.5285 22.2882 86.3955 23.8255 82.7998 21.0691V21.0637Z" fill="white"/>
<path d="M78.6052 18.3075C77.1723 16.576 75.6523 14.9524 73.849 13.5877C72.0239 12.2014 69.9536 11.3222 67.867 10.5347C66.8264 8.91645 66.2217 7.19574 65.8076 5.37793C70.3949 5.90116 77.4339 12.2068 78.6052 18.3075Z" fill="white"/>
<path d="M84.9035 35.9139C84.7182 37.7425 84.3968 39.5334 83.7757 41.2972C79.9621 38.0176 77.6739 29.4249 79.7332 23.4536C79.8422 24.0362 79.9403 24.4353 79.9893 24.8399C80.2944 27.251 80.9754 29.5327 82.0759 31.712C82.8223 33.1953 83.7485 34.5331 84.9035 35.9086V35.9139Z" fill="white"/>
<path d="M87.6104 1.40771C88.1552 2.50271 88.1116 6.33791 87.4415 8.87313C86.4445 12.622 84.6031 15.907 81.5957 18.5231C81.9062 17.7895 82.2168 17.0559 82.5273 16.317C83.3282 14.4182 83.7531 12.444 83.9275 10.3943C84.0364 9.15362 84.1073 7.93995 83.9111 6.7047C83.8349 6.21384 83.9002 5.7068 83.9002 5.21594C84.9844 3.78651 86.0849 2.40023 87.6159 1.40771H87.6104Z" fill="white"/>
<path d="M81.4273 22.666C82.2228 23.3349 82.8329 23.8905 83.4867 24.3975C86.287 26.5444 89.4306 27.9199 92.9228 28.5132C93.3314 28.5833 93.8217 28.7559 94.0778 29.0472C95.1838 30.3094 96.0173 31.7443 96.6493 33.3301C96.208 33.616 95.8266 33.4865 95.4398 33.4056C91.1576 32.4832 87.5128 30.4713 84.5436 27.2618C83.3995 26.0211 82.4516 24.651 81.6235 23.1946C81.5635 23.0921 81.5363 22.9681 81.4219 22.6714L81.4273 22.666Z" fill="white"/>
<path d="M94.1317 5.57733C93.6741 10.254 88.6346 17.2825 82.2549 19.3322C82.4129 19.1003 82.4891 18.9223 82.6199 18.8144C83.971 17.687 85.126 16.3871 86.0849 14.9253C87.3434 13.0158 88.3513 10.9822 88.9016 8.75444C89.0378 8.19346 89.2775 7.76733 89.7515 7.45447C90.9664 6.66154 92.2467 5.99267 93.6469 5.57733C93.7667 5.53957 93.9084 5.57733 94.1263 5.57733H94.1317Z" fill="white"/>
<path d="M59.6787 26.3285C63.743 21.7867 71.3267 19.4672 77.3087 20.8373C77.0527 20.9236 76.9165 21.0046 76.7639 21.0207C75.2821 21.2095 73.8928 21.695 72.4926 22.2074C70.9944 22.7576 69.6433 23.5613 68.303 24.3759C67.6765 24.7534 67.0718 25.2335 66.6087 25.7891C65.6335 26.965 64.4022 27.2401 62.9857 27.0405C62.0868 26.9165 61.1878 26.7762 60.2889 26.6144C60.1037 26.582 59.9348 26.4472 59.6787 26.3231V26.3285Z" fill="white"/>
<path d="M62.8931 33.2706C65.9604 26.9973 70.7547 23.2376 77.3143 21.668C77.3633 21.7273 77.4123 21.792 77.4559 21.8514C76.9002 22.2397 76.3499 22.6443 75.7779 23.0165C72.9067 24.9152 70.7221 27.4073 69.202 30.4711C69.0223 30.8325 68.8425 31.1939 68.6082 31.5176C68.4393 31.7495 68.1996 32.003 67.9435 32.0839C66.5924 32.5101 65.2304 32.8877 63.8629 33.2599C63.6177 33.3246 63.3453 33.2706 62.8877 33.2706H62.8931Z" fill="white"/>
<path d="M90.8795 38.584C89.5775 38.2064 88.6785 37.3595 87.785 36.6044C85.5295 34.7056 83.6826 32.4671 82.4405 29.7647C81.487 27.6879 80.8224 25.5465 80.7461 23.2324C81.122 23.9283 81.4761 24.6349 81.8738 25.3199C82.6529 26.6577 83.5682 27.8929 84.6742 28.9825C85.7474 30.0451 86.7662 31.1671 88.0901 31.9493C88.5532 32.219 89.049 32.4509 89.4576 32.7907C89.8008 33.082 90.1931 33.465 90.2912 33.8696C90.5908 35.1318 90.7651 36.4263 90.9613 37.7101C90.9994 37.9529 90.9177 38.2172 90.8795 38.584Z" fill="white"/>
<path d="M66.2054 97.7733C65.9493 97.3795 65.6933 97.0343 65.4917 96.6567C64.7453 95.2434 65.4972 93.8302 67.0771 93.458C67.818 93.28 68.4991 93.3987 69.1637 93.5928C70.3187 93.9219 70.662 95.265 69.8883 96.1766C69.5179 96.6081 69.1637 97.0504 68.6897 97.6222C69.0493 98.5015 70.0082 99.1326 70.8744 100.033C71.5064 99.1487 72.0567 98.372 72.656 97.5359C72.8793 97.784 73.0755 97.9998 73.3315 98.2803C72.6832 99.0678 72.0567 99.8284 71.3648 100.664C72.0022 101.339 72.5906 101.959 73.2825 102.687H70.6184C70.3133 102.515 69.9646 102.315 69.6323 102.126C69.082 102.337 68.5808 102.542 68.0741 102.714C67.1915 103.016 66.2926 103.032 65.3827 102.795C63.5958 102.331 63.0074 100.476 64.2822 99.1487C64.6636 98.7496 65.2084 98.4961 65.6769 98.1778C65.8349 98.0645 65.9875 97.9459 66.2109 97.7787L66.2054 97.7733ZM66.7829 98.3666C65.5135 99.3429 65.2574 100.249 65.9112 101.145C66.614 102.105 68.0687 102.256 69.1801 101.425C68.7279 100.125 67.4149 99.5155 66.7829 98.3666ZM67.3604 94.1808C67.0499 95.5941 67.1697 95.977 68.0741 96.6837C69.2237 96.1119 69.4852 95.2326 68.7878 94.1808H67.3604Z" fill="white"/>
<path d="M100.354 93.7599C100.18 94.1861 100.038 94.5367 99.8694 94.9412C99.3627 94.623 98.9868 94.3479 98.5836 94.1321C98.0116 93.8193 97.4178 93.8462 96.8239 94.1106C96.3445 94.3209 96.083 94.6661 96.0448 95.1894C96.0067 95.718 96.2246 96.0956 96.7041 96.3275C97.5213 96.7321 98.3494 97.1204 99.1503 97.5466C99.5044 97.7354 99.8204 97.9889 100.142 98.2262C101.449 99.2134 101.046 101.22 99.9348 101.981C98.2295 103.146 96.3499 103.221 94.4159 102.585C94.3287 102.558 94.2633 102.461 94.1162 102.337C94.2415 101.851 94.3668 101.344 94.5357 100.675C94.7591 100.95 94.8735 101.09 94.9879 101.231C95.7506 102.196 96.7749 102.374 97.9026 102.024C99.0032 101.684 99.3464 100.438 98.3385 99.6772C98.126 99.5208 97.8808 99.4021 97.6466 99.2835C96.922 98.9275 96.1919 98.5822 95.4619 98.2316C94.4376 97.7354 94.1761 96.8939 94.1979 95.8205C94.2197 94.7848 94.6992 94.0836 95.5654 93.6521C97.1018 92.8861 98.6599 92.8537 100.349 93.7599H100.354Z" fill="white"/>
<path d="M43.607 93.3662C43.5798 93.7438 43.5525 94.0513 43.5307 94.3587H40.2564V97.2985H43.5634C43.4871 97.6869 43.4381 97.935 43.3673 98.2964H40.2619C40.1039 99.4615 40.1856 100.513 40.1965 101.603C41.3025 101.943 42.3975 101.614 43.5198 101.813C43.5471 102.067 43.5798 102.315 43.6233 102.693C41.7383 102.779 39.9404 102.779 38.1752 102.682C37.9137 101.894 37.8647 94.4343 38.099 93.3608H43.607V93.3662Z" fill="white"/>
<path d="M134.579 94.5422C134.394 95.8583 134.443 95.9878 135.516 96.5218C136.181 96.8508 136.884 97.1043 137.538 97.4442C138.529 97.962 139.335 98.6147 139.357 99.8769C139.374 100.891 138.894 101.7 138.115 102.169C136.355 103.237 134.476 103.173 132.509 102.407C132.672 101.835 132.814 101.339 132.956 100.837C133.081 100.869 133.174 100.864 133.195 100.907C133.958 102.045 135.01 102.455 136.323 102.088C136.829 101.948 137.227 101.684 137.352 101.101C137.478 100.497 137.309 100.023 136.829 99.6935C136.388 99.3968 135.887 99.1811 135.407 98.9329C134.808 98.6255 134.182 98.3666 133.62 97.9998C131.861 96.8616 132.362 95.1085 133.452 94.0675C134.617 92.9563 136.982 92.7675 138.415 93.5443C138.529 93.6036 138.611 93.7169 138.72 93.814C138.703 93.9596 138.709 94.0998 138.665 94.2185C138.567 94.4612 138.437 94.6986 138.279 95.0168C137.162 93.9596 135.985 93.4202 134.59 94.5314L134.579 94.5422Z" fill="white"/>
<path d="M53.7344 102.32C53.8542 101.84 53.9741 101.366 54.1375 100.713C54.8512 101.608 55.5704 102.245 56.6382 102.148C57.0959 102.105 57.6134 102.062 57.9784 101.83C58.3053 101.625 58.4633 101.155 58.6159 100.923C58.5341 100.028 58.1092 99.6073 57.4663 99.3375C56.6927 99.0085 55.9082 98.6903 55.1618 98.2965C53.3694 97.3471 53.2658 94.9629 54.9166 93.814C55.5268 93.3933 56.1915 93.1451 56.8997 93.1397C57.6679 93.129 58.4415 93.2692 59.2043 93.3933C59.444 93.431 59.651 93.6468 59.9289 93.8194C59.7927 94.2455 59.6728 94.6123 59.5094 95.114C59.1825 94.8389 58.9591 94.6609 58.7521 94.4667C58.2454 93.992 57.6243 93.8626 56.9651 93.9435C55.9953 94.0567 55.5595 94.7364 55.7175 95.853C56.4857 96.6081 57.5371 96.9102 58.5069 97.3741C59.1443 97.6816 59.7654 98.0052 60.1577 98.6471C60.9259 99.9039 60.4628 101.501 59.2152 102.24C57.7932 103.081 56.2024 103.14 54.6006 102.79C54.4372 102.752 54.2792 102.687 54.1266 102.617C54.0395 102.574 53.9632 102.504 53.7344 102.337V102.32Z" fill="white"/>
<path d="M88.9076 94.3697C88.8422 95.3406 88.7823 96.2307 88.7224 97.1584C89.8011 97.5145 90.8308 97.1585 91.9149 97.3958C91.9313 97.6547 91.9476 97.9244 91.964 98.2912H88.8313C88.7224 99.4563 88.6788 100.524 88.8749 101.716H91.8932C91.9313 102.078 91.9531 102.321 91.9912 102.677C90.1825 102.784 88.45 102.784 86.6357 102.677V93.3934C88.3846 93.1992 90.1171 93.3233 91.9258 93.3287V94.3589H88.9021L88.9076 94.3697Z" fill="white"/>
<path d="M126.347 94.3371H123.966V93.3716H131.081C131.119 93.6737 131.152 93.9703 131.195 94.3317H128.7C128.488 95.2487 128.613 96.1495 128.591 97.0342C128.569 97.9727 128.591 98.9059 128.591 99.8445C128.591 100.745 128.591 101.641 128.591 102.595C127.943 102.849 127.262 102.768 126.494 102.628C126.456 101.231 126.494 99.8499 126.368 98.4798C126.243 97.1259 126.772 95.7719 126.347 94.3371Z" fill="white"/>
<path d="M33.3099 102.682H30.8528C31.1361 99.8875 30.9945 97.1689 31.0217 94.3693H28.3085C28.2813 94.0673 28.2595 93.7922 28.2432 93.5926C28.6027 93.2474 34.1489 93.1665 35.6362 93.4254V94.3639H33.1138C33.0375 97.1527 33.0157 99.8767 33.3153 102.676L33.3099 102.682Z" fill="white"/>
<path d="M46.2762 102.693C46.2762 100.977 46.2816 99.4399 46.2762 97.8972C46.2653 96.4084 46.238 94.9251 46.2217 93.3716H48.3846C48.6297 94.2724 48.4608 95.1786 48.4881 96.0686C48.5153 97.0072 48.4881 97.9458 48.4881 98.8843C48.4881 99.7851 48.4881 100.681 48.4881 101.7H51.648C51.6916 102.056 51.7243 102.304 51.7733 102.687C49.8883 102.779 48.0904 102.773 46.2762 102.687V102.693Z" fill="white"/>
<path d="M146.014 56.1202C145.246 56.1526 144.565 55.9206 144.195 55.16C143.802 54.3509 144.086 53.6335 144.652 53.0402C145.442 52.2095 146.434 51.8103 147.589 52.0638C148.896 52.3551 149.376 53.5796 148.684 54.7231C148.106 55.6779 147.251 56.1256 146.014 56.1202Z" fill="white"/>
</g>
<defs>
<clipPath id="clip0_370_775">
<rect width="149" height="103" fill="white"/>
</clipPath>
</defs>
</svg>
