<svg width="70" height="24" viewBox="0 0 70 24" fill="none" xmlns="http://www.w3.org/2000/svg">
<g opacity="0.8">
<path d="M46.229 1.79463V18.2312C46.7537 18.3159 47.2362 18.2651 47.7186 18.2735C48.1926 18.282 48.6665 18.2735 49.132 18.2735H54.8705C54.9805 18.5952 55.0143 21.6421 54.9212 22.4038C54.752 22.4123 54.5742 22.4377 54.3965 22.4377C50.774 22.4377 47.16 22.4377 43.5375 22.4377C43.1058 22.4377 42.6826 22.4377 42.251 22.4377C42.1071 22.4377 41.9717 22.4208 41.7855 22.4123V14.6172C41.5654 14.7695 41.43 14.8542 41.3031 14.9473C38.1884 17.3425 35.0653 19.7462 31.9506 22.1415C31.4259 22.5393 30.9096 22.9455 30.3849 23.3433C30.2748 23.428 30.1563 23.5041 30.0125 23.6057C26.1191 20.6095 22.2343 17.6218 18.3071 14.6087C18.2563 14.7695 18.2224 14.8626 18.197 14.9473C17.1983 18.5952 14.8116 20.8888 11.2483 22.006C10.3173 22.3023 9.34398 22.4208 8.37065 22.4208C5.7215 22.4208 3.08081 22.4208 0.431659 22.4208C0.296239 22.4208 0.152347 22.4038 0 22.3954V1.74384C0.186202 1.73538 0.355473 1.71845 0.524748 1.71845C3.07233 1.71845 5.61995 1.73538 8.16753 1.71845C13.1273 1.6846 16.8174 4.91775 18.1293 9.03113C18.1801 9.17501 18.2224 9.32736 18.2986 9.54741C18.8911 9.09884 19.4412 8.67565 19.9914 8.25246C20.55 7.82928 21.1001 7.39762 21.6587 6.96597C22.2173 6.54279 22.7675 6.11114 23.3261 5.68795C23.8847 5.26476 24.4349 4.83311 24.9935 4.40992C25.5521 3.98674 26.1022 3.55508 26.6608 3.1319C27.2194 2.70871 27.7696 2.27706 28.3282 1.85387C28.8783 1.43068 29.4369 0.999034 30.0293 0.541992C31.1127 1.43069 32.1792 2.30245 33.2964 3.20807C29.5808 6.01803 25.9075 8.80261 22.175 11.6295C23.0045 12.3574 23.8001 13.0514 24.621 13.7708C28.3366 10.8593 32.0268 7.96469 35.7508 5.05317C36.8342 5.9334 37.9006 6.81363 39.0263 7.73617C35.3023 10.6562 31.629 13.5338 27.905 16.4623C28.726 17.1817 29.5131 17.8673 30.3256 18.5782C30.461 18.4767 30.5795 18.4005 30.6811 18.3074C34.1597 15.489 37.6383 12.6621 41.1169 9.85211C41.3877 9.63205 41.4893 9.40353 41.4893 9.05652C41.4724 6.82209 41.4893 4.59612 41.4893 2.3617C41.4893 2.17549 41.4893 1.99776 41.4893 1.82848C41.8532 1.70999 45.755 1.69306 46.2374 1.80309L46.229 1.79463ZM4.46888 18.5274C4.59584 18.5444 4.70584 18.5613 4.81587 18.5613C5.95001 18.5613 7.0757 18.5613 8.20984 18.5613C9.55558 18.5528 10.7151 18.045 11.7054 17.1479C14.363 14.7357 14.5323 10.3261 12.0778 7.71078C10.9521 6.51739 9.57248 5.88261 7.92205 5.89954C6.93179 5.89954 5.95 5.89954 4.95974 5.89954C4.80739 5.89954 4.65508 5.91647 4.46888 5.92493V18.5359V18.5274Z" fill="white"/>
<path d="M56.8425 22.4125V1.76099H61.5652V18.2568C62.5301 18.2991 63.4611 18.2738 64.3836 18.2738C65.2977 18.2738 66.2118 18.2738 67.1259 18.2738H69.902C70.012 18.5869 70.0374 21.8624 69.9358 22.4125H56.834H56.8425Z" fill="white"/>
</g>
</svg>
