<svg width="64" height="46" viewBox="0 0 64 46" fill="none" xmlns="http://www.w3.org/2000/svg">
<g opacity="0.8">
<path d="M20.2794 10.6194C19.6192 8.86738 19.0098 7.22542 18.3919 5.58345C17.7741 3.94995 17.1478 2.31645 16.5553 0.606773C16.7754 0.581381 16.9192 0.547526 17.0631 0.547526C19.0521 0.547526 21.0326 0.55599 23.0216 0.539062C23.521 0.539062 23.8087 0.750656 23.9695 1.18231C24.2235 1.85094 24.4604 2.52804 24.7059 3.20514C25.3914 5.12641 26.0685 7.04768 26.7541 8.96895C26.788 9.05359 26.8387 9.13822 26.898 9.26518C28.2522 9.1213 29.6148 8.94356 30.9775 8.82507C32.3317 8.70657 33.6859 8.64733 35.0909 8.55423C35.2094 8.24107 35.3448 7.91098 35.4633 7.5809C36.2081 5.49882 36.953 3.4252 37.6978 1.34312C37.7316 1.25848 37.757 1.16538 37.7909 1.08074C37.9517 0.725265 38.214 0.539062 38.6288 0.539062C39.746 0.55599 40.8631 0.539062 41.9719 0.539062C42.8267 0.539062 43.6731 0.539062 44.528 0.539062C44.7057 0.539062 44.8834 0.55599 45.1543 0.572917C44.1471 3.39981 43.0891 6.12513 42.0565 8.90124C46.1022 9.32443 50.0294 10.1454 53.8211 11.5165C53.8804 11.5419 53.9311 11.6096 54.0158 11.6943C53.8211 11.8212 53.6435 11.7789 53.4657 11.762C52.2469 11.652 51.0281 11.5335 49.8009 11.4234C47.3125 11.2118 44.8157 11.3134 42.3189 11.3388C41.9296 11.3388 41.5318 11.4065 41.0917 11.4488C38.7811 17.6104 36.479 23.7551 34.1768 29.9083H27.5582C27.4735 29.7305 27.3635 29.5358 27.2873 29.3243C25.9416 25.7356 24.5874 22.147 23.2417 18.5584C22.9201 17.6951 22.6069 16.8233 22.2768 15.9515C22.1922 15.723 22.0906 15.5114 21.989 15.2575C21.405 15.4522 20.8633 15.6215 20.3386 15.8246C19.0352 16.3155 17.7318 16.8402 16.4199 17.3227C16.1067 17.4412 15.7597 17.5343 15.4296 17.5343C14.9472 17.5343 14.5071 17.3311 14.1939 16.9333C13.3814 15.8923 12.5604 14.8513 11.7479 13.8102C11.6887 13.7425 11.6548 13.6494 11.5786 13.514C12.2557 13.1246 13.0005 12.9723 13.6861 12.6845C14.397 12.3883 15.1419 12.1598 15.8782 11.9228C16.5976 11.6858 17.317 11.4573 18.0365 11.2457C18.7559 11.0341 19.4753 10.8394 20.2624 10.6194H20.2794ZM30.8505 20.4543C31.8408 17.6781 32.7888 15.0121 33.7706 12.2783C31.917 12.6084 30.1481 12.9215 28.3538 13.4209C29.1917 15.7738 30.0042 18.0505 30.859 20.4458L30.8505 20.4543Z" fill="white"/>
<path d="M59.1955 42.4429H56.7156C56.4109 43.0523 56.1147 43.6702 56.0724 44.415C56.2501 44.4658 56.394 44.5165 56.5295 44.5504C56.6564 44.5758 56.7833 44.5927 56.9018 44.6096C56.9949 45.0244 56.9611 45.1175 56.6395 45.1175C55.7339 45.1344 54.8282 45.1259 53.9141 45.1175C53.7787 45.1175 53.6518 45.0244 53.5502 44.982C53.5164 44.7366 53.5841 44.5843 53.7533 44.5758C54.5066 44.5504 54.8197 44.0256 55.099 43.4416C55.9877 41.5458 56.8849 39.6499 57.7736 37.754C57.8075 37.6863 57.8498 37.6186 57.8752 37.5509C58.0275 37.1023 58.3407 36.8822 58.8316 36.8738C59.1532 37.0684 59.1955 37.4662 59.3309 37.7709C60.1434 39.5822 60.9137 41.4019 61.7093 43.2216C61.7685 43.357 61.8447 43.4924 61.9039 43.6278C62.124 44.1611 62.4795 44.4996 63.0804 44.5673C63.1481 44.5673 63.2073 44.635 63.2581 44.6604C63.3427 44.8889 63.2581 45.0159 63.0635 45.0751C62.9788 45.1005 62.8773 45.109 62.7842 45.109C61.7262 45.109 60.6682 45.109 59.6103 45.109C59.204 45.109 59.1871 45.0751 59.1786 44.6435C59.4495 44.5589 59.7202 44.4658 60.0418 44.3642C59.7879 43.6448 59.5172 43.0185 59.1871 42.4345L59.1955 42.4429ZM58.8993 41.6896C58.5607 40.8602 58.2645 40.1492 57.9259 39.3367C57.5874 40.1662 57.2827 40.8856 56.9527 41.6896C57.6128 41.715 58.1883 41.715 58.8993 41.6896Z" fill="white"/>
<path d="M0 37.4577C0.00846374 37.2969 0.0253726 37.1615 0.0338364 37.0091C0.228502 36.9922 0.372401 36.9753 0.524748 36.9753C1.59964 36.9753 2.68301 36.9753 3.7579 36.9753C3.86793 36.9753 4.00332 36.9499 4.09642 36.9922C4.19799 37.043 4.33343 37.1615 4.33343 37.2461C4.33343 37.3392 4.20646 37.4746 4.10489 37.5085C3.93562 37.5762 3.73252 37.5677 3.55478 37.61C3.48707 37.627 3.42781 37.6862 3.32624 37.7539C3.98642 39.4213 4.79045 41.004 5.57758 42.6883C5.81456 42.4174 5.90767 42.1551 6.00924 41.9012C6.45782 40.8432 6.89793 39.7768 7.32958 38.7103C7.45653 38.3972 7.61736 38.0925 7.49886 37.6608C7.3042 37.6185 7.09262 37.5593 6.88103 37.5254C6.69482 37.5 6.53398 37.4577 6.53398 37.2376C6.53398 37.0176 6.7033 36.9668 6.8895 36.9668C7.32115 36.9668 7.76125 36.9668 8.1929 36.9668C8.66687 36.9668 9.14082 36.9668 9.60633 36.9668C9.73328 36.9668 9.87719 36.9668 9.99568 37.0176C10.165 37.0853 10.1734 37.3307 10.038 37.4408C9.99567 37.4746 9.93643 37.5085 9.88564 37.5085C9.09005 37.5423 8.75998 38.1433 8.47221 38.7357C7.51581 40.6824 6.58478 42.646 5.6453 44.6011C5.56066 44.7704 5.47603 44.9312 5.38293 45.1174H4.51119C4.29113 44.6688 4.05411 44.1948 3.83405 43.7209C3.18234 42.3159 2.53064 40.9109 1.8874 39.5059C1.74351 39.2012 1.61656 38.8796 1.46421 38.5749C1.09181 37.7962 0.914084 37.6608 0 37.4408V37.4577Z" fill="white"/>
<path d="M27.829 44.6945C27.6936 44.1613 27.5412 43.5603 27.3804 42.9002C27.5666 42.7986 27.7359 42.714 27.939 42.6039C28.0406 42.7648 28.1252 42.8832 28.2014 43.0102C28.4722 43.4419 28.7515 43.865 29.1916 44.1613C29.6994 44.4998 30.2496 44.6606 30.859 44.5675C31.3329 44.4998 31.7562 44.2967 31.8916 43.8058C32.027 43.3234 32.027 42.8494 31.6038 42.4431C31.2144 42.0792 30.732 41.9353 30.2665 41.7322C29.7164 41.4867 29.1578 41.2413 28.6584 40.9112C27.3042 40.014 27.5242 38.1859 28.8531 37.3818C29.8602 36.7724 30.9521 36.7047 32.0778 36.8994C32.4248 36.9586 32.7633 37.0687 33.1273 37.1533C33.2373 37.7711 33.3304 38.3382 33.4404 38.9645C33.2035 38.9984 33.0257 39.0238 32.8564 39.0407C32.6702 38.736 32.5094 38.4567 32.3316 38.1943C31.8238 37.4326 30.9436 37.3903 30.2496 37.6019C29.3778 37.8727 29.3017 38.9899 29.9364 39.4639C30.4527 39.8448 31.0536 39.9971 31.6207 40.251C32.0693 40.4542 32.5179 40.6573 32.9242 40.9281C34.1768 41.7745 34.1175 43.4334 33.0849 44.3559C32.4332 44.9399 31.6461 45.2277 30.7574 45.2616C29.8772 45.2869 29.0224 45.2362 28.1929 44.9145C28.1252 44.8892 28.0575 44.8553 27.9898 44.8214C27.9559 44.8045 27.9305 44.7791 27.829 44.6945Z" fill="white"/>
<path d="M48.7258 39.0999H48.2095C48.108 38.8375 48.0234 38.5921 47.9218 38.3466C47.7949 38.025 47.5579 37.805 47.2109 37.7626C46.6861 37.7034 46.1698 37.6695 45.6028 37.6188C45.5774 37.8304 45.5434 37.9658 45.5434 38.1097C45.5434 39.8447 45.5434 41.5883 45.5434 43.3233C45.5434 43.4164 45.5434 43.5095 45.5434 43.6026C45.5942 44.1697 45.7382 44.5167 46.4915 44.5506C46.8724 44.5675 47.0162 44.6691 46.9823 44.8637C46.9316 45.1515 46.6861 45.1092 46.483 45.1092C45.1965 45.1092 43.91 45.1092 42.632 45.1092C42.1749 45.1092 42.158 45.0753 42.1749 44.5929C42.3442 44.576 42.5304 44.559 42.7081 44.5336C43.2075 44.4659 43.4699 44.2036 43.4699 43.7211C43.4783 41.7745 43.4699 39.8278 43.4699 37.8811C43.4699 37.8304 43.4445 37.7711 43.4191 37.6949C42.8605 37.5934 42.3019 37.6526 41.7602 37.8134C41.1339 37.9996 41.1339 38.6683 40.77 39.1253C40.6176 39.1084 40.4399 39.0915 40.2029 39.0745C40.3806 38.2366 40.1775 37.4156 40.5584 36.5862C41.1593 37.1025 41.8363 36.9501 42.4796 36.9586C43.8422 36.9671 45.1965 36.9586 46.5592 36.9586C46.8977 36.9586 47.2447 36.9924 47.5748 36.9501C47.8795 36.9078 48.1673 36.7639 48.4889 36.6624C48.7936 37.0178 48.6412 37.4495 48.6836 37.8473C48.7259 38.2366 48.8782 38.6175 48.6836 39.0914L48.7258 39.0999Z" fill="white"/>
<path d="M16.318 37.4323C16.2165 37.1699 16.2927 37.0176 16.5635 36.9837C16.6397 36.9753 16.7158 36.9837 16.792 36.9837C17.9431 36.9837 19.0942 36.9837 20.2452 36.9837C20.4737 36.9837 20.7192 36.9584 20.7361 37.2884C20.66 37.517 20.4653 37.5254 20.2791 37.5593C19.7205 37.6608 19.5597 37.8217 19.5597 38.3887C19.5512 40.183 19.5512 41.9774 19.5597 43.7717C19.5597 44.3218 19.7543 44.4911 20.313 44.5673C20.533 44.5926 20.7361 44.6011 20.7446 44.8973C20.66 45.1174 20.4738 45.1428 20.2791 45.1428C19.0857 45.1428 17.9008 45.1428 16.7074 45.1428C16.6312 45.1428 16.5381 45.1513 16.4873 45.1174C16.4027 45.0582 16.3011 44.9651 16.2927 44.8804C16.2927 44.7958 16.3773 44.6688 16.462 44.6265C16.572 44.5673 16.7243 44.5926 16.8513 44.5588C17.1729 44.4826 17.4014 44.3218 17.4353 43.9579C17.4606 43.7124 17.503 43.467 17.503 43.23C17.503 41.7911 17.503 40.3608 17.503 38.9219C17.503 38.8627 17.503 38.8119 17.503 38.7527C17.4776 37.8132 17.3929 37.7116 16.4788 37.5254C16.445 37.5254 16.4112 37.4916 16.335 37.4492L16.318 37.4323Z" fill="white"/>
</g>
</svg>
