<svg width="110" height="24" viewBox="0 0 110 24" fill="none" xmlns="http://www.w3.org/2000/svg">
<g opacity="0.8">
<path d="M25.315 23.1064C25.0188 23.0725 24.7226 23.0471 24.4179 23.0133C22.5982 22.8525 20.9054 22.3192 19.4158 21.2443C17.7484 20.0425 16.6735 18.4259 16.1911 16.4285C15.8695 15.0997 15.8356 13.7624 16.1149 12.4336C16.6397 9.89447 18.0193 7.94781 20.2537 6.62746C21.2355 6.05193 22.2935 5.69645 23.4191 5.52718C25.078 5.27326 26.7031 5.38329 28.2942 5.91651C30.4864 6.65285 32.0352 8.09169 32.9916 10.1907C33.3809 11.0455 33.6264 11.9427 33.7703 12.8652C33.7703 12.8906 33.7703 12.9245 33.7703 12.9753C29.7839 14.6257 25.7975 16.2846 21.7772 17.9519C21.8703 18.0366 21.9295 18.0958 21.9888 18.1466C22.6489 18.7221 23.4191 19.0692 24.274 19.2215C25.3827 19.4162 26.4999 19.3993 27.5918 19.103C28.3027 18.9084 28.9459 18.5698 29.5553 18.172C29.86 17.9689 30.1648 17.7573 30.4864 17.5372C31.4597 18.282 32.433 19.0353 33.4317 19.8055C33.364 19.8817 33.3048 19.9494 33.2456 20.0171C32.6108 20.6857 31.8575 21.1936 31.0534 21.6337C30.0378 22.1838 28.9629 22.5647 27.8372 22.8101C27.2448 22.9371 26.6523 23.0048 26.0514 23.0641C25.9667 23.0641 25.8821 23.0979 25.7975 23.1064H25.315ZM20.5161 14.9304C23.2583 13.7963 25.9836 12.6621 28.7174 11.528C28.692 11.4687 28.6836 11.4349 28.6666 11.401C28.5989 11.2825 28.5312 11.1556 28.4635 11.0371C27.9642 10.2246 27.2701 9.63209 26.3561 9.31893C25.5859 9.05656 24.7987 9.05656 24.0031 9.22583C22.7674 9.48821 21.8195 10.1568 21.1678 11.2487C20.5415 12.3151 20.3637 13.4746 20.4738 14.6849C20.4738 14.7611 20.4991 14.8288 20.5161 14.9304Z" fill="white"/>
<path d="M63.7406 23.1062C63.6475 23.0977 63.5543 23.0724 63.4612 23.0724C62.2425 23.0131 61.0576 22.7931 59.9319 22.3022C57.6551 21.3119 56.0386 19.6699 55.133 17.3424C54.8367 16.5807 54.6759 15.7851 54.6082 14.9641C54.4812 13.3983 54.7352 11.9087 55.4123 10.4868C56.1402 8.95483 57.2404 7.74452 58.6708 6.8389C59.8049 6.11948 61.0406 5.6709 62.3694 5.49316C64.223 5.23925 66.0258 5.43392 67.7355 6.22105C70.4354 7.46522 72.162 9.53037 72.7629 12.4504C73.2877 15.0403 72.7544 17.427 71.1379 19.543C69.9953 21.0411 68.4887 22.0398 66.6944 22.6153C65.8396 22.8862 64.9509 23.0216 64.0537 23.0724C63.9691 23.0724 63.8845 23.0977 63.7998 23.1147H63.7575L63.7406 23.1062ZM68.3364 14.2785C68.3025 13.9738 68.2941 13.6607 68.2433 13.3644C68.0486 12.2049 67.5239 11.2231 66.6183 10.4698C65.6365 9.6404 64.4938 9.30185 63.2158 9.44573C61.667 9.61501 60.5074 10.3852 59.7626 11.7563C59.314 12.5942 59.1447 13.5083 59.1871 14.4563C59.2378 15.7089 59.678 16.8092 60.5582 17.7063C61.5738 18.7389 62.818 19.179 64.2568 19.0352C65.6787 18.8913 66.779 18.2057 67.5492 17.0123C68.074 16.1829 68.294 15.2688 68.3279 14.287L68.3364 14.2785Z" fill="white"/>
<path d="M99.8637 23.106C99.779 23.0976 99.6944 23.0722 99.6013 23.0722C98.044 22.996 96.5628 22.649 95.2001 21.8703C92.8303 20.5161 91.366 18.5018 90.8582 15.8103C90.5705 14.2953 90.689 12.7972 91.1968 11.3414C91.7046 9.87721 92.5595 8.63304 93.7444 7.62585C95.0732 6.48325 96.6221 5.78922 98.3487 5.51838C100.414 5.19676 102.394 5.45067 104.256 6.40707C106.829 7.72742 108.404 9.82642 108.937 12.6787C108.988 12.9411 108.996 13.2204 109.03 13.4828C109.038 13.5589 109.055 13.6351 109.072 13.7197V14.6931C109.055 14.8877 109.038 15.0824 109.013 15.2771C108.911 16.1319 108.691 16.9614 108.336 17.7485C106.973 20.8208 103.986 22.759 100.719 23.0214C100.456 23.0383 100.194 23.0806 99.9399 23.106H99.8552H99.8637ZM95.3271 14.2022C95.3525 14.4815 95.361 14.7608 95.4033 15.0316C95.5726 16.1404 96.055 17.1052 96.8845 17.8585C97.9932 18.8657 99.3051 19.2296 100.778 18.9673C102.284 18.6964 103.342 17.8331 103.994 16.4535C104.451 15.4717 104.561 14.4392 104.392 13.3812C104.223 12.2809 103.732 11.333 102.902 10.5797C101.895 9.66561 100.702 9.29321 99.3474 9.42863C97.9932 9.57251 96.9098 10.1988 96.1481 11.333C95.5725 12.1963 95.3356 13.1611 95.3186 14.1937L95.3271 14.2022Z" fill="white"/>
<path d="M4.8074 0.541992C4.8074 0.660485 4.8074 0.778977 4.8074 0.897469C4.8074 6.64435 4.8074 12.3997 4.8074 18.1466V18.4767H15.4632V22.7678C15.3871 22.7678 15.3109 22.7847 15.2347 22.7847C10.2327 22.7847 5.23906 22.7847 0.236984 22.7847C0.16081 22.7847 0.0761737 22.7678 0 22.7593C0 15.3535 0 7.95623 0 0.550456H4.8074V0.541992Z" fill="white"/>
<path d="M52.6953 22.7678H48.0064V22.4715C48.0064 19.3569 48.0064 16.2422 48.0064 13.1276C48.0064 12.5859 47.9218 12.0611 47.6848 11.5702C47.287 10.7408 46.6353 10.1653 45.7974 9.80132C44.7055 9.32735 43.5799 9.27657 42.4711 9.71668C41.1931 10.2245 40.4314 11.1894 40.2113 12.552C40.169 12.8144 40.169 13.0768 40.169 13.3392C40.169 16.3776 40.169 19.4161 40.169 22.4631C40.169 22.5562 40.169 22.6493 40.169 22.7424C39.9913 22.7932 35.7848 22.8016 35.5308 22.7593C35.4801 22.5985 35.4716 5.94185 35.5224 5.6964H40.169V8.11703C40.2452 8.04086 40.279 8.01547 40.3129 7.97315C41.2693 6.78823 42.4965 6.01803 43.9607 5.64562C45.9667 5.12933 47.8879 5.38324 49.6653 6.45814C50.9603 7.2368 51.8235 8.38787 52.306 9.80978C52.5684 10.58 52.6869 11.3756 52.6869 12.1881C52.6869 15.6244 52.6869 19.0607 52.6869 22.4969V22.7593L52.6953 22.7678Z" fill="white"/>
<path d="M86.0848 5.69637H91.4254C89.081 11.4009 86.745 17.0801 84.4005 22.7677C84.3244 22.7677 84.2482 22.7677 84.1805 22.7677C82.6231 22.7677 81.0658 22.7677 79.5085 22.7677C79.2376 22.7677 79.2715 22.7847 79.1784 22.5477C77.8834 19.3992 76.5885 16.2507 75.2935 13.1021C74.3033 10.6984 73.313 8.29474 72.3312 5.89104C72.3058 5.84025 72.2889 5.78101 72.272 5.73869C72.2804 5.72176 72.2804 5.7133 72.2889 5.70484C72.2889 5.70484 72.2973 5.68791 72.3058 5.68791C72.3651 5.68791 72.4243 5.67944 72.4836 5.67944C74.1848 5.67944 75.8775 5.67944 77.5956 5.67944C79.0091 9.54737 80.4141 13.4153 81.819 17.2748C81.836 17.2748 81.8529 17.2748 81.8698 17.2748C83.2748 13.4153 84.6798 9.5643 86.0933 5.68791L86.0848 5.69637Z" fill="white"/>
</g>
</svg>
