<svg width="73" height="51" viewBox="0 0 73 51" fill="none" xmlns="http://www.w3.org/2000/svg">
<g opacity="0.8">
<path d="M7.63852 23.4784C8.29869 22.7929 8.97577 22.1327 9.77982 21.6164C11.0155 20.8208 12.3613 20.3807 13.8086 20.1945C14.6888 20.0845 15.569 20.0506 16.4493 20.2029C18.1251 20.4907 19.657 21.1001 20.935 22.2512C21.5867 22.8436 22.0861 23.5461 22.4585 24.3417C23.178 25.8737 23.6012 27.4818 23.4657 29.183C23.3303 30.8673 22.8563 32.4584 22.0607 33.9481C20.6642 36.5634 18.6752 38.6285 16.153 40.1774C15.2897 40.7106 14.401 41.21 13.4362 41.5231C11.7857 42.0648 10.0845 42.2341 8.34945 42.0479C6.91907 41.8955 5.53949 41.5654 4.28686 40.846C2.50947 39.8219 1.1976 38.3831 0.486648 36.4449C0.190417 35.6408 0.0719352 34.8029 0.0211528 33.9481C-0.0550209 32.6616 0.0719352 31.4005 0.44434 30.1732C0.884455 28.7259 1.60388 27.4225 2.61953 26.3138C3.9568 24.8411 5.62413 23.9185 7.62158 23.4784H7.63852ZM7.09683 40.1858C7.24918 40.2451 7.40151 40.3043 7.55385 40.3467C8.8742 40.7445 10.2284 40.8037 11.5911 40.7106C12.1243 40.6767 12.666 40.5836 13.1823 40.4398C15.4505 39.788 17.2702 38.4931 18.6668 36.5972C19.6485 35.2599 20.3087 33.7703 20.6896 32.1622C20.9689 30.9773 21.0366 29.7754 21.0112 28.5567C20.9858 27.0755 20.6642 25.6705 19.9956 24.3502C18.9461 22.2681 17.2025 21.2609 14.9258 21.1001C13.8424 21.0239 12.8014 21.2355 11.8027 21.6333C9.11966 22.7167 7.58773 24.748 7.20686 27.5749C6.9868 29.2507 7.20688 30.935 7.69777 32.5685C8.01093 33.6011 8.37483 34.6167 8.50179 35.7001C8.64567 36.9019 8.51874 38.0614 7.89242 39.111C7.67237 39.4834 7.37612 39.805 7.08836 40.1858H7.09683ZM6.82598 24.6887C6.76674 24.6887 6.72443 24.6803 6.68211 24.6887C6.52977 24.7395 6.37744 24.7988 6.22509 24.858C5.04863 25.3574 4.19376 26.2291 3.55052 27.2956C2.09476 29.6908 1.7562 32.2722 2.33174 34.9891C2.79724 37.1981 4.20223 38.6708 6.14889 39.788C6.34356 39.6018 6.5467 39.441 6.69059 39.2379C6.96989 38.8655 7.09683 38.4169 7.14761 37.9599C7.24917 37.0119 7.10527 36.0979 6.75826 35.2176C6.1658 33.6857 5.67491 32.1368 5.54795 30.4864C5.43792 29.0983 5.58181 27.7441 6.08117 26.4407C6.30123 25.8483 6.58054 25.2812 6.83446 24.6887H6.82598Z" fill="white"/>
<path d="M26.4875 32.67C27.2746 32.1114 28.011 31.5782 28.7643 31.0704C29.7207 30.4271 30.7194 29.877 31.8112 29.5046C32.7084 29.1999 33.6225 29.0814 34.562 29.1322C35.3406 29.1745 35.84 29.6062 36.0008 30.3594C36.1278 30.9604 36.0515 31.5444 35.8061 32.086C35.0951 33.7026 34.198 35.2007 32.8777 36.4026C31.1849 37.943 29.3314 39.2548 27.1731 40.0758C25.9459 40.5413 24.6763 40.8714 23.3813 41.0576C22.6027 41.1676 21.824 41.2523 21.0453 41.3369C20.8591 41.3538 20.6645 41.3369 20.4275 41.3369C20.4867 41.1676 20.5121 41.0745 20.546 40.9899C21.824 38.2646 23.102 35.5393 24.38 32.8139C25.7342 29.9278 27.08 27.0332 28.4257 24.1386C28.5188 23.9439 28.595 23.7493 28.6712 23.5461C28.832 23.0975 28.6373 22.7929 28.1634 22.7844C27.9264 22.7844 27.6809 22.8521 27.4439 22.8944C27.3593 22.9057 27.238 22.8521 27.08 22.7336C27.1985 22.6574 27.2916 22.5813 27.4016 22.5305C28.5611 22.0734 29.7122 21.6249 30.8718 21.1763C31.1172 21.0832 31.3542 20.9731 31.5996 20.8885C31.7097 20.8462 31.8366 20.8462 31.9636 20.8208C31.9466 21.1509 30.5332 24.2402 29.2891 26.7877C28.3411 28.7175 27.4354 30.6726 26.4875 32.6531V32.67ZM23.1697 39.7965C23.3221 39.8219 23.4152 39.8473 23.5083 39.8473C25.9035 39.9827 27.9772 39.1787 29.8053 37.689C31.2865 36.4787 32.3698 34.9468 33.1824 33.2202C33.4701 32.6108 33.6902 31.976 33.5886 31.282C33.504 30.698 33.1654 30.3764 32.5814 30.334C32.0482 30.3002 31.5319 30.3594 31.0579 30.6218C30.5332 30.918 30 31.2143 29.5091 31.5528C28.3495 32.3569 27.317 33.3218 26.4029 34.4051C25.455 35.5223 24.6847 36.758 24.0076 38.053C23.7114 38.6116 23.4575 39.1956 23.1613 39.805L23.1697 39.7965Z" fill="white"/>
<path d="M64.82 29.1915C64.6761 29.5978 64.5576 29.9617 64.4222 30.3595C64.1598 30.3595 63.9398 30.3595 63.7113 30.3595C62.7633 30.3595 61.8154 30.4526 60.8928 30.6727C59.0731 31.1043 57.592 32.0692 56.4748 33.5757C55.7892 34.4983 55.1713 35.4716 54.8074 36.5634C54.6043 37.1644 54.4858 37.7907 54.3842 38.417C54.3419 38.6963 54.4096 39.001 54.4689 39.2888C54.5366 39.585 54.7227 39.8135 55.002 39.9574C55.5945 40.2536 56.2124 40.3044 56.8641 40.1944C57.8966 40.0166 58.7769 39.5342 59.5386 38.8317C60.8928 37.5875 61.8323 36.0725 62.4163 34.3375C62.5686 33.8804 62.6448 33.4234 62.5094 32.9409C62.3655 32.4331 62.0524 32.2046 61.5361 32.2638C60.8844 32.34 60.3596 32.6616 59.9364 33.1356C59.6994 33.398 59.4879 33.7027 59.2678 33.982C59.2001 34.0666 59.1239 34.1513 59.0308 34.2613C58.9038 34.0582 58.9631 33.8889 59.0054 33.7196C59.2932 32.6109 60.0634 31.9422 61.0706 31.5106C61.6207 31.2736 62.1962 31.1805 62.7972 31.1974C63.7959 31.2313 64.5576 31.9845 64.5661 32.9917C64.5746 33.872 64.236 34.6506 63.7874 35.387C63.2119 36.3264 62.5602 37.2151 61.7646 37.9684C61.1298 38.5778 60.4358 39.1279 59.7248 39.6527C58.633 40.4483 57.4396 41.0577 56.0939 41.3201C55.3406 41.4639 54.6043 41.4724 53.8595 41.2947C53.2416 41.1423 52.8184 40.7699 52.5561 40.2028C52.2175 39.4834 52.2683 38.7471 52.4291 37.9938C52.6661 36.9189 53.1485 35.9625 53.7833 35.0738C55.0613 33.2795 56.6948 31.8999 58.6161 30.8335C59.9449 30.0971 61.3414 29.5639 62.8395 29.3015C63.3558 29.2084 63.8805 29.183 64.3968 29.1407C64.5153 29.1323 64.6423 29.1661 64.837 29.1915H64.82Z" fill="white"/>
<path d="M38.9293 33.508C39.0563 33.4995 39.1494 33.4826 39.2425 33.491C40.6898 33.6265 42.0356 33.3218 43.2882 32.5939C43.7368 32.3315 44.1176 32.0099 44.3885 31.5613C44.5747 31.2481 44.727 30.9011 44.5323 30.5372C44.3377 30.1733 43.9737 30.1309 43.6013 30.1225C42.7888 30.1055 42.0525 30.3595 41.3669 30.7573C39.8434 31.6375 38.5993 32.8224 37.6344 34.312C37.0589 35.2007 36.6357 36.1487 36.3479 37.1643C36.1786 37.7737 36.1194 38.3831 36.1617 39.0094C36.204 39.568 36.6018 39.9827 37.1689 40.1351C37.6767 40.2705 38.1761 40.1859 38.6754 40.1012C39.5641 39.9404 40.3428 39.5172 41.0537 38.984C42.5349 37.8753 43.6606 36.4703 44.4308 34.7775C44.4731 34.676 44.5408 34.5913 44.6424 34.5152C44.7778 35.1838 44.8032 35.844 44.4054 36.4195C43.3728 37.9091 42.2302 39.2887 40.6221 40.2028C39.4372 40.8799 38.1845 41.3115 36.8303 41.4216C36.2887 41.4639 35.7385 41.3962 35.2392 41.2015C34.4605 40.9053 34.1643 40.2451 34.0881 39.4664C34.0119 38.7132 34.1727 38.0022 34.4266 37.3082C35.0445 35.6408 36.0263 34.202 37.2705 32.9409C38.6501 31.5528 40.2497 30.4949 42.044 29.7331C42.9835 29.3353 43.9653 29.0899 44.9894 29.0391C45.3533 29.0222 45.7003 29.0814 46.022 29.2846C46.2674 29.4369 46.3774 29.6485 46.3944 29.9363C46.4451 30.698 46.1405 31.3159 45.6072 31.8152C44.8963 32.4839 44.0922 33.0255 43.1782 33.3641C42.3995 33.6518 41.6039 33.9058 40.7914 34.1174C40.4528 34.2105 40.0719 34.1935 39.7165 34.1512C39.3525 34.1089 39.0563 33.9227 38.9209 33.4995L38.9293 33.508Z" fill="white"/>
<path d="M48.493 31.3495C48.2306 31.0702 47.9513 31.1041 47.6551 31.2141C47.4097 31.3072 47.4097 31.2987 47.1304 31.1125C47.2996 31.011 47.4435 30.9094 47.5958 30.8417C48.5438 30.4016 49.5002 29.9784 50.4482 29.5383C50.7444 29.4029 51.0322 29.2674 51.3876 29.1066C51.5146 30.4608 50.7783 31.4934 50.2874 32.7206C50.6682 32.526 50.9137 32.3313 51.176 32.1451C52.4456 31.248 53.7152 30.3593 55.1032 29.6398C55.848 29.2505 56.6182 29.0305 57.4646 29.1236C57.5577 29.132 57.6508 29.1574 57.7947 29.1913C57.6593 29.6737 57.4392 30.08 57.2276 30.5116C57.1006 30.5116 56.9906 30.5285 56.8806 30.5116C55.9327 30.3339 55.0778 30.5793 54.2399 31.0025C52.7757 31.7389 51.5061 32.7291 50.3973 33.931C49.8387 34.5403 49.4156 35.2344 49.0009 35.9369C48.1037 37.4603 47.4266 39.0938 46.7156 40.7104C46.6733 40.8035 46.631 40.8882 46.5718 41.0236C45.8608 41.1505 45.1244 41.286 44.3289 41.4298C44.3796 41.2521 44.3966 41.1336 44.4558 41.0236C44.9467 40.0079 45.463 39.0007 45.9285 37.9766C46.7241 36.2246 47.5028 34.4557 48.273 32.6868C48.4507 32.2721 48.6538 31.8489 48.5015 31.3411L48.493 31.3495Z" fill="white"/>
<path d="M66.3937 30.5965C66.2583 30.4103 66.3261 30.3172 66.4615 30.2495C66.6392 30.1648 66.8254 30.0971 67.0032 30.0294C68.0527 29.6485 69.0937 29.2761 70.1432 28.9037C70.2194 28.8783 70.2955 28.8699 70.4225 28.8445C70.5156 29.3015 70.414 29.7247 70.2617 30.0971C69.8808 31.0366 69.483 31.9676 69.0344 32.8817C68.2304 34.5152 67.384 36.1233 66.563 37.7399C66.3938 38.0784 66.216 38.4085 66.0721 38.7555C65.9621 39.0179 65.8098 39.3226 66.0383 39.5934C66.2837 39.8727 66.6053 39.7796 66.91 39.7035C67.0539 39.6696 67.1893 39.5934 67.3332 39.5765C67.4178 39.568 67.511 39.6358 67.7056 39.695C67.511 39.8304 67.4179 39.9151 67.3078 39.9658C66.0891 40.4398 64.8703 40.9138 63.643 41.3793C63.6176 41.3877 63.5838 41.3793 63.5245 41.3793C63.4145 41.1 63.4653 40.8122 63.5161 40.5244C63.7023 39.4665 64.0916 38.4847 64.5825 37.5283C65.3104 36.1148 66.0552 34.7183 66.7831 33.3049C67.0878 32.7124 67.3671 32.0946 67.6548 31.4936C67.6718 31.4682 67.6803 31.4344 67.6887 31.4005C67.8072 31.1382 67.8749 30.8589 67.7056 30.6049C67.511 30.3256 67.1978 30.4357 66.9354 30.4611C66.7492 30.478 66.563 30.5457 66.3937 30.588V30.5965Z" fill="white"/>
<path d="M2.67871 45.6025H3.67743C3.79592 46.178 3.66046 46.7705 3.7451 47.3375C4.10058 47.4645 5.2178 47.4899 5.81873 47.3883C5.99647 46.8297 5.81873 46.2457 5.81873 45.6617C6.19113 45.5263 6.52121 45.5601 6.919 45.6278C6.83437 47.1259 6.83437 48.6071 6.92747 50.1052C6.54661 50.2237 6.21655 50.2152 5.84414 50.1136V47.9808C5.15012 47.8707 4.47302 47.93 3.72821 47.9385C3.71974 48.6917 3.71125 49.4027 3.70279 50.1475H2.67871V45.6025Z" fill="white"/>
<path d="M56.8808 48.2349V50.097C56.4999 50.2408 56.1529 50.1816 55.7382 50.1477C55.7636 49.6399 55.7974 49.1405 55.8059 48.6497C55.8143 48.1588 55.8143 47.6679 55.8059 47.177C55.789 46.6776 55.7551 46.1698 55.7297 45.6958C55.7805 45.645 55.8059 45.6112 55.8313 45.6112C56.6269 45.5858 57.431 45.4927 58.2181 45.662C58.7344 45.772 59.0052 46.0597 59.056 46.4914C59.1237 47.1008 58.9206 47.507 58.4297 47.7525C58.3196 47.8117 58.2011 47.871 58.0742 47.9302C58.1503 48.3873 58.4551 48.692 58.692 49.039C58.929 49.386 59.1829 49.7245 59.4538 50.1054C59.039 50.2578 58.6582 50.1647 58.235 50.1731C57.8202 49.5299 57.4055 48.8697 56.9908 48.218C56.957 48.218 56.9231 48.2349 56.8893 48.2434L56.8808 48.2349ZM56.9146 47.8202C57.1516 47.7779 57.3379 47.7864 57.4817 47.7186C57.9134 47.524 58.0234 47.16 57.9895 46.7115C57.9472 46.0597 57.5494 45.8058 56.9146 46.0597V47.8117V47.8202Z" fill="white"/>
<path d="M40.9182 50.156H39.7333C39.1916 49.6058 38.9546 48.7848 38.3198 48.1077V50.1475H37.3127C37.2196 49.7666 37.2026 46.0849 37.3042 45.5855C37.6089 45.5855 37.9305 45.5602 38.2521 45.5686C38.743 45.5855 39.2254 45.6025 39.7163 45.6617C40.1226 45.7125 40.5035 46.1272 40.5627 46.4996C40.6389 46.9651 40.4104 47.4391 40.0126 47.6592C39.8687 47.7353 39.7248 47.8115 39.5809 47.8962C39.5555 47.9131 39.5471 47.9469 39.4878 48.0316C39.9364 48.6917 40.3935 49.3688 40.9097 50.1475L40.9182 50.156ZM39.2593 46.1188C38.932 45.9833 38.633 45.958 38.3621 46.0426C38.2606 46.6097 38.286 47.4306 38.4129 47.7607C38.7515 47.9131 39.0393 47.7607 39.2255 47.5068C39.5556 47.0836 39.5555 46.6097 39.2508 46.1188H39.2593Z" fill="white"/>
<path d="M10.4994 45.4165C11.058 45.425 11.5489 45.5858 12.0229 45.8397C13.3432 46.5422 13.394 48.2603 12.7846 49.1575C12.3445 49.8092 11.7436 50.1223 11.0072 50.2324C10.1524 50.3593 9.35682 50.2493 8.64587 49.6992C8.39195 49.5045 8.25651 49.2506 8.14648 48.9882C7.58788 47.634 8.11263 46.1698 9.52608 45.6535C9.83924 45.535 10.1778 45.4927 10.5079 45.4165H10.4994ZM9.03517 47.9302C9.03517 48.0741 9.01824 48.2265 9.03517 48.3704C9.09441 48.8866 9.23832 49.386 9.69536 49.6822C10.3809 50.1139 11.2612 49.9785 11.7013 49.149C12.116 48.3619 12.1498 47.5324 11.8113 46.6945C11.6082 46.2036 11.2358 45.9497 10.7449 45.8735C10.2201 45.7974 9.77155 45.9666 9.44993 46.4068C9.11138 46.8638 9.02674 47.3886 9.02674 47.9387L9.03517 47.9302Z" fill="white"/>
<path d="M52.1664 50.3086C51.9125 50.2663 51.6502 50.2239 51.3963 50.1901C49.7289 49.9362 49.1533 47.7864 50.0082 46.6353C50.6684 45.7382 51.9125 45.2727 52.9959 45.5604C53.656 45.7382 54.2062 46.0344 54.5617 46.6438C55.2811 47.871 54.7056 49.5638 53.4106 50.0377C53.0044 50.1901 52.6065 50.3086 52.1664 50.317V50.3086ZM50.7953 47.9557C50.7615 48.4635 50.863 48.9205 51.0915 49.3776C51.4301 50.0547 52.6996 50.0462 53.1567 49.5468C53.8761 48.7597 53.9354 47.2786 53.436 46.5168C53.0636 45.9413 52.395 45.7043 51.7687 45.9582C51.4047 46.1021 51.1508 46.3729 50.99 46.7284C50.8122 47.1262 50.753 47.5409 50.7953 47.9641V47.9557Z" fill="white"/>
<path d="M48.5354 12.9412C46.1487 13.8722 42.1961 13.1105 39.7585 10.8337C39.9447 10.8676 40.0632 10.8761 40.1733 10.9184C41.282 11.35 42.4162 11.6039 43.6095 11.5701C44.4051 11.5532 45.2092 11.6124 45.9963 11.3839C46.2502 11.3077 46.4956 11.367 46.6988 11.5193C47.3082 11.9763 47.9091 12.4503 48.5354 12.9412Z" fill="white"/>
<path d="M35.0104 3.32624C34.8157 2.42908 34.8411 1.55731 35.0358 0.634766C35.1627 0.694012 35.2728 0.719403 35.3489 0.778649C36.5677 1.90433 37.4818 3.23313 38.0658 4.79893C38.5737 6.16159 38.6921 7.54964 38.5567 8.98002C38.015 6.70327 36.7878 4.85817 35.0188 3.31777L35.0104 3.32624Z" fill="white"/>
<path d="M39.8773 9.88582C40.1905 9.7504 40.5037 9.63191 40.8084 9.48802C41.7394 9.0733 42.6196 8.57394 43.3475 7.84606C43.6945 7.49904 44.0499 7.15203 44.38 6.79655C44.5324 6.63574 44.6763 6.44954 44.7947 6.25487C44.9894 5.93325 45.2518 5.76397 45.6327 5.73858C46.1998 5.69626 46.7668 5.62009 47.3339 5.56931C47.4778 5.56084 47.6217 5.58624 47.774 5.60316C47.8079 5.89939 47.6217 6.07713 47.4863 6.22948C46.9277 6.84733 46.3944 7.48211 45.7088 7.97301C44.5916 8.7686 43.3898 9.37799 42.044 9.67422C41.4431 9.80964 40.8253 9.87735 40.2074 9.96199C40.1059 9.97892 39.9958 9.96199 39.8858 9.96199C39.8858 9.9366 39.8774 9.90274 39.8689 9.87735L39.8773 9.88582Z" fill="white"/>
<path d="M36.7371 20.1604C35.5861 17.4266 36.2631 13.474 38.1844 11.2734C38.0829 11.6289 37.9813 11.9082 37.9305 12.196C37.8205 12.7884 37.702 13.3809 37.6512 13.9818C37.6173 14.3966 37.7104 14.8282 37.702 15.2514C37.685 15.92 37.7951 16.5717 38.0321 17.1727C38.286 17.7905 38.1083 18.2814 37.7866 18.7723C37.5158 19.1786 37.228 19.5764 36.9403 19.9742C36.8895 20.0503 36.8048 20.0927 36.7202 20.1604H36.7371Z" fill="white"/>
<path d="M38.9796 9.01389C39.1743 6.88102 38.9627 4.81587 37.9217 2.8946C37.7609 2.59837 37.727 2.32753 37.8286 2.00591C38.0486 1.30342 38.3364 0.634781 38.7257 0C40.0376 1.45576 40.7063 5.93308 38.9881 9.01389H38.9796Z" fill="white"/>
<path d="M37.761 9.3188C37.0162 8.83637 36.2291 8.48935 35.4251 8.19312C34.3248 7.78686 33.1991 7.54141 32.0226 7.62605C31.5487 7.65991 31.2016 7.50756 30.9054 7.15208C30.66 6.86431 30.3722 6.61886 30.1268 6.33956C29.9405 6.1195 29.7797 5.86559 29.5681 5.5609C29.7374 5.51858 29.8474 5.47626 29.9575 5.4678C30.6938 5.4424 31.4132 5.5609 32.1411 5.71324C33.0298 5.90791 33.8677 6.22107 34.6633 6.63579C35.4166 7.03359 36.1275 7.49909 36.72 8.12541C36.9739 8.39625 37.2532 8.65863 37.5071 8.92947C37.6087 9.0395 37.6848 9.18338 37.7695 9.31033L37.761 9.3188Z" fill="white"/>
<path d="M33.2752 18.7219C32.9113 16.4537 35.5858 11.8409 37.7102 11.0876C37.6594 11.1892 37.651 11.2654 37.6086 11.3162C36.9823 12.061 36.5084 12.8989 36.1867 13.8045C35.9582 14.4647 35.789 15.1502 35.6197 15.8273C35.5604 16.0728 35.5689 16.3436 35.5689 16.606C35.5689 16.9699 35.4588 17.2831 35.1626 17.5116C34.6463 17.901 34.1131 18.2903 33.5884 18.6627C33.5207 18.7135 33.4022 18.6966 33.2837 18.7135L33.2752 18.7219Z" fill="white"/>
<path d="M37.4225 9.6826C37.2278 9.66567 37.1009 9.66567 36.9824 9.64874C36.009 9.51332 35.0442 9.42868 34.0539 9.55564C33.1229 9.6826 32.2257 9.88573 31.3624 10.2497C31.0408 10.3851 30.7446 10.3851 30.423 10.2158C29.9405 9.94497 29.4327 9.71645 28.9418 9.46254C28.7979 9.38637 28.671 9.29326 28.5271 9.1917C30.7531 7.81211 34.8495 7.92214 37.4225 9.67413V9.6826Z" fill="white"/>
<path d="M40.063 10.2835C40.3677 10.2835 40.6724 10.2835 40.9771 10.2835C42.2382 10.2581 43.4316 9.92802 44.5742 9.43712C45.0481 9.23399 45.4967 8.94622 45.9368 8.66692C46.1315 8.54843 46.3177 8.48072 46.5377 8.51457C47.3333 8.63307 48.0781 8.91237 48.8145 9.24246C47.6719 10.8844 41.8065 11.6377 40.063 10.292V10.2835Z" fill="white"/>
<path d="M38.0321 8.94603C37.3381 8.09966 36.6018 7.30407 35.73 6.64389C34.8498 5.96679 33.8426 5.53514 32.8354 5.15428C32.336 4.36715 32.0398 3.52077 31.8367 2.63208C34.0542 2.88599 37.4566 5.96679 38.0237 8.94603H38.0321Z" fill="white"/>
<path d="M41.0793 17.5368C40.9862 18.4255 40.8339 19.3058 40.5376 20.1691C38.6925 18.5694 37.5838 14.3714 38.5825 11.4514C38.6333 11.7392 38.684 11.9338 38.7094 12.1285C38.8533 13.305 39.1834 14.4222 39.7166 15.4886C40.0806 16.2165 40.5292 16.8682 41.0793 17.5368Z" fill="white"/>
<path d="M42.3825 0.685547C42.6449 1.21876 42.6279 3.09771 42.2979 4.33342C41.8154 6.16159 40.9267 7.7697 39.4709 9.04772C39.6233 8.69225 39.7757 8.32831 39.9196 7.97283C40.3089 7.04182 40.512 6.07695 40.5966 5.07823C40.6474 4.46884 40.6813 3.87638 40.5966 3.27545C40.5628 3.03847 40.5966 2.78456 40.5966 2.54757C41.1214 1.84508 41.6546 1.17644 42.3909 0.685547H42.3825Z" fill="white"/>
<path d="M39.3947 11.0706C39.7755 11.4006 40.0718 11.6715 40.3934 11.9169C41.7476 12.9664 43.2711 13.6351 44.9553 13.9313C45.15 13.9652 45.387 14.0498 45.514 14.1937C46.0472 14.8115 46.4534 15.514 46.7581 16.2842C46.5465 16.4196 46.3603 16.3604 46.1741 16.3181C44.1005 15.8695 42.3401 14.8877 40.9012 13.3134C40.3426 12.7041 39.8856 12.0354 39.4878 11.3245C39.4624 11.2737 39.4455 11.2144 39.3862 11.0706H39.3947Z" fill="white"/>
<path d="M45.5393 2.72534C45.3193 5.01055 42.8817 8.43837 39.7925 9.44555C39.8687 9.33552 39.9025 9.24242 39.9702 9.19164C40.6219 8.6415 41.1805 8.00672 41.646 7.29576C42.2554 6.36475 42.7463 5.36603 43.0087 4.28267C43.0764 4.01183 43.1864 3.80024 43.4234 3.64789C44.0074 3.25856 44.6338 2.93694 45.3109 2.73381C45.3701 2.71688 45.4378 2.73381 45.5393 2.73381V2.72534Z" fill="white"/>
<path d="M28.8826 12.8563C30.8462 10.6388 34.5194 9.50464 37.4056 10.1733C37.2786 10.2156 37.2109 10.2579 37.1432 10.2664C36.4238 10.3595 35.7551 10.5965 35.078 10.8504C34.3502 11.1212 33.6984 11.5105 33.0552 11.9083C32.7505 12.0945 32.4543 12.3231 32.2342 12.6024C31.7603 13.1779 31.1678 13.3133 30.4822 13.2118C30.0421 13.1525 29.6105 13.0848 29.1788 13.0086C29.0857 12.9917 29.0095 12.924 28.8826 12.8647V12.8563Z" fill="white"/>
<path d="M30.4316 16.2503C31.9127 13.1864 34.2318 11.3498 37.4057 10.5796C37.4311 10.6134 37.448 10.6388 37.4734 10.6727C37.2026 10.8589 36.9402 11.062 36.6609 11.2398C35.2728 12.1708 34.2148 13.3811 33.4785 14.8792C33.3939 15.0569 33.3092 15.2346 33.1908 15.387C33.1061 15.497 32.9961 15.624 32.8691 15.6663C32.2174 15.8694 31.5572 16.0641 30.8971 16.2418C30.7786 16.2757 30.6432 16.2418 30.4231 16.2418L30.4316 16.2503Z" fill="white"/>
<path d="M43.9652 18.849C43.3389 18.6628 42.8987 18.248 42.4671 17.8841C41.3753 16.9616 40.4781 15.8613 39.8857 14.5409C39.4286 13.5253 39.0986 12.4842 39.0647 11.3501C39.2424 11.6886 39.4201 12.0357 39.6063 12.3657C39.9787 13.0175 40.4274 13.6184 40.9606 14.1516C41.4769 14.6679 41.9762 15.218 42.611 15.5989C42.8311 15.7343 43.0765 15.8443 43.2712 16.0052C43.4404 16.149 43.6267 16.3352 43.6774 16.5299C43.8213 17.1478 43.9059 17.7741 43.999 18.4089C44.0159 18.5274 43.9821 18.6543 43.9567 18.832L43.9652 18.849Z" fill="white"/>
<path d="M32.031 47.7609C31.9126 47.5663 31.7856 47.397 31.684 47.2108C31.3201 46.5168 31.684 45.8312 32.4542 45.645C32.8097 45.5604 33.1398 45.6196 33.4614 45.7127C34.02 45.8735 34.1893 46.5337 33.8084 46.9738C33.6307 47.1854 33.4529 47.397 33.2244 47.6763C33.3937 48.108 33.8592 48.4127 34.2824 48.8528C34.5871 48.4211 34.8579 48.0402 35.1457 47.634C35.2557 47.7525 35.3488 47.8625 35.4758 47.9979C35.1626 48.3788 34.8579 48.7512 34.5278 49.1659C34.8325 49.496 35.1203 49.8007 35.4589 50.1562H34.1723C34.0285 50.0715 33.8592 49.9784 33.6984 49.8853C33.4275 49.9869 33.1905 50.0885 32.9451 50.1731C32.5134 50.317 32.0818 50.3255 31.6417 50.2154C30.7784 49.9869 30.4906 49.0813 31.1085 48.438C31.2947 48.2434 31.557 48.1164 31.7856 47.9641C31.8617 47.9133 31.938 47.854 32.0395 47.7694L32.031 47.7609ZM32.3103 48.0487C31.6925 48.5227 31.574 48.9713 31.8871 49.4029C32.2257 49.8684 32.9282 49.9446 33.4698 49.5383C33.2498 48.9035 32.615 48.6073 32.3103 48.0402V48.0487ZM32.5896 46.0005C32.4373 46.6945 32.4966 46.8807 32.9367 47.2193C33.4953 46.94 33.6222 46.5083 33.2837 46.0005H32.5896Z" fill="white"/>
<path d="M48.5527 45.7973C48.4681 46.0089 48.4004 46.1781 48.3158 46.3728C48.0703 46.2204 47.8926 46.085 47.6894 45.975C47.4101 45.8227 47.1224 45.8396 46.8431 45.9665C46.6146 46.0681 46.4876 46.2374 46.4707 46.4913C46.4537 46.7537 46.5553 46.9314 46.7923 47.0499C47.1901 47.2446 47.5879 47.4392 47.9772 47.6424C48.1465 47.7355 48.2988 47.8539 48.4596 47.9724C49.0944 48.4549 48.8997 49.4367 48.3581 49.8091C47.5286 50.3761 46.623 50.4185 45.692 50.1053C45.6496 50.0884 45.6158 50.0461 45.5481 49.9868C45.6073 49.7498 45.6666 49.5044 45.7512 49.1743C45.8612 49.3097 45.912 49.3774 45.9713 49.4451C46.3437 49.9191 46.8346 50.0037 47.3847 49.8345C47.9179 49.6652 48.0872 49.0558 47.5963 48.6919C47.4947 48.6157 47.3763 48.5564 47.2578 48.4972C46.9108 48.3195 46.5553 48.1586 46.1998 47.9809C45.7089 47.7355 45.5819 47.3292 45.5904 46.8044C45.5989 46.2966 45.8359 45.9581 46.2506 45.7465C46.9954 45.3741 47.7487 45.3571 48.5612 45.7973H48.5527Z" fill="white"/>
<path d="M21.1045 45.6025C21.0876 45.7887 21.0791 45.9411 21.0707 46.085H19.4879V47.5238H21.0876C21.0537 47.71 21.0283 47.837 20.9945 48.0147H19.4964C19.4202 48.5818 19.4625 49.0981 19.4625 49.6313C19.9957 49.8006 20.529 49.6313 21.0707 49.7328C21.0876 49.8598 21.096 49.9783 21.1214 50.1645C20.2074 50.2068 19.3441 50.2068 18.4892 50.1645C18.3623 49.7752 18.3368 46.1358 18.4553 45.611H21.1214L21.1045 45.6025Z" fill="white"/>
<path d="M65.0989 46.1782C65.0058 46.8214 65.0311 46.8807 65.5559 47.143C65.8775 47.3038 66.216 47.4223 66.5377 47.5916C67.0201 47.8455 67.4095 48.1671 67.4179 48.785C67.4179 49.2759 67.1978 49.6737 66.817 49.9022C65.9621 50.427 65.0565 50.3931 64.1086 50.0207C64.1847 49.7414 64.2525 49.496 64.3202 49.2505C64.3794 49.2674 64.4217 49.2674 64.4387 49.2844C64.8111 49.843 65.3189 50.0376 65.9537 49.8599C66.1991 49.7922 66.3938 49.6652 66.453 49.3775C66.5123 49.0812 66.4361 48.8527 66.1991 48.6919C65.9875 48.548 65.7421 48.438 65.5136 48.3195C65.2258 48.1671 64.9211 48.0402 64.6503 47.8625C63.7954 47.3038 64.0409 46.449 64.5656 45.9412C65.1243 45.3995 66.2753 45.3064 66.9693 45.6873C67.0201 45.7211 67.0624 45.7719 67.1132 45.8227C67.1047 45.8989 67.1132 45.9666 67.0878 46.0174C67.037 46.1358 66.9778 46.2543 66.9016 46.4067C66.3599 45.8904 65.7929 45.628 65.1158 46.1697L65.0989 46.1782Z" fill="white"/>
<path d="M26.0051 49.9785C26.0643 49.7415 26.1235 49.513 26.1997 49.1913C26.5467 49.6314 26.8937 49.9361 27.41 49.8938C27.6301 49.8769 27.884 49.8515 28.0617 49.7415C28.2225 49.6399 28.2987 49.4114 28.3664 49.3014C28.3241 48.8612 28.121 48.6581 27.8078 48.5227C27.4354 48.3619 27.0546 48.2095 26.6906 48.0149C25.8273 47.5494 25.7765 46.3898 26.5721 45.8228C26.8683 45.6196 27.19 45.5011 27.5285 45.4927C27.9009 45.4927 28.2733 45.5519 28.6457 45.6196C28.7642 45.6366 28.8658 45.7466 28.9927 45.8228C28.925 46.0344 28.8658 46.2121 28.7896 46.4575C28.6288 46.3221 28.5272 46.2375 28.4257 46.1444C28.1802 45.9159 27.884 45.8482 27.5624 45.8905C27.0968 45.9497 26.8853 46.2798 26.9615 46.8215C27.3339 47.1939 27.8417 47.3378 28.3072 47.5663C28.6203 47.7186 28.9166 47.871 29.1028 48.1841C29.4752 48.802 29.2467 49.5807 28.6457 49.9361C27.9602 50.3509 27.19 50.3763 26.4113 50.207C26.3351 50.1901 26.2589 50.1562 26.1828 50.1223C26.1404 50.1054 26.1066 50.0631 25.9966 49.9869L26.0051 49.9785Z" fill="white"/>
<path d="M43.0172 46.0933C42.9833 46.5673 42.958 46.9989 42.9241 47.456C43.4489 47.6252 43.9397 47.456 44.4729 47.5745C44.4729 47.7014 44.4899 47.8284 44.4984 48.0146H42.9834C42.9326 48.5816 42.9072 49.1064 43.0003 49.6904H44.456C44.473 49.8681 44.4814 49.9866 44.4984 50.1559C43.6266 50.2067 42.7887 50.2067 41.9084 50.1559V45.6193C42.7548 45.5262 43.5927 45.5855 44.4645 45.5855V46.0848H43.0003L43.0172 46.0933Z" fill="white"/>
<path d="M61.1213 46.0765H59.9702V45.6025H63.4149C63.4318 45.7464 63.4488 45.8988 63.4742 46.068H62.2723C62.1708 46.5166 62.23 46.9567 62.2215 47.3884C62.2131 47.8454 62.2215 48.3025 62.2215 48.7595C62.2215 49.1996 62.2215 49.6397 62.2215 50.1052C61.9084 50.2322 61.5783 50.1899 61.2059 50.1222C61.189 49.4451 61.2059 48.768 61.1466 48.0909C61.0874 47.4307 61.3413 46.7705 61.1382 46.068L61.1213 46.0765Z" fill="white"/>
<path d="M16.1276 50.1561H14.9427C15.0782 48.7935 15.0104 47.4646 15.0273 46.0935H13.7155C13.707 45.9496 13.6901 45.8142 13.6816 45.7126C13.8594 45.5434 16.5424 45.5095 17.2533 45.628V46.0851H16.0345C16.0007 47.4477 15.9837 48.7765 16.1276 50.1477V50.1561Z" fill="white"/>
<path d="M22.3994 50.1648C22.3994 49.3269 22.3994 48.5736 22.3994 47.8204C22.3994 47.0925 22.3825 46.3646 22.374 45.6113H23.4235C23.542 46.0514 23.4574 46.4916 23.4743 46.9317C23.4912 47.3887 23.4743 47.8458 23.4743 48.3113C23.4743 48.7514 23.4743 49.1915 23.4743 49.6909H24.9978C25.0232 49.8686 25.0317 49.9871 25.0571 50.1733C24.143 50.2156 23.2797 50.2156 22.3994 50.1733V50.1648Z" fill="white"/>
<path d="M70.6342 27.4141C70.2618 27.431 69.9318 27.3125 69.754 26.9486C69.5678 26.5508 69.7032 26.2038 69.974 25.916C70.3549 25.5098 70.8374 25.3151 71.396 25.442C72.0308 25.5859 72.2593 26.1784 71.9207 26.737C71.6414 27.2025 71.2267 27.4226 70.6342 27.4226V27.4141Z" fill="white"/>
</g>
</svg>
