<svg width="166" height="35" viewBox="0 0 166 35" fill="none" xmlns="http://www.w3.org/2000/svg">
<g opacity="0.8" clip-path="url(#clip0_439_164)">
<path d="M18.5374 34.9999C18.5458 32.4064 18.5627 29.8045 18.5627 27.2109C18.5627 24.6426 18.5627 22.0743 18.5627 19.5059C18.5627 19.187 18.5627 18.8764 18.5627 18.4819H35.3258C35.3511 18.8345 35.3849 19.1702 35.3849 19.5059C35.3849 24.3237 35.3849 29.1414 35.3849 33.9592C35.3849 34.3033 35.4103 34.6558 35.4272 34.9999H18.5374Z" fill="white"/>
<path d="M0.0170898 35V18.4988H16.721C16.7295 24.0048 16.7379 29.5024 16.7464 35H0.0170898Z" fill="white"/>
<path d="M35.3343 16.5516H18.605V0H35.3343V16.5516Z" fill="white"/>
<path d="M0 16.5683V0H16.7124V16.5683H0Z" fill="white"/>
<path d="M58.7299 27.9162H56.2205C54.0153 22.5193 51.8101 17.1392 49.6133 11.7591C49.5542 11.7591 49.4866 11.7759 49.4274 11.7843V27.8994H46.1069V7.05048H51.3961C53.3985 12.1452 55.4094 17.2735 57.4203 22.3934C57.4879 22.3934 57.5555 22.3934 57.6231 22.3934C59.7438 17.2819 61.8646 12.162 63.9937 7.03369H68.9703V27.8994H65.3371C65.3371 26.1116 65.3371 24.3323 65.3371 22.5529C65.3371 20.7819 65.3371 19.0193 65.3371 17.2483V11.9102L65.1597 11.8766C63.0221 17.2147 60.8845 22.5529 58.7384 27.9246L58.7299 27.9162Z" fill="white"/>
<path d="M149.854 15.838H147.404V12.9507H149.761C149.786 12.5059 149.803 12.1953 149.828 11.8848C149.888 11.0874 149.854 10.2649 150.014 9.4843C150.471 7.22651 152.422 5.56464 154.754 5.43035C155.608 5.37999 156.461 5.46392 157.382 5.4891V8.59462C157.078 8.52747 156.807 8.46032 156.529 8.39318C154.805 8.01548 153.622 8.87159 153.529 10.6006C153.487 11.2889 153.529 11.9855 153.529 12.7493H158.852V9.44234C160.069 9.08143 161.193 8.7373 162.443 8.368V12.808H166.017V15.7037H162.527C162.502 16.0982 162.468 16.3584 162.468 16.6186C162.468 18.6582 162.468 20.6893 162.468 22.7289C162.468 23.0479 162.485 23.3752 162.544 23.6857C162.798 25.0203 163.778 25.6162 165.113 25.2553C165.392 25.1797 165.671 25.0874 166.009 24.9867V27.8404C164.074 28.3776 162.173 28.6546 160.398 27.4627C159.275 26.7073 158.911 25.4987 158.894 24.2313C158.852 21.7973 158.894 19.3548 158.894 16.9208C158.894 16.6102 158.894 16.2913 158.894 15.9136H153.555V27.8908H149.879V15.8464L149.854 15.838Z" fill="white"/>
<path d="M146.93 20.362C146.905 21.898 146.601 23.3584 145.857 24.7013C144.488 27.1689 142.241 28.2181 139.512 28.3608C138.659 28.4028 137.78 28.3272 136.935 28.1593C134.037 27.5886 132.296 25.7841 131.578 22.9891C131.063 20.9579 131.198 18.9435 131.984 17.0047C133.031 14.4363 135.034 13.0263 137.763 12.6905C138.853 12.5562 139.994 12.5646 141.067 12.7325C144.058 13.2025 146.085 15.2421 146.668 18.2217C146.804 18.9267 146.846 19.6486 146.93 20.3704V20.362ZM143.373 20.2025C143.179 19.4303 142.993 18.4567 142.68 17.5335C142.376 16.6606 141.7 16.0478 140.813 15.7625C138.692 15.0742 136.403 15.6282 135.465 18.1294C134.907 19.6066 134.89 21.1174 135.33 22.6198C135.862 24.4495 137.248 25.398 139.292 25.3812C141.252 25.3644 142.503 24.4411 142.993 22.5526C143.179 21.856 143.23 21.1342 143.373 20.2025Z" fill="white"/>
<path d="M117.84 20.3286C117.857 22.5863 117.299 24.6511 115.635 26.2626C113.413 28.4113 110.675 28.7218 107.785 28.1259C104.938 27.5384 103.214 25.7254 102.53 22.9473C102.37 22.301 102.302 21.6295 102.285 20.958C102.243 19.4724 102.437 18.0204 103.088 16.6607C104.076 14.5875 105.715 13.3034 107.971 12.8082C109.332 12.506 110.709 12.4724 112.078 12.7074C115.288 13.2782 117.502 15.7626 117.781 19.0444C117.815 19.4724 117.823 19.9005 117.84 20.3286ZM114.317 20.4628C114.156 19.6319 114.063 18.7758 113.827 17.9616C113.556 17.03 112.973 16.2746 112.052 15.8801C110.32 15.1247 107.608 15.2338 106.484 17.9029C105.766 19.6151 105.791 21.4197 106.476 23.1487C107.084 24.7015 108.521 25.4485 110.498 25.3729C112.154 25.3142 113.337 24.4916 113.835 22.9221C114.08 22.1415 114.156 21.3106 114.317 20.4545V20.4628Z" fill="white"/>
<path d="M119.555 27.4628C119.555 26.6067 119.555 25.7589 119.555 24.9028C119.555 24.6678 119.581 24.4412 119.606 24.0971C119.944 24.2733 120.197 24.416 120.459 24.5419C121.786 25.1966 123.163 25.6414 124.675 25.3728C125.301 25.2637 125.841 25.0455 126.019 24.3824C126.205 23.6858 125.968 23.0731 125.385 22.6786C124.811 22.2841 124.16 22.0071 123.535 21.6882C122.842 21.3273 122.09 21.0503 121.456 20.6138C119.006 18.9604 118.93 15.4772 121.279 13.6726C122.969 12.3716 124.92 12.2793 126.923 12.5479C127.531 12.6318 128.131 12.8333 128.79 13.0011V16.3752C128.444 16.2158 128.182 16.1067 127.92 15.9724C126.957 15.4855 125.943 15.2673 124.861 15.368C123.999 15.4436 123.442 15.8549 123.298 16.5263C123.121 17.3489 123.4 17.9616 124.194 18.398C124.667 18.6582 125.174 18.8513 125.664 19.0863C126.348 19.4136 127.05 19.699 127.692 20.0935C130.387 21.7302 130.514 25.3309 127.945 27.1522C127.447 27.5047 126.864 27.7733 126.281 27.9664C124.397 28.5791 121.524 28.3608 119.555 27.4628Z" fill="white"/>
<path d="M90.4648 24.1811V27.379C90.0846 27.5468 89.7044 27.7567 89.3073 27.8742C87.5921 28.3778 85.8432 28.4785 84.0942 28.1008C81.0863 27.4461 78.8811 24.9113 78.6192 21.8814C78.4417 19.8838 78.7037 17.9785 79.7345 16.2243C80.8328 14.361 82.4466 13.2027 84.5927 12.7831C86.046 12.4977 87.4908 12.4557 88.9356 12.8334C89.4256 12.9593 89.8988 13.1607 90.4141 13.3454V16.6691C90.11 16.5097 89.8734 16.4006 89.6537 16.2747C88.7581 15.7878 87.8118 15.5109 86.781 15.536C84.5674 15.5864 82.8015 16.9965 82.4466 19.1452C82.2945 20.0516 82.2861 21.0337 82.4466 21.9317C82.9282 24.584 85.7671 26.0864 88.3948 25.1296C89.0707 24.8862 89.7129 24.5253 90.4733 24.1643L90.4648 24.1811Z" fill="white"/>
<path d="M93.2192 12.9676H96.7172C96.751 13.6139 96.7848 14.235 96.8186 14.8561C98.069 12.9341 99.7842 12.3298 101.998 12.8334V16.283C101.525 16.1571 101.111 16.0312 100.688 15.9473C99.2266 15.6535 98.0183 16.241 97.3255 17.5756C96.8946 18.4065 96.7848 19.3046 96.7848 20.2278C96.7848 22.4521 96.7848 24.6763 96.7848 26.9005C96.7848 27.2194 96.751 27.53 96.7341 27.9077H93.2277V12.9676H93.2192Z" fill="white"/>
<path d="M75.983 27.9161H72.5442V13.0012H75.983V27.9161Z" fill="white"/>
<path d="M74.2764 10.5839C73.0597 10.5839 72.1472 9.73617 72.1218 8.56951C72.0965 7.4448 73.0428 6.54672 74.2595 6.53833C75.5184 6.53833 76.4816 7.42802 76.4731 8.60308C76.4731 9.71939 75.5184 10.5755 74.2764 10.5839Z" fill="white"/>
</g>
<defs>
<clipPath id="clip0_439_164">
<rect width="166" height="35" fill="white"/>
</clipPath>
</defs>
</svg>
