<svg width="123" height="35" viewBox="0 0 123 35" fill="none" xmlns="http://www.w3.org/2000/svg">
<g opacity="0.8">
<path d="M122.986 4.11271C122.834 4.26506 122.631 4.31584 122.445 4.39202C120.76 5.04372 119.076 5.67004 117.4 6.33868C115.623 7.04963 113.854 7.8029 112.127 8.62389C110.993 9.16557 109.876 9.7411 108.759 10.2997C108.725 10.3166 108.691 10.342 108.632 10.3759C109.766 10.4774 110.883 10.4436 111.975 10.6721C111.992 10.6721 112 10.689 112.043 10.7229C111.967 10.7483 111.916 10.7821 111.865 10.7906C111.543 10.8329 111.222 10.8837 110.9 10.9091C110.071 10.9599 109.233 11.0022 108.403 11.053C108.082 11.0699 107.76 11.0868 107.438 11.1122C107.362 11.1122 107.278 11.1376 107.21 11.1799C106.575 11.5693 105.94 11.9586 105.314 12.3564C105.136 12.4664 104.976 12.6018 104.933 12.8304C104.976 12.9404 105.077 12.9235 105.153 12.9319C105.576 12.9489 106.008 12.9489 106.431 12.9658C107.261 12.9912 108.09 13.025 108.92 13.0589C109.715 13.0927 110.511 13.1351 111.306 13.1943C111.975 13.2451 112.635 13.3128 113.295 13.3805C113.38 13.3805 113.456 13.4228 113.532 13.4398C113.532 13.4567 113.532 13.4736 113.532 13.4905C113.482 13.5075 113.431 13.5413 113.38 13.5498C113.075 13.5921 112.771 13.6429 112.466 13.6683C111.721 13.7191 110.985 13.7614 110.24 13.8122C110.147 13.8122 110.037 13.8629 109.961 13.9137C109.411 14.2692 108.81 14.4808 108.158 14.5231C107.777 14.5485 107.396 14.5485 107.015 14.557C106.964 14.557 106.922 14.557 106.871 14.557C106.651 14.5739 106.558 14.7347 106.694 14.9124C106.863 15.124 107.049 15.3187 107.218 15.5218C107.362 15.6996 107.548 15.7419 107.777 15.7504C108.674 15.7673 109.563 15.8096 110.46 15.8519C111.036 15.8773 111.611 15.9027 112.187 15.945C112.838 15.9958 113.49 16.072 114.15 16.1312C114.201 16.1312 114.252 16.1566 114.303 16.1735C114.328 16.1735 114.345 16.1989 114.404 16.2328C114.32 16.2666 114.26 16.3005 114.201 16.309C113.939 16.3513 113.676 16.3936 113.414 16.419C112.661 16.4782 111.899 16.529 111.146 16.5798C110.9 16.5967 110.663 16.6052 110.418 16.6137C109.927 16.6391 109.436 16.656 108.953 16.6814C108.937 16.6814 108.92 16.6814 108.903 16.7068C110.689 17.6801 112.627 18.1033 114.65 18.3233C114.658 18.7635 114.666 19.1951 114.633 19.6268C114.48 19.6437 114.345 19.6606 114.209 19.6606C113.583 19.686 112.957 19.7029 112.339 19.7368C111.653 19.7706 110.959 19.813 110.274 19.8553C109.741 19.8891 109.199 19.9145 108.666 19.9653C107.963 20.033 107.252 20.1346 106.55 20.2192C106.457 20.2277 106.372 20.2785 106.287 20.3039V20.3546C106.364 20.3885 106.448 20.4308 106.533 20.4393C106.838 20.4901 107.151 20.5493 107.455 20.5832C108.175 20.6509 108.894 20.7186 109.614 20.7694C110.045 20.8032 110.485 20.8201 110.917 20.8455C111.67 20.8879 112.424 20.9302 113.177 20.964C113.541 20.981 113.896 20.9894 114.26 21.0063C114.336 21.0063 114.404 21.0148 114.514 21.0233C114.413 21.5142 114.319 21.9797 114.218 22.4536C113.989 22.4706 113.786 22.4875 113.592 22.496C112.771 22.5298 111.958 22.5552 111.137 22.606C110.054 22.6737 108.979 22.7499 107.896 22.8345C107.422 22.8768 106.948 22.953 106.474 23.0207C106.364 23.0376 106.262 23.08 106.16 23.1138C106.16 23.1307 106.16 23.1477 106.16 23.1646C106.22 23.19 106.27 23.2238 106.33 23.2323C106.634 23.2916 106.931 23.3508 107.235 23.3847C107.929 23.4608 108.632 23.5201 109.326 23.5709C109.715 23.6047 110.113 23.6216 110.502 23.647C111.264 23.6894 112.026 23.7317 112.796 23.7655C113.067 23.7825 113.346 23.7909 113.617 23.7994C113.668 23.7994 113.71 23.7994 113.786 23.8078C113.608 24.3241 113.397 24.8066 113.16 25.289C112.999 25.3059 112.847 25.3229 112.703 25.3313C112.009 25.3652 111.315 25.3906 110.621 25.4413C109.631 25.5175 108.649 25.6106 107.658 25.7037C107.472 25.7206 107.286 25.763 107.1 25.8053C107.024 25.8222 106.956 25.8561 106.88 25.8899C106.88 25.9069 106.88 25.9153 106.88 25.9322C106.948 25.9576 107.007 26 107.075 26.0084C107.396 26.0677 107.709 26.1269 108.031 26.1608C108.59 26.22 109.157 26.2708 109.715 26.3216C110.105 26.3554 110.485 26.3724 110.875 26.3977C111.34 26.4231 111.814 26.4485 112.28 26.4739C112.339 26.4739 112.407 26.4909 112.5 26.5078C112.331 26.7702 112.178 27.0071 112.009 27.2357C111.806 27.515 111.586 27.7943 111.374 28.0736C111.315 28.1582 111.239 28.1921 111.129 28.2005C110.468 28.2598 109.808 28.319 109.148 28.3952C108.835 28.429 108.522 28.4968 108.209 28.556C108.124 28.5729 108.056 28.6152 107.963 28.6491C108.031 28.7591 108.124 28.7761 108.209 28.793C108.53 28.8522 108.852 28.9115 109.182 28.9538C109.529 28.9961 109.876 29.03 110.223 29.0638C110.274 29.0638 110.325 29.0892 110.384 29.0977C110.198 29.4701 108.107 31.0443 107.498 31.2813C107.328 31.129 107.142 30.9682 106.965 30.8074C106.787 30.6465 106.617 30.4688 106.431 30.308C106.381 30.2657 106.304 30.2318 106.245 30.2318C105.543 30.2572 104.849 30.2911 104.146 30.308C103.503 30.3334 102.868 30.3419 102.225 30.3588C101.294 30.3842 100.363 30.4011 99.4318 30.4265C98.1791 30.4519 96.9181 30.4773 95.6654 30.4942C94.4805 30.5111 93.2955 30.5196 92.1106 30.5196C91.7213 30.5196 91.3404 30.4519 90.9934 30.2488C90.9427 30.2149 90.8834 30.1726 90.8495 30.1218C90.7649 30.0202 90.7564 29.8763 90.858 29.7832C90.9765 29.6817 91.1119 29.597 91.2473 29.5378C91.5689 29.4108 91.916 29.377 92.263 29.377C93.7441 29.3855 95.2253 29.4024 96.7065 29.4108C97.392 29.4108 98.0775 29.4278 98.7546 29.4447C99.6941 29.4616 100.642 29.487 101.582 29.5124C102.36 29.5293 103.139 29.5547 103.926 29.5801C104.485 29.597 105.043 29.6224 105.602 29.6394C105.653 29.6394 105.695 29.6394 105.78 29.6394C105.644 29.487 105.526 29.3685 105.424 29.2331C105.052 28.7676 104.679 28.3021 104.307 27.8281C104.231 27.7266 104.155 27.6842 104.028 27.6927C102.936 27.7181 101.852 27.7435 100.761 27.7689C100.261 27.7773 99.7704 27.7943 99.271 27.8027C98.0776 27.8281 96.8757 27.8451 95.6823 27.8704C94.8867 27.8874 94.0996 27.8958 93.304 27.9043C92.2037 27.9128 91.095 27.9297 89.9947 27.9297C89.5715 27.9297 89.1568 27.8704 88.759 27.7096C88.632 27.6588 88.505 27.5911 88.395 27.5065C88.1665 27.3372 88.1666 27.1087 88.3697 26.9225C88.539 26.7702 88.759 26.694 88.9791 26.6263C89.5377 26.4655 90.1217 26.4655 90.6972 26.4739C91.222 26.4739 91.7382 26.4908 92.263 26.4993C92.8978 26.4993 93.5326 26.4993 94.1673 26.5078C94.9375 26.5078 95.7077 26.5247 96.4779 26.5416C97.0365 26.5501 97.5866 26.5586 98.1453 26.5755C99.1609 26.5924 100.168 26.6178 101.184 26.6432C101.632 26.6517 102.081 26.6601 102.521 26.6771C102.783 26.6771 103.037 26.694 103.3 26.7024C103.35 26.7024 103.401 26.7024 103.486 26.7024C103.351 26.5078 103.232 26.3385 103.113 26.1692C102.893 25.8561 102.673 25.5429 102.462 25.2213C102.394 25.1197 102.326 25.0859 102.208 25.0943C101.505 25.1113 100.811 25.1197 100.109 25.1367C99.0933 25.1536 98.086 25.179 97.0703 25.1959C96.0208 25.2213 94.9714 25.2382 93.9219 25.2551C93.414 25.2636 92.8978 25.2636 92.39 25.2636C91.1204 25.2636 89.8508 25.2805 88.5728 25.2805C88.0988 25.2805 87.6418 25.1959 87.2017 25.0012C87.0917 24.9505 86.9816 24.8827 86.8801 24.815C86.6262 24.6204 86.6262 24.3326 86.8801 24.1379C87.0747 23.994 87.2948 23.9094 87.5233 23.8332C88.0819 23.664 88.649 23.664 89.2245 23.664C90.1386 23.664 91.0442 23.6724 91.9583 23.6724C92.1868 23.6724 92.4069 23.6216 92.5931 23.4693C92.7539 23.3339 92.9231 23.19 93.067 23.0292C93.194 22.8938 93.2617 22.7245 93.2194 22.496C93.1517 22.5383 93.1009 22.5721 93.0585 22.606C92.8469 22.7583 92.6353 22.9192 92.4153 23.063C92.3306 23.1223 92.2376 23.1561 92.136 23.19C91.7975 23.3085 91.552 23.1561 91.3743 22.9191C91.3404 22.8684 91.332 22.7922 91.332 22.7245C91.332 22.6822 91.3573 22.6314 91.3743 22.5721C91.315 22.5721 91.2728 22.5637 91.222 22.5637C90.3756 22.5637 89.5292 22.5637 88.6828 22.5806C88.1242 22.5975 87.5656 22.5806 87.0154 22.4621C86.77 22.4113 86.533 22.3182 86.296 22.2167C86.186 22.1743 86.0929 22.0982 86.0083 22.0135C85.7882 21.8104 85.8052 21.5565 86.0422 21.3618C86.2284 21.201 86.4569 21.1079 86.6854 21.0402C87.1594 20.8963 87.6418 20.8455 88.1412 20.8455C88.9537 20.8455 89.7662 20.8455 90.5787 20.8455C91.1373 20.8455 91.6959 20.8625 92.2545 20.8709C92.3307 20.8709 92.4069 20.8709 92.4831 20.8709C92.737 20.5239 92.9908 20.1854 93.2617 19.813C93.177 19.813 93.1178 19.8045 93.067 19.8045C91.3319 19.813 89.5969 19.8299 87.8618 19.8383C87.3201 19.8383 86.7869 19.7791 86.2706 19.5844C86.0844 19.5167 85.8982 19.4152 85.7374 19.2882C85.4835 19.0851 85.5004 18.8058 85.7628 18.6026C86.0167 18.391 86.3299 18.2895 86.6431 18.2133C87.0324 18.1202 87.4302 18.0779 87.828 18.0779C89.1145 18.0779 90.3925 18.0779 91.6789 18.0864C92.5169 18.0864 93.3632 18.1033 94.2011 18.1202C94.235 18.1202 94.2689 18.1202 94.2943 18.1202C94.6752 18.1371 94.5652 18.1964 94.8275 17.9002C95.073 17.6293 95.3099 17.3585 95.5469 17.0961C95.5723 17.0707 95.5892 17.0368 95.6146 17.0115C95.3607 17.0115 95.1152 17.0115 94.8698 17.0115C94.4551 17.0115 94.0404 17.0115 93.6256 17.0199C92.5507 17.0368 91.4673 17.0453 90.3924 17.0622C89.5545 17.0622 88.7251 17.0876 87.8872 17.0707C87.3286 17.0622 86.7784 16.9691 86.2791 16.7152C86.186 16.6729 86.1014 16.6137 86.0252 16.546C85.7798 16.3344 85.7798 16.0551 86.0422 15.8604C86.1945 15.7504 86.3637 15.6573 86.533 15.5895C86.897 15.4457 87.2778 15.3695 87.6671 15.361C88.4966 15.3441 89.3261 15.3356 90.1555 15.3356C91.0696 15.3356 91.9752 15.3526 92.8893 15.3695C94.1504 15.3864 95.4115 15.4033 96.6726 15.4372C97.0111 15.4457 97.2735 15.378 97.5105 15.1156C97.7813 14.8109 98.103 14.5485 98.3992 14.2692C98.4331 14.2353 98.4754 14.2184 98.5177 14.193C98.5092 14.1761 98.5008 14.1676 98.4923 14.1507C98.4584 14.1507 98.4246 14.1422 98.3907 14.1422C97.8237 14.1507 97.2481 14.1676 96.681 14.1761C95.0391 14.2015 93.3972 14.2269 91.7552 14.2523C90.7141 14.2607 89.6646 14.2777 88.6235 14.2692C88.1157 14.2692 87.6164 14.1846 87.1509 13.956C87.0324 13.8968 86.9139 13.8206 86.8208 13.7275C86.643 13.5498 86.6515 13.3382 86.8377 13.1605C87.0324 12.9827 87.2779 12.8896 87.5233 12.8134C88.0735 12.6442 88.6405 12.6442 89.2076 12.6442C90.3163 12.6442 91.425 12.6526 92.5338 12.6611C93.3971 12.6611 94.2604 12.678 95.1153 12.6949C96.2748 12.7119 97.4428 12.7373 98.6023 12.7627C99.0594 12.7711 99.5164 12.788 99.9735 12.788C100.05 12.788 100.134 12.7627 100.194 12.7203C100.752 12.2802 101.311 11.8401 101.869 11.4C101.912 11.3661 101.946 11.3323 102.005 11.2815C101.725 11.2815 101.463 11.2815 101.209 11.2815C100.761 11.2815 100.304 11.3069 99.8549 11.3154C98.6785 11.3407 97.4935 11.3577 96.3171 11.3831C95.6907 11.3915 95.056 11.4085 94.4297 11.4169C93.0247 11.4339 91.6197 11.4423 90.2147 11.4592C89.7323 11.4592 89.2584 11.4339 88.8014 11.2561C88.6659 11.2053 88.522 11.1292 88.4035 11.0445C88.158 10.8752 88.1495 10.6213 88.3865 10.4436C88.505 10.3505 88.649 10.2743 88.7929 10.2235C89.1399 10.0881 89.5122 10.0289 89.8846 10.0289C91.1373 10.0289 92.3984 10.0289 93.6511 10.0289C94.3536 10.0289 95.0645 10.0458 95.767 10.0627C96.4187 10.0712 97.0704 10.0797 97.7221 10.0966C98.2637 10.105 98.797 10.1135 99.3387 10.1304C100.253 10.1474 101.158 10.1728 102.072 10.1981C102.504 10.2066 102.936 10.2235 103.367 10.232C103.435 10.232 103.511 10.2151 103.562 10.1812C104.442 9.57183 105.314 8.96244 106.186 8.35305C106.203 8.34458 106.22 8.33612 106.245 8.32766C106.245 8.31919 106.237 8.31073 106.228 8.30227C106.05 8.30227 105.881 8.30227 105.703 8.30227C105.339 8.31919 104.984 8.34458 104.62 8.35305C104.019 8.36998 103.41 8.3869 102.809 8.39537C101.895 8.42076 100.989 8.43769 100.075 8.46308C99.5587 8.47154 99.0425 8.48847 98.5262 8.49693C96.9858 8.52232 95.4453 8.53925 93.9049 8.56464C93.3378 8.56464 92.7708 8.58157 92.2122 8.58157C91.8651 8.58157 91.5097 8.53925 91.1796 8.40383C91.0696 8.36151 90.968 8.2938 90.8749 8.22609C90.7226 8.09914 90.7141 7.92986 90.8749 7.81137C91.0103 7.7098 91.1797 7.62517 91.3405 7.56592C91.7213 7.43896 92.1106 7.4305 92.5084 7.4305C92.9654 7.4305 93.4226 7.44743 93.8796 7.45589C94.5228 7.45589 95.1745 7.45589 95.8177 7.46436C97.045 7.48128 98.2722 7.50667 99.4994 7.53207C100.388 7.54899 101.277 7.57438 102.166 7.59978C102.936 7.6167 103.706 7.63363 104.476 7.66749C105.314 7.70134 106.152 7.74366 106.99 7.77751C107.049 7.77751 107.125 7.74366 107.185 7.7098C107.836 7.29508 108.488 6.87189 109.148 6.46563C110.578 5.57694 112.034 4.73057 113.524 3.93497C114.929 3.1817 116.359 2.47921 117.823 1.83597C118.848 1.38739 119.889 0.972664 120.955 0.634115C120.955 0.634115 120.972 0.625651 120.972 0.617188C121.082 0.617188 121.184 0.617188 121.294 0.617188C121.319 0.651042 121.344 0.684897 121.37 0.718752C121.505 0.904955 121.48 1.07423 121.277 1.19272C121.184 1.25197 121.082 1.29429 120.989 1.33661C119.389 2.0391 117.832 2.82622 116.309 3.6726C114.26 4.79828 112.263 6.00859 110.282 7.25276C109.91 7.48975 109.537 7.72673 109.148 7.93832C108.708 8.18377 108.251 8.39537 107.802 8.64082C106.389 9.41102 105.026 10.2489 103.689 11.1376C103.359 11.3577 103.037 11.5777 102.707 11.7978C102.64 11.8401 102.58 11.8994 102.606 11.984C102.623 12.0263 102.673 12.0602 102.707 12.1025C102.775 12.0602 102.826 12.0348 102.868 12.0094C105.018 10.5959 107.286 9.38563 109.622 8.31073C111.958 7.23584 114.353 6.30482 116.791 5.4923C118.137 5.04372 119.499 4.629 120.854 4.20581C121.395 4.03654 121.945 3.88419 122.504 3.74031C122.766 3.6726 122.834 3.70645 122.978 3.91805V4.18042L122.986 4.11271ZM97.9506 23.4693C98.0183 23.3423 98.0437 23.3254 98.2553 23.2323C99.1948 22.8261 100.024 22.259 100.71 21.4803C101.429 20.6593 101.802 19.7029 101.861 18.6111C101.895 17.9086 101.836 17.2146 101.692 16.5206C101.649 16.309 101.59 16.0974 101.548 15.9027C101.404 16.2413 101.277 16.5798 101.125 16.9099C100.964 17.24 100.752 17.5362 100.447 17.7647C100.608 16.5629 100.498 15.4287 99.7449 14.3877C99.618 14.9717 99.4911 15.5134 99.381 16.0466C98.6024 16.3767 98.0691 16.893 97.8236 17.7139C98.2045 17.8155 98.5008 17.6462 98.8055 17.477C98.1961 19.6691 97.4089 21.7765 96.1139 23.6978C97.9167 23.7317 99.6857 23.774 101.472 23.774C101.362 23.6047 101.243 23.4524 101.108 23.3169C100.854 23.0715 100.557 22.9953 100.219 23.1138C99.9312 23.2069 99.6434 23.2916 99.3471 23.3593C99.0255 23.4354 98.6954 23.4778 98.3653 23.5285C98.2299 23.5455 98.086 23.5624 97.9591 23.4524L97.9506 23.4693Z" fill="white"/>
<path d="M0 15.632C0.0169275 15.4712 0.0422733 15.3104 0.0592007 15.1496C0.194621 13.8207 0.550102 12.5596 1.2272 11.4001C2.12436 9.85971 3.4278 8.78482 5.0613 8.09079C6.06849 7.65914 7.10949 7.40523 8.20132 7.31213C8.65836 7.26981 9.1154 7.22749 9.57244 7.23595C11.4768 7.24442 13.305 7.60836 14.9893 8.53937C16.4704 9.36882 17.5961 10.5453 18.2901 12.1026C18.6202 12.8474 18.8234 13.6261 18.9334 14.4301C19.018 15.0649 19.0519 15.7082 19.018 16.3514C18.9418 17.9849 18.561 19.5338 17.7062 20.9472C16.7752 22.4876 15.4632 23.5879 13.8043 24.2819C13.6435 24.3496 13.4827 24.4174 13.3304 24.4766C13.3304 24.4766 13.3304 24.4851 13.3219 24.502C15.2178 25.6615 17.1052 26.8211 19.035 28.006C18.0278 28.4715 17.0883 28.9793 16.1827 29.5802C15.9542 29.4025 15.7341 29.2332 15.514 29.0639C13.8213 27.7605 12.1285 26.4487 10.4358 25.1452C10.3765 25.1029 10.2919 25.0775 10.2157 25.0775C9.65709 25.0775 9.10697 25.0945 8.54836 25.0691C7.01642 24.9929 5.53525 24.6797 4.19798 23.8926C2.1159 22.6654 0.787145 20.8795 0.228538 18.5266C0.126973 18.1119 0.093126 17.6802 0.025416 17.257C0.025416 17.2232 0.00846374 17.1809 0 17.147C0 16.6392 0 16.1313 0 15.6235V15.632ZM9.51324 23.7995C9.81793 23.7741 10.1226 23.7572 10.4273 23.7064C11.9677 23.4525 13.1781 22.6738 14.0922 21.4127C14.5407 20.7949 14.8453 20.1008 15.0654 19.3645C15.404 18.2219 15.4886 17.0454 15.5055 15.869C15.5225 15.1919 15.4717 14.5232 15.3532 13.8546C15.184 12.8643 14.8707 11.9333 14.3375 11.087C13.7112 10.0882 12.8564 9.35189 11.7562 8.9287C10.6643 8.51398 9.5302 8.4378 8.3876 8.65786C7.42273 8.84406 6.55941 9.25879 5.82306 9.91896C4.98515 10.6722 4.44342 11.6032 4.07948 12.6527C3.68168 13.8123 3.53786 15.0057 3.504 16.2244C3.47861 16.9185 3.5378 17.604 3.65629 18.2811C3.86789 19.4237 4.24875 20.4986 4.91738 21.455C5.37442 22.1152 5.94153 22.6569 6.64402 23.0547C7.53271 23.5625 8.49759 23.7741 9.51324 23.791V23.7995Z" fill="white"/>
<path d="M63.5121 34.8699C63.3174 34.7599 63.1142 34.6498 62.928 34.5313C62.8519 34.4805 62.7503 34.4128 62.8095 34.2943C62.8688 34.1759 62.9789 34.2182 63.0804 34.2351C63.2243 34.252 63.3682 34.2605 63.5121 34.252C63.9607 34.2182 64.2737 33.8373 64.2822 33.3803C64.2907 32.9994 64.2822 32.6185 64.2907 32.2292C64.2907 31.7637 64.3076 31.2897 64.3161 30.8242C64.3161 30.7819 64.3161 30.7396 64.3161 30.6888C64.2568 30.6634 64.206 30.6549 64.1637 30.6295C64.0367 30.5703 64.0114 30.4687 64.096 30.3502C64.113 30.3333 64.1298 30.3079 64.1552 30.291C64.4938 30.0371 64.8324 29.7916 65.1709 29.5462C65.1963 29.5293 65.2387 29.5123 65.2894 29.4869C65.3064 30.4772 65.3148 31.4421 65.3317 32.4239H66.5251C66.5251 32.3646 66.5336 32.3054 66.5336 32.2461C66.5336 31.222 66.5336 30.1979 66.5336 29.1738C66.5336 29.0722 66.5167 28.996 66.432 28.9199C66.3051 28.8098 66.305 28.6913 66.4066 28.5644C66.432 28.5221 66.4659 28.4882 66.5082 28.4628C66.8298 28.2343 67.143 28.0058 67.4646 27.7688C67.49 27.7519 67.5238 27.7434 67.5746 27.718V30.3672C67.5746 30.3672 67.6255 30.3672 67.6424 30.3502C67.9555 30.1471 68.3025 30.0963 68.658 30.0963C69.9445 30.0963 71.2226 30.0963 72.509 30.0963C73.1777 30.0963 73.7024 30.3841 74.0494 30.9681C74.1933 31.222 74.2356 31.5098 74.244 31.7891C74.244 31.9414 74.2356 32.0938 74.2271 32.2377C74.2271 32.2884 74.2271 32.3392 74.2271 32.4069H77.4603V31.7891H76.1061C76.1061 31.7129 76.0892 31.6537 76.0892 31.5944C76.0892 31.4167 76.0892 31.2389 76.0892 31.0612C76.0723 30.7396 76.2161 30.4941 76.4446 30.2825C76.69 30.054 76.9694 29.8847 77.2657 29.7409C77.6211 29.5716 77.985 29.4192 78.3405 29.2669C78.3828 29.25 78.4251 29.2415 78.4844 29.2246V32.4069H79.7709C79.8132 32.2884 79.8386 29.36 79.7963 28.9453C79.7963 28.9453 79.7878 28.9199 79.7794 28.9199C79.6947 28.9029 79.6185 28.886 79.6016 28.7844C79.5846 28.6829 79.6439 28.6067 79.7201 28.5559C79.9655 28.3782 80.211 28.2089 80.4564 28.0312C80.5664 27.955 80.6765 27.8873 80.8119 27.8027V33.3549H65.2979C65.281 33.4057 65.2725 33.431 65.2725 33.4649C65.2471 34.1251 64.8324 34.5906 64.1976 34.7852C64.1299 34.8022 64.0622 34.8276 63.9945 34.8445H63.5121V34.8699ZM73.22 32.4323C73.22 32.1276 73.22 31.8399 73.22 31.5436C73.22 31.3066 73.1269 31.1797 72.8899 31.1289C72.7121 31.0866 72.5174 31.0697 72.3312 31.0697C71.3325 31.0697 70.3339 31.0697 69.3267 31.0697C68.9204 31.0697 68.5056 31.0866 68.0994 31.0866C67.8116 31.0866 67.5492 31.3659 67.5831 31.6283C67.6 31.7721 67.5831 31.916 67.5831 32.0599C67.5831 32.1784 67.5831 32.2969 67.5831 32.4239H73.2115L73.22 32.4323ZM77.4603 30.5872C77.1556 30.6295 76.8763 30.8665 76.8763 31.0612H77.4603V30.5872Z" fill="white"/>
<path d="M72.2293 24.7558C71.0444 24.5442 69.8934 24.5357 68.7423 24.7473C68.7338 24.6881 68.7253 24.6542 68.7253 24.6288C68.7677 23.5539 68.81 22.4875 68.8523 21.4126C68.8777 20.6847 68.9115 19.9568 68.92 19.229C68.9369 16.9691 68.9454 14.7093 68.9539 12.458C68.9539 11.9163 68.9539 11.3661 68.9369 10.8245C68.9115 9.98655 68.8607 9.14864 68.8184 8.31073C68.81 8.08221 68.7931 7.86215 68.7846 7.63363C68.7846 7.57438 68.7846 7.51514 68.7846 7.43896C68.9962 7.45589 69.1909 7.46436 69.3771 7.47282C69.8256 7.49821 70.2827 7.54053 70.7312 7.54053C71.6707 7.54053 72.6018 7.51514 73.5413 7.49821C74.4384 7.48128 75.327 7.43897 76.2242 7.44743C77.0537 7.46436 77.8662 7.59131 78.611 7.98911C79.8129 8.63235 80.5238 9.62261 80.6931 10.9768C80.8454 12.221 80.5577 13.3636 79.7367 14.3454C79.2373 14.9463 78.6026 15.361 77.8916 15.6826C77.4177 15.8942 76.9183 16.0381 76.419 16.1482C76.3936 16.1482 76.3681 16.1651 76.3258 16.182C78.3486 19.0851 80.38 21.9712 82.6398 24.7135C81.895 24.6711 81.1755 24.6204 80.4645 24.595C79.7451 24.5696 79.0258 24.6373 78.2894 24.7473C76.5713 21.9204 74.6584 19.229 72.7287 16.546H72.1363C72.0939 19.2797 72.1447 21.9966 72.2378 24.7558H72.2293ZM72.1278 15.3187C72.204 15.3187 72.2632 15.3272 72.3309 15.3356C72.6271 15.3526 72.9234 15.361 73.2196 15.378C73.6851 15.4118 74.1422 15.4033 74.6077 15.3356C75.928 15.141 76.9098 14.2354 77.223 12.9319C77.3753 12.2972 77.3753 11.6624 77.2822 11.0191C77.1468 10.122 76.6728 9.47026 75.8603 9.064C75.2425 8.75931 74.5738 8.68313 73.8967 8.6916C73.4481 8.6916 72.9911 8.74238 72.5425 8.77624C72.4071 8.7847 72.2717 8.80163 72.1363 8.81855V15.3102L72.1278 15.3187Z" fill="white"/>
<path d="M28.5312 7.17651C29.0898 7.35425 29.6315 7.34579 30.1817 7.17651C30.224 7.27808 30.2579 7.36272 30.2917 7.45582C30.9688 9.33477 31.6967 11.1968 32.4753 13.0334C33.2794 14.9293 34.1004 16.8252 34.9383 18.7041C35.7847 20.6169 36.6564 22.5128 37.5197 24.4172C37.562 24.5103 37.6043 24.6118 37.6551 24.7303C36.9865 24.688 36.3517 24.6118 35.7084 24.6118C35.0736 24.6118 34.4305 24.688 33.7788 24.7388C33.0763 22.936 32.3653 21.1248 31.6544 19.3051C31.5867 19.2881 31.5273 19.2712 31.4681 19.2712C30.5286 19.2458 29.5976 19.212 28.6582 19.195C28.0996 19.1866 27.541 19.195 26.9739 19.212C26.4745 19.2204 25.9751 19.2543 25.4758 19.2712C25.3573 19.2712 25.3065 19.322 25.2642 19.432C24.6379 20.964 24.0116 22.4959 23.5038 24.0617C23.4445 24.2479 23.3852 24.4341 23.3344 24.6203C23.326 24.6626 23.3091 24.6965 23.2922 24.7388C22.8859 24.6965 22.4966 24.6203 22.0988 24.6203C21.7094 24.6203 21.3201 24.6965 20.9138 24.7388C20.9477 24.6626 20.973 24.5949 20.9984 24.5357C22.0395 22.242 23.089 19.9483 24.1216 17.6546C24.8664 16.0127 25.6028 14.3792 26.3306 12.7372C26.957 11.3322 27.5578 9.92723 28.0911 8.48839C28.2265 8.13292 28.3366 7.76898 28.4635 7.40504C28.4804 7.34579 28.5058 7.28654 28.5397 7.2019L28.5312 7.17651ZM30.8672 17.6716C30.0801 15.6318 29.2929 13.609 28.5142 11.5777C28.5058 11.5777 28.4889 11.5777 28.4805 11.5777C27.6341 13.6005 26.7792 15.6318 25.9244 17.6631C27.5833 17.7816 29.2168 17.8408 30.8672 17.6631V17.6716Z" fill="white"/>
<path d="M66.0086 24.722C65.3484 24.6797 64.7136 24.6035 64.0703 24.6035C63.4356 24.6035 62.7924 24.6797 62.1407 24.722C61.4297 22.9108 60.7188 21.0911 60.0078 19.2798C59.9401 19.2714 59.8893 19.2629 59.8385 19.2629C59.4491 19.246 59.0513 19.229 58.662 19.2206C58.0357 19.2037 57.4009 19.1783 56.7746 19.1783C56.2245 19.1783 55.6744 19.2037 55.1242 19.2121C54.701 19.2206 54.2863 19.246 53.8631 19.2544C53.7531 19.2544 53.6769 19.2883 53.6261 19.4068C52.9998 20.9218 52.3904 22.4368 51.8742 23.9941C51.798 24.2311 51.7218 24.4766 51.6372 24.7389C51.4509 24.7136 51.2647 24.6966 51.0785 24.6543C50.5368 24.5443 50.0036 24.5866 49.4789 24.7051C49.4281 24.7136 49.3858 24.722 49.335 24.722C49.3181 24.722 49.2926 24.722 49.2588 24.7136C49.2757 24.6628 49.2927 24.6204 49.3181 24.5697C50.029 23.0123 50.7315 21.455 51.4425 19.8892C52.3143 17.9595 53.186 16.0382 54.0493 14.1C54.5402 13.0082 55.0141 11.9164 55.4881 10.8161C55.979 9.66502 56.453 8.50548 56.8254 7.30363C56.8339 7.26131 56.8592 7.22746 56.8762 7.16821C57.4263 7.32902 57.968 7.33749 58.5267 7.16821C58.552 7.23592 58.5859 7.29517 58.6028 7.35441C59.2545 9.18258 59.9655 10.9938 60.7187 12.7881C61.2181 13.9731 61.7175 15.158 62.2338 16.3344C62.8601 17.7564 63.4949 19.1783 64.1296 20.6002C64.7306 21.9374 65.34 23.2663 65.9494 24.5951C65.9663 24.6289 65.9662 24.6628 65.9832 24.7136L66.0086 24.722ZM56.8846 11.5863C56.8846 11.5863 56.8593 11.5863 56.8508 11.5863C55.996 13.6176 55.1496 15.6404 54.2948 17.6802C55.9537 17.7902 57.5872 17.8579 59.246 17.6802C58.4589 15.6404 57.6718 13.6176 56.8931 11.5947L56.8846 11.5863Z" fill="white"/>
<path d="M45.2642 24.7306C44.6463 24.6798 44.0454 24.6036 43.453 24.6036C42.8605 24.6036 42.2681 24.6798 41.6841 24.7221C41.6841 24.5359 41.6841 24.3497 41.6841 24.1635C41.7094 23.7234 41.7433 23.2833 41.7687 22.8431C41.8195 21.8952 41.8872 20.9388 41.8957 19.9909C41.9126 18.1119 41.8957 16.233 41.8957 14.3455C41.8957 13.0337 41.8787 11.7133 41.8618 10.4014C41.8618 9.99518 41.8364 9.58045 41.828 9.1488C40.0844 9.1488 38.3493 9.19958 36.5889 9.32654C36.7412 8.69176 36.7412 8.08237 36.5889 7.45605C41.1424 7.64226 45.6705 7.64226 50.2324 7.45605C50.0885 8.09084 50.0462 8.70022 50.2324 9.34347C48.5227 9.17419 46.8469 9.18266 45.1626 9.15727C45.1626 9.21651 45.1457 9.2673 45.1457 9.30961C45.1288 10.0629 45.1119 10.8162 45.1034 11.5694C45.1034 14.9295 45.1034 18.2896 45.1034 21.6582C45.1034 22.5131 45.1373 23.3594 45.2135 24.2058C45.2219 24.3412 45.2473 24.4851 45.2642 24.6205C45.2642 24.6544 45.2642 24.6882 45.2642 24.739V24.7306Z" fill="white"/>
<path d="M33.8039 27.6249C34.2524 29.013 34.7095 30.401 35.1665 31.7891C35.1834 31.7891 35.2004 31.7891 35.2173 31.7891C35.7421 30.4095 36.2246 29.0214 36.6393 27.6165H37.4094C37.8495 29.013 38.2812 30.4264 38.8399 31.8483C39.3815 30.4264 39.8386 29.0299 40.2194 27.6165H41.0065C40.2363 29.5039 39.5508 31.4167 38.9245 33.3295H38.2051C37.7311 31.933 37.2486 30.5364 36.7746 29.1315C36.7577 29.1315 36.7408 29.1315 36.7239 29.1315C36.2161 30.528 35.6997 31.916 35.2765 33.3464C35.1496 33.3295 35.0396 33.3041 34.9296 33.3126C34.8196 33.3126 34.718 33.3379 34.608 33.3549C33.9309 31.4336 33.2538 29.5208 32.5767 27.6165H33.7954L33.8039 27.6249Z" fill="white"/>
<path d="M58.9584 28.3443V32.4238H61.9545V31.2897C61.9545 31.2897 61.9037 31.2558 61.8784 31.2389C61.7006 31.1204 61.6752 30.985 61.836 30.8411C62.073 30.638 62.3354 30.4518 62.5977 30.2656C62.6993 30.1894 62.8178 30.1302 62.9278 30.0625C62.9786 30.2063 62.9871 33.194 62.9363 33.3549H55.8945C55.9199 33.0925 55.9453 32.847 55.9622 32.6016C55.9791 32.39 56.0129 32.1869 56.0129 31.9753C56.0129 31.6875 56.1146 31.4421 56.3092 31.2474C56.5124 31.0443 56.7324 30.8496 56.9693 30.6803C57.2148 30.5026 57.4857 30.3502 57.7565 30.1979C57.8835 30.1217 57.9766 30.0455 57.9681 29.8847C57.9681 29.8339 57.9851 29.7916 57.9935 29.7324C57.9512 29.707 57.9089 29.6816 57.875 29.6562C57.6973 29.5546 57.6803 29.4785 57.8327 29.3346C58.1289 29.0553 58.4252 28.776 58.7299 28.4967C58.7976 28.429 58.8737 28.3697 58.9415 28.302C58.9584 28.302 58.9668 28.3105 58.9837 28.3189L58.9584 28.3443ZM57.9342 31.1881C57.8919 31.1966 57.8665 31.2051 57.8411 31.2135C57.6211 31.332 57.4095 31.4505 57.1894 31.569C57.054 31.6452 56.9609 31.7721 56.9356 31.9245C56.9102 32.0853 56.9101 32.2546 56.9017 32.4238H57.9257V31.1881H57.9342Z" fill="white"/>
<path d="M28.1333 27.6166C28.7173 27.6166 29.2759 27.6166 29.843 27.6166C30.1646 27.6166 30.4863 27.6082 30.8079 27.6166C31.4342 27.6505 31.9589 28.0821 32.069 28.6661C32.1959 29.3263 31.925 29.9526 31.2987 30.2742C31.0956 30.3758 30.884 30.4435 30.6555 30.5366C31.3072 31.4845 31.9843 32.424 32.7292 33.3381H31.2903C30.6809 32.4494 30.063 31.5353 29.4536 30.6382H29.2505V33.3381H28.1333V27.6082V27.6166ZM29.242 30.2319C29.5552 30.2404 29.8599 30.2827 30.1646 30.215C30.4609 30.1473 30.6809 29.9695 30.8248 29.6902C30.9518 29.4532 30.9602 29.2078 30.9517 28.9539C30.9348 28.4799 30.6893 28.1837 30.2238 28.0737C29.9276 28.0059 29.6229 28.0398 29.3267 28.0737C29.3013 28.0737 29.2759 28.0906 29.2505 28.1075V30.2404L29.242 30.2319Z" fill="white"/>
<path d="M24.8154 33.3464H23.5121C23.2836 32.7709 23.0465 32.17 22.8095 31.5606C22.1155 31.5098 21.4215 31.5098 20.7021 31.5606C20.4736 32.153 20.2451 32.7539 20.025 33.3464H19.2463C20.0842 31.4082 21.0322 29.5208 21.777 27.5403H22.3441C23.0635 29.5039 23.9437 31.4167 24.8154 33.3464ZM20.9221 30.9935C21.3115 31.0527 22.2425 31.0781 22.5303 30.985C22.2764 30.3333 22.0309 29.6816 21.7685 29.0384C21.7516 29.0384 21.7432 29.0384 21.7263 29.0384C21.4554 29.6901 21.1845 30.3333 20.9137 30.9935H20.9221Z" fill="white"/>
<path d="M42.8182 27.5402H43.3854C44.1048 29.5123 44.9934 31.4251 45.8652 33.3717C45.6197 33.3548 45.4167 33.3294 45.2051 33.3294C45.002 33.3294 44.7988 33.3548 44.5703 33.3717C44.3333 32.7708 44.0962 32.1614 43.8423 31.5351H41.7518C41.5148 32.1529 41.2864 32.7539 41.0663 33.3379H40.2876C41.134 31.3997 42.0819 29.5038 42.8182 27.5317V27.5402ZM42.8267 29.0467C42.8267 29.0467 42.7928 29.0467 42.7844 29.0467C42.5135 29.69 42.2427 30.3417 41.9719 30.9934C42.2512 31.0696 43.2499 31.078 43.58 31.0019C43.3261 30.3502 43.0806 29.6985 42.8267 29.0467Z" fill="white"/>
<path d="M53.9645 27.8874C53.8883 28.1329 53.8121 28.3698 53.7444 28.5984C53.719 28.6745 53.6851 28.7169 53.6005 28.6745C53.5836 28.6491 53.5667 28.6153 53.5498 28.5814C53.3974 28.2175 53.1011 28.0482 52.7287 27.9805C52.4917 27.9382 52.2717 27.9551 52.0432 28.0313C51.7131 28.1498 51.5354 28.4037 51.493 28.7423C51.4507 29.0893 51.5608 29.377 51.874 29.5463C52.1364 29.6902 52.4241 29.8002 52.6949 29.9187C52.9404 30.0287 53.2028 30.1134 53.4398 30.2403C53.973 30.5196 54.2099 30.9936 54.2268 31.5776C54.2607 32.5255 53.6513 33.245 52.678 33.4312C51.9332 33.575 51.2222 33.4481 50.5536 33.0926C50.5282 33.0842 50.5113 33.0588 50.4944 33.0503C50.5621 32.7371 50.6213 32.4324 50.689 32.1193C50.7652 32.06 50.799 32.1193 50.8413 32.1785C50.926 32.314 51.0022 32.4578 51.0953 32.5933C51.3153 32.8895 51.6031 33.0418 51.9755 33.0588C52.2041 33.0588 52.424 33.0588 52.6356 32.9572C53.2958 32.661 53.4228 31.7046 52.8388 31.2644C52.6356 31.1121 52.3818 31.0275 52.1448 30.9259C51.9163 30.8243 51.6708 30.7397 51.4508 30.6297C50.6721 30.2573 50.4266 29.6309 50.6213 28.7761C50.7736 28.1159 51.2476 27.752 51.8823 27.5996C52.5764 27.4388 53.2451 27.5404 53.8799 27.8451C53.9053 27.8536 53.9222 27.8705 53.9476 27.8874H53.9645Z" fill="white"/>
<path d="M44.9929 27.6249H46.3978C46.8379 28.5475 47.3119 29.4869 47.862 30.4095C48.4376 29.4954 48.8862 28.5559 49.3094 27.6249H50.1727C50.0966 27.7519 50.0288 27.8788 49.9527 27.9973C49.3517 28.9114 48.8016 29.8593 48.2684 30.8073C48.1837 30.9596 48.1329 31.1035 48.1414 31.2813C48.1583 31.9076 48.1752 32.5424 48.1837 33.1687C48.1837 33.2279 48.1837 33.2872 48.1837 33.3379H47.0241C47.0241 33.3379 47.0157 33.2448 47.0241 33.1856C47.0241 32.9232 47.0411 32.6693 47.0496 32.4069C47.058 32.0261 47.0665 31.6537 47.0834 31.2728C47.0834 31.1458 47.0581 31.0358 46.9904 30.9258C46.3556 29.8763 45.7208 28.8268 45.086 27.7688C45.0522 27.718 45.0268 27.6672 44.9929 27.6165V27.6249Z" fill="white"/>
<path d="M105.424 5.81373C105.255 5.83912 105.094 5.87298 104.925 5.8899C104.349 5.93222 103.774 5.96608 103.198 5.99147C102.284 6.03379 101.37 6.06764 100.456 6.09303C99.5251 6.11843 98.5941 6.13535 97.6631 6.16074C97.0199 6.17767 96.3681 6.18614 95.7249 6.18614C95.5472 6.18614 95.3609 6.15228 95.1832 6.11843C95.107 6.1015 95.0308 6.06764 94.9631 6.02532C94.7346 5.88144 94.7346 5.68678 94.9631 5.54289C95.1578 5.41594 95.3694 5.38208 95.5979 5.38208C96.3427 5.38208 97.096 5.39901 97.8408 5.40747C98.6534 5.41594 99.4659 5.43286 100.278 5.44979C100.939 5.46672 101.59 5.48365 102.25 5.5175C103.038 5.55136 103.816 5.60214 104.603 5.64446C104.815 5.65292 105.018 5.68678 105.23 5.71217C105.297 5.71217 105.365 5.74602 105.424 5.75449V5.8222V5.81373Z" fill="white"/>
<path d="M105.424 32.1532C105.373 32.1701 105.331 32.187 105.28 32.1955C105.001 32.2293 104.722 32.2717 104.442 32.2801C103.715 32.3224 102.978 32.3563 102.25 32.3817C101.607 32.4071 100.955 32.424 100.312 32.4494C99.8467 32.4663 99.3727 32.4748 98.9072 32.4833C98.3062 32.4917 97.7138 32.5086 97.1128 32.5171C96.6219 32.5171 96.1311 32.5425 95.6402 32.534C95.4455 32.534 95.2508 32.4663 95.0561 32.424C95.0053 32.4155 94.9546 32.3817 94.9123 32.3478C94.7261 32.2124 94.7261 32.0262 94.9208 31.8993C95.09 31.7892 95.2846 31.73 95.4878 31.73C96.241 31.73 96.9943 31.73 97.7476 31.73C98.1793 31.73 98.6109 31.7469 99.0426 31.7638C99.8636 31.7892 100.676 31.8062 101.497 31.8315C101.971 31.8485 102.445 31.8654 102.919 31.8908C103.681 31.9416 104.442 31.9924 105.204 32.0516C105.272 32.0516 105.34 32.0855 105.416 32.1024C105.416 32.1193 105.416 32.1278 105.416 32.1447L105.424 32.1532Z" fill="white"/>
<path d="M25.4673 33.3802C25.5604 31.4504 25.5858 29.5376 25.4842 27.6333H26.6692C26.5761 29.5292 26.5845 31.442 26.6692 33.3802C26.466 33.3633 26.2713 33.3294 26.0766 33.3294C25.882 33.3294 25.6789 33.3633 25.4673 33.3802Z" fill="white"/>
<path d="M82.6059 33.3802H81.5903C81.5819 31.899 81.5903 30.4348 81.5903 28.9706C81.5734 28.9536 81.5649 28.9452 81.5564 28.9367C81.3533 28.869 81.3195 28.7251 81.4888 28.5897C81.7173 28.4035 81.9712 28.2427 82.2082 28.0734C82.3267 27.9888 82.4536 27.9126 82.6059 27.811V33.3717V33.3802Z" fill="white"/>
<path d="M59.8981 34.6168C59.8981 34.6168 59.8896 34.6168 59.8811 34.6168C59.4915 34.5998 59.3306 34.3881 59.4237 34.0069C59.4576 33.863 59.5508 33.7783 59.6948 33.7359C59.8727 33.6851 60.0506 33.702 60.22 33.7613C60.4148 33.8291 60.5079 33.9731 60.5079 34.1848C60.5079 34.3711 60.4063 34.5067 60.2115 34.566C60.1098 34.5998 59.9997 34.6083 59.8981 34.6337C59.8981 34.6337 59.8981 34.6337 59.8981 34.6252V34.6168Z" fill="white"/>
<path d="M77.8242 27.5913C77.892 27.6082 77.9936 27.6167 78.0868 27.6506C78.2732 27.7099 78.3832 27.8793 78.3832 28.0656C78.3832 28.2435 78.2816 28.3875 78.0868 28.4468C77.9005 28.5145 77.7056 28.5145 77.5108 28.4637C77.4092 28.4383 77.316 28.3705 77.3075 28.2604C77.2906 28.1164 77.2821 27.964 77.316 27.8369C77.3838 27.6167 77.587 27.5998 77.8157 27.5913H77.8242Z" fill="white"/>
<path d="M61.2607 34.6252C61.159 34.6082 61.0743 34.5913 60.9896 34.5744C60.8879 34.5489 60.8202 34.4812 60.7863 34.3795C60.7355 34.2271 60.727 34.0662 60.8032 33.9222C60.8456 33.8459 60.9218 33.7782 60.998 33.7443C61.2013 33.6681 61.4131 33.685 61.608 33.7782C61.7774 33.8544 61.8535 34.0069 61.8535 34.1847C61.8535 34.3626 61.7604 34.4897 61.5825 34.5489C61.4724 34.5828 61.3538 34.5998 61.2522 34.6252H61.2607Z" fill="white"/>
<path d="M76.4534 28.506C76.3602 28.4975 76.2924 28.489 76.2247 28.4721C76.0722 28.4382 75.9706 28.3535 75.9622 28.1926C75.9622 28.0909 75.9622 27.9808 75.9706 27.8707C75.9876 27.7521 76.0723 27.6674 76.1909 27.6336C76.3941 27.5658 76.5974 27.5743 76.7922 27.659C76.9701 27.7352 77.0548 27.8792 77.0463 28.0825C77.0463 28.2688 76.9362 28.3789 76.7668 28.4382C76.6567 28.4721 76.5466 28.4806 76.4619 28.506H76.4534Z" fill="white"/>
<path d="M56.6821 27.6758C56.733 27.6758 56.8261 27.6842 56.9024 27.7097C57.1565 27.7774 57.2835 27.9807 57.2327 28.2348C57.2073 28.3534 57.1395 28.4381 57.0294 28.4889C56.8177 28.5821 56.5974 28.599 56.3687 28.5312C56.2502 28.4974 56.1739 28.4127 56.157 28.2941C56.1485 28.184 56.1401 28.0654 56.157 27.9553C56.1909 27.7944 56.301 27.7097 56.4619 27.6842C56.5212 27.6758 56.5805 27.6843 56.6737 27.6758H56.6821Z" fill="white"/>
<path d="M57.9262 28.565C57.8838 28.565 57.8416 28.565 57.7992 28.565C57.562 28.5396 57.4604 28.421 57.4519 28.1839C57.4519 28.1161 57.4519 28.0399 57.4604 27.9721C57.4858 27.8281 57.5789 27.718 57.7229 27.7011C57.8923 27.6841 58.0701 27.6841 58.2311 27.718C58.4259 27.7604 58.5276 27.9213 58.5276 28.1246C58.5276 28.3278 58.4428 28.4464 58.2311 28.5227C58.1887 28.5396 58.1465 28.5481 58.1041 28.5565C58.0363 28.565 57.9771 28.565 57.9093 28.5735L57.9262 28.565Z" fill="white"/>
</g>
</svg>
