<svg width="104" height="33" viewBox="0 0 104 33" fill="none" xmlns="http://www.w3.org/2000/svg">
<g opacity="0.8">
<path d="M21.6079 0.310059C22.0311 0.479333 22.4628 0.63168 22.8013 0.953302C23.5292 1.6304 23.8508 2.45985 23.6308 3.42472C23.3684 4.62657 22.7675 5.65068 21.8195 6.44627C21.6333 6.60708 21.3879 6.72557 21.1509 6.80175C20.5161 7.00488 19.9744 6.6494 19.9067 5.98923C19.8898 5.77764 19.8898 5.54912 19.949 5.35445C20.2453 4.32187 20.8547 3.60245 21.9719 3.40779C22.0904 3.39086 22.2089 3.36547 22.3189 3.34854C22.6659 2.93382 22.4797 2.09591 21.8872 1.96895C21.5825 1.90124 21.244 1.86739 20.9393 1.90971C19.6274 2.11284 18.5102 2.75608 17.4438 3.49243C15.6325 4.74506 14.0667 6.277 12.594 7.9105C10.7743 9.92487 9.16623 12.0916 7.80357 14.4276C6.45784 16.7213 5.37448 19.1334 4.79894 21.7487C4.47732 23.2045 4.35883 24.6687 4.7397 26.1414C5.2052 27.9442 6.31395 29.163 8.09134 29.7554C9.33551 30.1701 10.622 30.2209 11.9169 30.1194C14.5661 29.9162 17.1222 29.2137 19.6951 28.5959C21.4302 28.1812 23.1653 27.7495 24.9173 27.3771C26.7793 26.9793 28.6667 26.7085 30.5795 26.5815C32.3146 26.4715 34.0158 26.5815 35.7001 26.9624C37.5621 27.3856 39.2464 28.215 40.7868 29.3238C41.7516 30.0263 42.6911 30.7711 43.6221 31.5159C43.9438 31.7783 44.2146 32.0999 44.4939 32.4046C44.5785 32.4977 44.6208 32.6331 44.6886 32.7516H44.6039C44.5193 32.6839 44.4516 32.5992 44.3585 32.5485C43.3428 31.8798 42.251 31.3635 41.0915 30.9996C40.0335 30.6695 38.9586 30.4748 37.8499 30.3987C37.1304 30.3479 36.4195 30.3394 35.7255 30.4664C34.5405 30.678 33.5757 31.2704 32.797 32.1845C32.7039 32.2945 32.6108 32.3961 32.5177 32.4977C32.4585 32.4554 32.4331 32.4384 32.4161 32.4215C32.3738 32.3707 32.34 32.3115 32.2976 32.2607C31.6629 31.2535 30.7826 30.5341 29.7247 30.0009C28.3959 29.3407 26.9655 29.1291 25.5097 29.0699C24.274 29.0191 23.0298 29.1291 21.8195 29.3322C20.1691 29.62 18.5187 29.9585 16.8852 30.3225C14.5661 30.8472 12.2809 31.5159 9.91951 31.829C8.5907 32.0068 7.26189 32.066 5.95001 31.7867C2.90306 31.135 0.939475 29.3407 0.20313 26.2684C0.126956 25.9552 0.0677099 25.642 0 25.3289C0 24.4656 0 23.6107 0 22.7474C0.0253912 22.5612 0.0592462 22.3835 0.0761737 22.1973C0.355477 20.0475 0.981794 17.9993 1.89588 16.0357C3.41089 12.7772 5.53529 9.95873 8.04902 7.41114C9.49632 5.94691 11.0536 4.60964 12.7549 3.43318C14.5069 2.2144 16.3689 1.19875 18.4425 0.63168C18.908 0.504724 19.382 0.420087 19.8475 0.318522C20.4399 0.318522 21.0324 0.318522 21.6249 0.318522L21.6079 0.310059Z" fill="white"/>
<path d="M90.0372 28.9512C90.2911 28.9004 90.4604 28.9088 90.5789 28.8327C91.0105 28.5618 91.4591 28.3079 91.8315 27.9694C92.8726 27.0384 93.702 25.9296 94.523 24.8124C94.7515 24.4992 94.98 24.1776 95.2001 23.8729H96.3512C96.275 24.0168 96.2242 24.1268 96.165 24.2284C94.8023 26.2512 93.3127 28.1725 91.5353 29.8483C90.8497 30.4916 90.1219 31.101 89.2755 31.5326C88.8861 31.7357 88.463 31.905 88.0398 31.9981C86.931 32.2436 86.127 31.5919 86.0762 30.4577C86.0677 30.2038 86.0762 29.9499 86.0762 29.6283C85.7292 29.933 85.4499 30.2123 85.1282 30.4492C84.5442 30.8724 83.9518 31.3041 83.3255 31.6596C82.7838 31.9643 82.1913 32.1335 81.5396 31.9643C80.8456 31.7865 80.3801 31.3633 80.1685 30.6778C80.0246 30.1953 79.9823 29.7044 80.0669 29.2051C80.0839 29.1289 80.0839 29.0527 80.1008 28.9004C79.8215 29.1966 79.6014 29.4336 79.3729 29.679C78.6958 30.3731 77.9848 31.0332 77.1385 31.5241C76.9184 31.6511 76.6899 31.7696 76.4529 31.8627C75.3188 32.2943 73.7953 31.7865 73.5583 30.1784C73.4144 29.2051 73.5414 28.2656 73.7953 27.3515C74.1 26.2343 74.4809 25.1425 74.8279 24.0422C74.8786 23.8729 74.9379 23.7121 75.0141 23.5005C74.4639 23.5767 73.9476 23.6275 73.4398 23.7206C73.3213 23.746 73.2028 23.8814 73.1267 23.9999C72.7627 24.5669 72.4242 25.1425 72.0687 25.718C70.7314 27.8763 68.9794 29.6367 66.8889 31.0671C66.2795 31.4903 65.6108 31.8119 64.883 31.9727C63.5203 32.269 62.3777 31.448 62.2 30.0599C62.0645 29.0104 62.2761 28.0032 62.5808 27.0045C63.1225 25.1933 64.0451 23.5682 65.1538 22.0532C66.3895 20.3689 67.786 18.8201 69.4618 17.5505C70.3759 16.8565 71.3408 16.2302 72.4919 16.0101C72.8812 15.9339 73.3044 15.9255 73.6937 15.9932C74.6671 16.1709 75.2003 16.9157 75.2172 18.0329C75.2341 18.8201 75.0479 19.5818 74.8025 20.3181C74.5824 20.9529 74.3116 21.5708 74.0577 22.1886C74.0069 22.3241 73.9392 22.451 73.863 22.6287C74.4978 22.6457 75.031 22.4849 75.5473 22.2479C75.6573 22.1971 75.725 22.0194 75.7927 21.8924C77.0623 19.3364 78.4503 16.848 79.9992 14.4528C81.1334 12.6839 82.3944 11.008 83.791 9.44224C84.8151 8.28271 85.8477 7.13164 86.9226 6.02289C88.3783 4.53327 89.9018 3.11136 91.6538 1.95183C92.3055 1.52018 92.9826 1.13084 93.7274 0.893858C94.2437 0.733047 94.7684 0.623018 95.3101 0.775366C95.8941 0.936177 96.1226 1.24087 96.148 1.85026C96.1734 2.45965 96.0126 3.02672 95.818 3.57686C95.6825 3.95773 95.5133 4.32167 95.3524 4.69408C95.3017 4.79564 95.217 4.9226 95.1239 4.95645C94.7769 5.07495 94.413 5.15958 93.9813 5.27808C94.4045 4.17779 95.1239 3.26371 95.0816 2.13803C94.8615 1.96029 94.6923 1.99415 94.5315 2.07032C94.2437 2.2142 93.9559 2.36655 93.6936 2.55275C92.4325 3.45837 91.3322 4.55019 90.2742 5.67587C88.8015 7.24166 87.4304 8.90056 86.1693 10.6441C84.1634 13.4202 82.3691 16.3148 80.7779 19.3448C80.7102 19.4718 80.6509 19.6072 80.634 19.8103C80.7356 19.7511 80.8541 19.7088 80.9472 19.6326C81.9036 18.8708 82.8769 18.126 83.7994 17.3304C85.2213 16.1032 86.5586 14.7744 87.8282 13.3779C88.8861 12.2183 89.8849 10.9996 90.8921 9.79772C91.146 9.49302 91.3914 9.29835 91.8061 9.33221C91.9839 9.34914 92.1701 9.29835 92.4409 9.27296C92.3563 9.42531 92.314 9.52688 92.2463 9.61151C91.3829 10.6779 90.562 11.7782 89.6479 12.7939C88.4206 14.1481 87.1426 15.46 85.8477 16.7464C83.9772 18.6085 81.9543 20.3012 79.7453 21.7485C79.4829 21.9178 79.3137 22.1294 79.1867 22.4087C78.5011 23.9152 77.841 25.4302 77.4855 27.0553C77.4093 27.4192 77.3754 27.8001 77.3585 28.1725C77.3585 28.3502 77.4008 28.5449 77.477 28.7142C77.604 29.0104 77.8748 29.1458 78.171 29.0189C78.4842 28.875 78.7889 28.6888 79.0513 28.4687C79.7368 27.8593 80.2785 27.1145 80.8033 26.3697C82.0898 24.5416 83.3424 22.6965 84.6712 20.9106C85.7546 19.4633 87.0072 18.1684 88.4883 17.1104C89.2755 16.5518 90.1219 16.1371 91.0952 16.0101C91.9077 15.9001 92.5086 16.2048 93.0164 16.7803C93.0926 16.8649 93.1688 16.9665 93.2788 17.0935C93.4566 16.8396 93.6174 16.6195 93.7782 16.3825H97.079C96.7744 16.9073 96.5035 17.3812 96.2242 17.8552C94.3199 21.0884 92.4071 24.313 90.5027 27.5462C90.3504 27.8001 90.2403 28.0794 90.1472 28.3502C90.0965 28.5026 90.1049 28.6803 90.0795 28.9596L90.0372 28.9512ZM84.8574 28.8665C85.1959 28.8835 85.4837 28.6973 85.7207 28.4518C86.1524 28.0117 86.6009 27.58 86.9564 27.0807C87.7605 25.955 88.5476 24.8124 89.2755 23.6444C90.3504 21.9263 91.366 20.1658 92.4071 18.4307C92.5086 18.2615 92.5848 18.0922 92.4494 17.906C92.314 17.7198 92.1278 17.6605 91.9162 17.7029C91.6792 17.7536 91.4337 17.796 91.2306 17.9144C90.8667 18.1345 90.5112 18.3884 90.198 18.6762C89.0385 19.7426 88.0398 20.9529 87.1257 22.2394C86.0846 23.7121 85.1536 25.2525 84.4765 26.9283C84.3326 27.2838 84.2395 27.6731 84.1803 28.054C84.0957 28.5618 84.358 28.8581 84.8489 28.8581L84.8574 28.8665ZM69.4872 21.1222C69.3772 21.2492 69.2926 21.3253 69.2333 21.41C68.7255 22.1379 68.2008 22.8573 67.7268 23.6021C67.1766 24.4738 66.7111 25.4049 66.381 26.3867C66.2118 26.9114 66.1017 27.4531 66.161 28.0117C66.2287 28.6126 66.7365 28.9681 67.3121 28.8073C67.5406 28.7396 67.7776 28.6549 67.9722 28.5195C68.37 28.2402 68.7594 27.9524 69.1064 27.6224C70.2913 26.5051 71.1885 25.1679 72.0094 23.7714C72.0602 23.6783 72.1025 23.5852 72.1533 23.4667C71.053 22.925 70.122 22.2225 69.4788 21.1137L69.4872 21.1222ZM72.7373 22.4002C72.805 22.3156 72.8812 22.2563 72.9235 22.1802C73.3552 21.4523 73.736 20.6906 73.9392 19.8696C74.0577 19.3871 74.1592 18.9047 74.0577 18.3969C73.9222 17.6775 73.5075 17.3728 72.7966 17.5251C72.5934 17.5674 72.3903 17.6605 72.2041 17.7621C71.7555 18.016 71.3831 18.363 71.0784 18.7777C70.3844 19.7257 70.5621 21.0037 71.4847 21.7739C71.8402 22.0701 72.2295 22.341 72.7289 22.4002H72.7373Z" fill="white"/>
<path d="M47.6087 16.3573C47.3209 16.7466 47.0416 17.1359 46.7538 17.5168C45.6281 18.9895 44.4347 20.4199 43.1059 21.7063C42.395 22.3919 41.6502 23.0267 40.8038 23.5345C40.1606 23.9238 39.4919 24.2201 38.7133 24.1354C38.0869 24.0677 37.6468 23.7461 37.4945 23.1283C37.3929 22.7474 37.3845 22.3411 37.3421 21.9349C37.0798 22.1719 36.8005 22.4258 36.5127 22.6712C35.7594 23.3145 34.9469 23.8646 33.9566 24.0677C33.5842 24.1439 33.178 24.1524 32.7971 24.1016C31.9846 23.9831 31.5106 23.3568 31.4598 22.4342C31.426 21.8502 31.5191 21.2832 31.663 20.7246C31.7053 20.5722 31.7391 20.4199 31.7984 20.1744C31.2906 20.6399 30.8504 21.0546 30.4019 21.444C29.3608 22.3581 28.2521 23.1875 26.974 23.7546C26.3308 24.0423 25.6622 24.2285 24.9512 24.2201C23.3092 24.2031 22.0143 22.9421 21.9381 21.3001C21.8789 20.0221 22.2005 18.8202 22.7168 17.6691C23.0469 16.9328 23.4362 16.2303 23.8001 15.5024C23.8594 15.3839 23.9186 15.2654 24.0202 15.0708C23.6647 15.1469 23.377 15.24 23.0807 15.2739C22.6321 15.3162 22.3782 15.5617 22.1497 15.9341C21.5065 16.9582 20.8717 17.9908 20.1523 18.9641C18.7473 20.843 17.0884 22.4681 15.0232 23.6107C14.5747 23.8561 14.0584 24.0254 13.5506 24.1354C12.5264 24.347 11.5108 23.7969 11.0707 22.8405C10.7998 22.2565 10.7321 21.6302 10.7829 20.9954C10.9437 18.9895 11.7732 17.2375 12.8227 15.5786C14.1853 13.4288 15.8104 11.5075 17.8163 9.91635C18.7896 9.14615 19.8306 8.47752 21.0664 8.18128C21.5149 8.07126 21.955 8.02047 22.4206 8.12204C23.4955 8.35056 24.1218 9.07844 24.1641 10.1872C24.2064 11.0928 24.0033 11.9476 23.7155 12.794C23.6055 13.1156 23.4701 13.4203 23.3516 13.7335C23.3092 13.8435 23.2754 13.9536 23.2077 14.1652C23.5547 14.0467 23.8171 13.9789 24.071 13.8689C24.8327 13.5219 25.5183 13.0479 26.1446 12.4893C27.1095 11.6345 28.0574 10.7627 29.0392 9.91635C29.7586 9.2985 30.5373 8.77375 31.4175 8.42673C32.0692 8.16436 32.7463 8.06279 33.4319 8.15589C34.8538 8.34209 35.6325 9.54395 35.2685 10.9912C35.04 11.9223 34.566 12.7348 33.9228 13.4373C33.6689 13.7166 33.3557 13.9366 32.9748 14.0297C32.357 14.1736 31.7645 13.6658 31.8068 13.0395C31.8661 12.2185 32.6532 11.2028 33.4403 10.9405C33.6689 10.8643 33.9059 10.8304 34.1259 10.7797C34.3629 10.1364 34.1259 9.764 33.4827 9.77247C33.2626 9.77247 33.0172 9.81479 32.8225 9.91635C32.4586 10.111 32.0946 10.3311 31.773 10.585C29.9956 11.99 28.6414 13.7504 27.5496 15.7225C27.0079 16.6958 26.4916 17.6861 26.1446 18.7525C25.9669 19.2942 25.823 19.8359 25.8568 20.4114C25.8907 20.9954 26.1107 21.4948 26.7032 21.7148C27.0756 21.8587 27.4819 21.8502 27.8458 21.7063C28.2436 21.5455 28.6329 21.3593 28.9884 21.1223C30.1564 20.3521 31.1382 19.3704 32.0269 18.3039C33.2626 16.8228 34.4306 15.2739 35.6409 13.7589C36.8343 12.2608 38.1039 10.8389 39.6189 9.65398C40.3214 9.10383 41.0662 8.63833 41.9126 8.33363C42.9705 7.95276 43.9269 8.04586 44.6717 8.96841C44.7141 8.96841 44.7564 8.96841 44.7648 8.95148C44.9764 8.47752 45.3658 8.42673 45.8313 8.45212C46.5168 8.48598 47.2024 8.45212 47.888 8.46059C48.0318 8.46059 48.1673 8.47751 48.3873 8.48598C48.2773 8.69757 48.2011 8.84992 48.1165 8.9938C46.0175 12.4978 43.91 16.0018 41.811 19.5058C41.6248 19.8105 41.4978 20.1575 41.3963 20.5045C41.2947 20.86 41.4894 21.0462 41.8279 20.9023C42.1749 20.7499 42.5219 20.5383 42.8182 20.3014C43.7661 19.5396 44.5363 18.6002 45.3234 17.6861C45.6281 17.3306 45.9328 16.9751 46.2121 16.5942C46.4153 16.3149 46.6523 16.1795 46.9993 16.2218C47.1939 16.2472 47.3886 16.2472 47.5833 16.2557C47.6002 16.2895 47.6171 16.3319 47.6256 16.3657L47.6087 16.3573ZM44.02 10.1872C43.9439 9.86557 43.7577 9.72168 43.4783 9.764C43.1906 9.81479 42.8774 9.85711 42.6489 10.0095C42.2003 10.3141 41.7348 10.6527 41.3878 11.0674C40.3975 12.2354 39.4411 13.4288 38.5101 14.656C37.4268 16.0864 36.4788 17.6014 35.8187 19.2773C35.6917 19.6073 35.5986 19.9713 35.5647 20.3268C35.514 20.9446 35.8948 21.2154 36.4873 21.0039C36.6481 20.9446 36.8089 20.8515 36.9359 20.7415C37.2321 20.4876 37.5453 20.2421 37.7822 19.9374C38.3832 19.1841 39.0095 18.4309 39.5173 17.6184C40.7446 15.6717 41.921 13.6996 43.1059 11.7361C43.4191 11.2198 43.7153 10.695 44.0031 10.1957L44.02 10.1872ZM18.2733 13.1156C17.884 13.6827 17.5454 14.1905 17.1815 14.6899C16.5636 15.5447 16.0474 16.4504 15.6072 17.4068C15.2856 18.1177 15.0148 18.8541 14.9555 19.6327C14.9217 20.0559 14.9809 20.4706 15.3449 20.7584C15.7088 21.0462 16.1066 20.9615 16.4875 20.8007C16.6144 20.7499 16.7329 20.6907 16.8429 20.6061C17.2069 20.3268 17.5793 20.0644 17.9178 19.7597C19.2467 18.5155 20.2284 17.009 21.151 15.4601C21.1764 15.4178 21.1764 15.3585 21.2018 15.2654C20.0422 14.8338 18.9335 14.326 18.2818 13.1156H18.2733ZM21.8789 14.1821C21.9889 13.962 22.0905 13.7843 22.1666 13.6065C22.3444 13.1918 22.5306 12.7686 22.6829 12.337C22.8776 11.7868 22.9453 11.2198 22.8945 10.6358C22.8268 9.86557 22.3359 9.47624 21.608 9.69629C20.5839 10.001 19.8645 10.6866 19.5513 11.7191C19.3482 12.3878 19.5513 12.9887 20.0676 13.4711C20.44 13.8097 20.8886 14.0213 21.3711 14.1567C21.5234 14.199 21.6842 14.1736 21.8789 14.1905V14.1821Z" fill="white"/>
<path d="M87.1598 4.72814C86.305 5.5999 85.5009 6.43781 84.6546 7.30111C84.2822 7.09798 83.9098 6.92025 83.5627 6.69172C82.327 5.9046 81.0998 5.10054 79.8641 4.31341C78.8738 3.67863 77.8412 3.13695 76.7494 2.71376C75.7507 2.32443 74.7181 2.20594 73.6602 2.426C73.6178 2.426 73.584 2.44293 73.5417 2.45985C73.5163 2.46832 73.4993 2.49371 73.457 2.5191C73.457 2.57835 73.4232 2.66298 73.4316 2.73916C73.5924 3.83944 73.347 4.88895 72.9746 5.89613C72.1536 8.13902 70.8671 10.0941 69.1321 11.7446C68.5904 12.2524 67.9895 12.6841 67.3039 12.9803C66.7791 13.2003 66.2459 13.3527 65.6619 13.2596C64.7563 13.1072 64.24 12.5317 64.2062 11.6092C64.1808 10.9828 64.3331 10.3819 64.5447 9.79792C65.0779 8.35062 65.8904 7.08106 66.8807 5.91306C68.1079 4.4573 69.5976 3.31469 71.1549 2.24826C71.2734 2.16362 71.3919 2.07898 71.5865 1.94356C71.1041 1.82507 70.7148 1.83354 70.3254 1.90971C69.2167 2.11284 68.2603 2.66298 67.3208 3.24698C65.9835 4.08489 64.7478 5.05822 63.5798 6.11619C59.5426 9.78099 56.3264 14.0806 53.8804 18.9388C52.8732 20.9277 52.2046 23.0437 51.8491 25.2442C51.7137 26.0737 51.7391 26.9116 52.0184 27.7157C52.3654 28.7228 53.0594 29.2984 54.1343 29.4507C55.133 29.5946 55.9879 29.2561 56.8004 28.7482C57.9091 28.0542 58.8232 27.1571 59.6781 26.1753C60.9307 24.7364 61.9633 23.1537 62.615 21.3425C62.8774 20.6061 63.072 19.8528 63.1397 19.0742C63.1651 18.7864 63.1059 18.4817 63.0297 18.2024C62.9197 17.8215 62.6742 17.6692 62.2764 17.6692C61.6755 17.6692 61.1931 17.9654 60.7699 18.3548C60.1436 18.9218 59.6781 19.6243 59.348 20.3945C59.0602 21.0716 58.8401 21.7826 58.6032 22.4766C58.5439 22.6628 58.4677 22.8152 58.2731 22.8998C56.8427 23.5261 55.6662 24.4994 54.566 25.5743C54.4644 25.6759 54.3628 25.769 54.2613 25.8706C54.2359 25.8621 54.2105 25.8452 54.1766 25.8367C54.1935 25.642 54.1851 25.4474 54.2189 25.2527C54.6167 23.086 55.3531 21.0378 56.6565 19.2519C57.7906 17.7031 59.2633 16.5858 61.1507 16.0865C61.5316 15.9849 61.9548 15.9341 62.3441 15.9849C63.3175 16.1119 63.9776 16.8567 64.1554 17.8893C64.3416 18.9303 64.1384 19.9206 63.8507 20.9108C63.1905 23.213 62.0056 25.2273 60.5075 27.0724C59.348 28.5028 58.0022 29.7385 56.411 30.678C55.2769 31.3466 54.0666 31.8206 52.7463 31.9475C49.9109 32.2099 48.1504 30.6018 47.5157 28.2319C47.1856 27.0216 47.2025 25.7859 47.3802 24.5502C47.7526 22.0534 48.709 19.7682 49.9109 17.5761C51.3497 14.9523 53.0679 12.5063 55.0061 10.2296C57.5537 7.24187 60.4398 4.6435 63.8507 2.65452C65.298 1.80814 66.7961 1.09719 68.4211 0.674003C69.3183 0.445482 70.2239 0.369308 71.138 0.538583C71.6458 0.631684 72.1282 0.800959 72.5345 1.13104C72.7122 1.28339 72.8815 1.28339 73.0931 1.19875C74.625 0.614757 76.2077 0.386236 77.8412 0.470873C78.9415 0.530119 79.9995 0.809423 80.9813 1.30032C82.0731 1.842 83.1396 2.45139 84.206 3.04385C85.1031 3.53475 85.9834 4.05104 86.8721 4.5504C86.9567 4.59272 87.0329 4.6435 87.1683 4.72814H87.1598ZM72.3229 2.92536C72.2298 2.92536 72.1875 2.92536 72.1536 2.93382C71.9759 3.02692 71.7897 3.11156 71.6204 3.21313C69.9869 4.16953 68.6496 5.46448 67.4647 6.92025C66.7368 7.80894 66.1105 8.75688 65.6535 9.80638C65.4419 10.2888 65.2641 10.7797 65.2811 11.3214C65.298 11.9646 65.6704 12.2778 66.3052 12.1762C66.8892 12.0831 67.3631 11.7784 67.8032 11.423C69.9446 9.71328 71.4257 7.55503 72.1367 4.89741C72.306 4.26263 72.416 3.61939 72.3314 2.92536H72.3229Z" fill="white"/>
<path d="M88.5646 8.66369C89.1402 8.00352 89.6649 7.39412 90.2066 6.7932C90.4605 6.5139 90.6806 6.14995 91.0022 6.01453C91.3153 5.87065 91.7385 5.96375 92.1109 5.95529C93.8291 5.92143 95.4456 5.45593 97.0114 4.77036C99.212 3.79703 101.142 2.42591 102.86 0.750087C102.928 0.682377 102.995 0.614668 103.063 0.555421C103.08 0.538494 103.114 0.538494 103.198 0.504639C103.139 0.648522 103.105 0.758551 103.046 0.851652C101.074 4.20329 98.3402 6.69163 94.7093 8.15586C93.4651 8.65522 92.1617 8.90914 90.816 8.94299C90.1643 8.95992 89.5041 8.84989 88.8524 8.79064C88.7762 8.79064 88.7085 8.73986 88.5562 8.68061L88.5646 8.66369Z" fill="white"/>
<path d="M48.9373 11.3466C49.0134 11.1858 49.0473 11.0927 49.1065 10.9996C49.5805 10.2294 50.0545 9.46763 50.52 8.7059C50.6215 8.53662 50.74 8.46045 50.9432 8.46045C51.7726 8.46045 52.6105 8.46045 53.44 8.46045C53.5246 8.46045 53.6177 8.4943 53.7447 8.5197C53.6939 8.63819 53.6685 8.73975 53.6177 8.82439C53.1607 9.5692 52.6952 10.3055 52.2466 11.0504C52.1027 11.2873 51.9334 11.3804 51.6626 11.372C50.9008 11.355 50.1306 11.372 49.3689 11.372C49.2504 11.372 49.1319 11.355 48.9457 11.3466H48.9373Z" fill="white"/>
</g>
</svg>
