<svg width="135" height="32" viewBox="0 0 135 32" fill="none" xmlns="http://www.w3.org/2000/svg">
<g opacity="0.8" clip-path="url(#clip0_439_266)">
<path d="M60.0326 14.4707C60.2141 14.1589 60.3662 13.857 60.5527 13.5745C61.4554 12.2253 62.7408 11.6749 64.3452 11.8162C64.5512 11.8357 64.7524 11.8844 64.9536 11.9136C67.3625 12.2594 68.7215 13.7839 68.7412 16.2241C68.7608 18.7422 68.7902 21.2652 68.7264 23.7833C68.6872 25.2835 68.9521 26.6229 70.0953 27.6895C70.1345 27.7236 70.1149 27.8162 70.1394 27.9623C69.8843 27.9915 69.6292 28.0548 69.3741 28.0451C68.3487 28.0159 67.3233 27.9331 66.2979 27.9331C65.6502 27.9331 65.2038 27.6603 65.0566 27.0807C64.8554 26.2965 64.669 25.488 64.6543 24.6844C64.6052 22.1322 64.6445 19.5751 64.6297 17.0229C64.6199 15.7711 64.0066 15.0113 62.8439 14.7288C61.4603 14.3927 60.17 15.3474 60.1602 16.755C60.1405 19.3754 60.1602 22.0006 60.1503 24.621C60.1503 25.5513 60.4987 26.3452 61.0188 27.0807C61.1905 27.3291 61.3769 27.5678 61.6222 27.899C61.318 27.9623 61.0972 28.0451 60.8814 28.0451C59.9541 28.0597 59.0268 28.0646 58.1044 28.0451C57.0741 28.0256 56.5737 27.6798 56.3382 26.6813C56.1616 25.9264 56.0684 25.1373 56.0585 24.3629C56.0242 21.9812 56.0585 19.5946 56.034 17.2128C56.0291 16.7209 55.9555 16.1754 55.7298 15.7468C55.2343 14.797 54.2825 14.4853 53.1786 14.7775C52.0894 15.0697 51.5399 15.7078 51.535 16.828C51.5154 19.3803 51.5105 21.9373 51.535 24.4895C51.5497 25.6098 51.8784 26.6375 52.7223 27.446C52.8401 27.558 52.9284 27.7041 53.1099 27.9331C52.7959 27.9866 52.5849 28.05 52.3691 28.05C51.4074 28.0597 50.4458 28.0646 49.4891 28.05C48.5078 28.0354 48.0025 27.6895 47.7719 26.7641C47.61 26.1115 47.5217 25.4198 47.5168 24.7477C47.4923 21.65 47.4972 18.5474 47.5119 15.4497C47.5168 14.1784 47.242 13.0192 46.251 12.1182C47.0752 11.8064 49.1457 11.8357 49.8374 12.1425C50.4409 12.4055 50.8089 12.8828 51.0885 13.443C51.221 13.706 51.324 13.9836 51.4614 14.3002C53.5564 10.73 58.0358 11.0807 60.0326 14.4707Z" fill="white"/>
<path d="M29.2754 7.89051C29.5992 7.86615 29.8298 7.83206 30.0653 7.83206C33.2593 7.83206 36.4483 7.79309 39.6423 7.85154C40.5892 7.87102 41.5655 8.03663 42.4585 8.3386C43.8666 8.80618 44.7987 9.8144 45.2452 11.4168C44.9557 11.3194 44.7742 11.2853 44.6221 11.2074C43.3857 10.5547 42.0611 10.2138 40.6775 10.17C39.0339 10.1164 37.3854 10.1407 35.7369 10.1359C35.6094 10.1359 35.4769 10.1846 35.3788 10.2089C35.4818 11.6311 35.5799 13.0144 35.6928 14.5146C36.2128 14.534 36.7525 14.5194 37.2775 14.5876C38.1214 14.6948 38.9947 14.7435 39.7895 15.0162C40.8787 15.3864 41.6833 16.1657 42.1739 17.3006C40.074 16.3946 37.9251 16.8768 35.6928 16.8378C35.6584 17.1788 35.6045 17.471 35.6045 17.7584C35.5946 19.6336 35.5848 21.5088 35.6045 23.3791C35.6241 25.3907 35.9135 25.6585 37.9447 25.6585C38.8033 25.6585 39.6619 25.6439 40.5205 25.6585C42.2475 25.6975 43.9598 25.6926 45.3875 24.4555C45.7456 26.0433 45.2452 27.149 43.8862 27.675C43.2925 27.9039 42.6204 28.0257 41.9826 28.0305C38.9947 28.0646 36.0117 28.05 33.0238 28.0452C31.9346 28.0452 31.4783 27.7042 31.1987 26.6424C31.0956 26.2528 31.0466 25.8388 31.0417 25.4345C30.9779 21.6208 30.9239 17.8071 30.8699 13.9934C30.865 13.482 30.8503 12.9706 30.8699 12.4592C30.9288 10.9346 30.4971 9.57087 29.56 8.35809C29.4619 8.23145 29.3932 8.08046 29.2705 7.88077L29.2754 7.89051Z" fill="white"/>
<path d="M91.0696 15.5032V13.0777C91.7025 12.4834 92.4973 12.2302 93.2921 12.0743C95.3577 11.6749 97.3251 11.8113 98.9637 13.3553C99.7586 14.1054 100.112 15.0113 100.107 16.0974C100.087 18.7519 100.146 21.4113 100.082 24.0658C100.048 25.4442 100.401 26.6131 101.383 27.5921C101.471 27.6798 101.52 27.8064 101.677 28.0597C100.907 28.0597 100.269 28.0792 99.6359 28.0597C98.9539 28.0353 98.272 27.9623 97.5851 27.9379C97.1239 27.9185 96.805 27.7041 96.5891 27.3242C96.4419 27.0661 96.3046 26.7982 96.1034 26.4232C95.3626 27.3486 94.4794 27.9087 93.3706 28.011C91.4523 28.1912 89.2347 27.4411 88.6656 25.3906C88.3025 24.0853 88.3859 22.7605 89.112 21.5379C89.6713 20.6028 90.476 19.916 91.4278 19.4192C92.3354 18.9419 93.2872 18.5474 94.1998 18.0749C94.7444 17.7973 95.2939 17.4953 95.76 17.1105C96.4714 16.5212 96.5744 15.6688 96.3144 14.8603C96.0494 14.0518 95.2988 13.8375 94.4942 13.7839C93.4639 13.7157 92.6053 14.0274 91.9184 14.797C91.6927 15.0454 91.4768 15.3035 91.256 15.5568C91.1972 15.5422 91.1334 15.5276 91.0745 15.513L91.0696 15.5032ZM96.1181 18.635C95.0829 19.3851 94.1654 19.9306 93.3952 20.632C92.4532 21.4941 91.9969 22.629 92.041 23.9294C92.0705 24.8159 92.3796 25.5172 93.2774 25.8582C94.1949 26.2089 95.0437 26.0287 95.7796 25.4344C95.9808 25.2737 96.0985 24.9084 96.1034 24.6308C96.1328 22.7312 96.1181 20.8268 96.1181 18.635Z" fill="white"/>
<path d="M116.351 22.4196C116.665 23.9976 117.195 25.3078 118.756 25.8339C120.689 26.4817 122.136 25.6634 123.372 23.9587V26.8372C123.151 26.9882 122.95 27.1928 122.705 27.2902C120.424 28.1912 118.103 28.4104 115.817 27.3681C113.638 26.3745 112.382 24.587 111.882 22.3027C111.347 19.8527 111.72 17.4954 112.888 15.2743C114.438 12.3179 117.558 11.1343 120.743 12.162C121.341 12.3568 121.93 12.7173 122.411 13.1264C123.588 14.1298 123.858 15.5081 123.235 16.9206C122.494 18.601 121.11 19.6384 119.55 20.4859C118.952 20.8122 118.299 21.0558 117.715 21.4016C117.23 21.6938 116.798 22.0786 116.356 22.4196H116.351ZM116.14 20.4275C116.837 19.9404 117.514 19.5459 118.098 19.0393C119.423 17.8947 120.031 16.4238 119.874 14.6704C119.815 14.0129 119.511 13.5014 118.839 13.2871C118.152 13.0631 117.603 13.3456 117.22 13.8716C116.925 14.2759 116.69 14.7483 116.543 15.2305C116.072 16.7794 116.023 18.3769 116.023 19.9794C116.023 20.1011 116.087 20.2278 116.145 20.4323L116.14 20.4275Z" fill="white"/>
<path d="M20.9005 16.1171C20.9201 15.7323 20.9397 15.3622 20.9642 14.8702C21.2488 15.0456 21.4549 15.1722 21.7149 15.3329C22.1712 14.9774 22.6373 14.5877 23.1279 14.2322C23.8785 13.6867 24.8353 13.5844 25.3308 13.9643C25.841 14.3539 26.0275 15.4596 25.5859 16.2486C24.9775 17.3348 24.0404 18.1628 22.9807 18.796C22.3478 19.1759 21.6119 18.869 21.239 18.1871C21.0624 17.8657 20.9642 17.5004 20.7729 17.0084C19.9094 17.8462 19.0116 18.5622 18.2805 19.4486C18.1088 19.6581 18.0843 20.0185 18.0745 20.3107C18.0499 21.3335 18.0597 22.3564 18.0646 23.3743C18.0745 24.816 17.6182 26.0337 16.4211 26.9445C15.8225 27.3975 15.2877 27.9332 14.7284 28.4349C14.434 28.6979 14.1298 28.8928 13.6638 28.5956C14.0563 28.2352 14.4242 27.8943 14.7922 27.5582C15.2681 27.1247 15.5723 26.5743 15.5821 25.946C15.6115 23.8711 15.5919 21.7963 15.5919 19.6045C15.1798 19.585 14.8167 19.5558 14.4537 19.5558C11.7062 19.5558 8.96358 19.5265 6.21609 19.5655C4.44984 19.5899 3.30669 18.7521 2.59038 17.2179C2.19788 16.3704 1.98201 15.4888 2.01144 14.5488C2.03597 13.7646 1.99182 12.9804 2.02126 12.1963C2.06051 11.2173 1.94276 10.2967 1.25098 9.52228C1.99672 9.20569 2.25676 9.2544 2.45791 9.83888C2.61 10.2821 2.6836 10.7692 2.69832 11.2367C2.73266 12.2937 2.6885 13.3506 2.71304 14.4026C2.74738 15.9953 3.69428 16.989 5.26918 16.989C8.59561 16.9792 11.922 16.911 15.2485 16.8672C15.3123 16.8672 15.376 16.8282 15.5576 16.7698C15.9991 14.7679 17.8095 13.8036 19.2225 12.508C19.3501 12.3911 19.6395 12.4495 20.0517 12.4057C19.3059 13.3409 18.2364 13.8133 18.1333 14.9335C18.0794 15.5278 18.1235 16.1366 18.1235 16.7746C19.1636 16.9889 20.086 17.023 20.8906 16.1171H20.9005ZM24.0012 17.2179C24.2956 16.5798 24.1238 16.0928 23.6725 15.7956C23.226 15.4985 22.7158 15.557 22.2693 16.0246C22.7452 16.5749 23.1083 17.1935 24.0012 17.2179Z" fill="white"/>
<path d="M133.999 13.0485V15.6933C133.705 15.3913 133.518 15.2159 133.356 15.0211C132.773 14.3051 132.032 13.8327 131.114 13.6866C130.717 13.6232 130.295 13.6476 129.898 13.7206C129.25 13.8375 128.74 14.2077 128.607 14.8799C128.485 15.5033 128.818 16.0245 129.289 16.3849C129.799 16.7794 130.398 17.0619 130.928 17.4369C131.821 18.0604 132.758 18.64 133.563 19.3706C135.599 21.2068 135.559 24.9718 132.856 26.8372C130.575 28.4105 127.351 28.3374 125.139 26.7593C125.114 26.4038 125.075 25.9703 125.06 25.5368C125.045 25.0984 125.06 24.6552 125.06 24.173C125.546 24.1876 125.634 24.5675 125.83 24.8111C126.964 26.243 128.696 26.545 130.212 25.566C131.58 24.6796 131.742 23.1356 130.545 22.0299C130.123 21.6403 129.613 21.3432 129.118 21.0461C127.965 20.3642 126.826 19.6823 125.992 18.601C125.246 17.6366 124.937 16.5407 125.021 15.3474C125.119 13.9983 125.943 13.0875 127.077 12.4835C129.481 11.2074 131.757 11.714 134.009 13.0534L133.999 13.0485Z" fill="white"/>
<path d="M104.012 13.7938H101.696C101.687 13.7305 101.677 13.6671 101.667 13.6038C102.81 12.8878 104.032 12.2693 105.082 11.4315C106.132 10.5938 107.005 9.54659 108.094 8.45557V11.8747H111.484C111.784 12.7368 111.666 13.4967 111.607 14.349C110.474 14.0714 109.419 13.5941 108.187 13.9155C108.168 14.2321 108.129 14.5633 108.129 14.8897C108.129 18.0897 108.153 21.2945 108.109 24.4945C108.094 25.5856 108.428 26.4915 109.11 27.3098C109.257 27.4851 109.385 27.6702 109.595 27.9478C109.257 27.9965 109.036 28.055 108.815 28.0501C107.721 28.016 106.627 27.9819 105.533 27.9137C104.9 27.8747 104.419 27.412 104.262 26.6376C104.125 25.9752 104.032 25.2933 104.027 24.6163C104.002 21.4163 104.017 18.2114 104.017 15.0114C104.017 14.6461 104.017 14.2857 104.017 13.7889L104.012 13.7938Z" fill="white"/>
<path d="M78.6324 11.9379C79.6528 11.9379 80.6782 11.8941 81.6938 11.9525C82.5671 12.0012 83.1412 12.5175 83.4257 13.3358C83.5337 13.6475 83.622 13.9689 83.7643 14.4463C84.0292 14.0225 84.2107 13.7157 84.407 13.4186C85.2558 12.1327 86.7963 11.6116 88.1799 12.1425C88.9894 12.4542 89.3181 12.9023 89.3329 13.7546C89.3427 14.3976 89.3329 15.0405 89.3329 15.8441C89.009 15.6493 88.8226 15.5519 88.6509 15.4301C87.6451 14.7434 86.5657 14.5729 85.4324 15.0259C84.3825 15.4447 83.7986 16.1997 83.8084 17.3784C83.8281 19.726 83.8182 22.0737 83.8084 24.4262C83.8084 25.5269 84.1617 26.4962 84.8486 27.3486C84.9761 27.5044 85.0988 27.6603 85.2999 27.9087C85.0006 27.972 84.7897 28.0499 84.5738 28.0548C83.6465 28.0694 82.7242 28.0743 81.7969 28.0548C80.8058 28.0353 80.3397 27.7139 80.0797 26.7641C79.9178 26.1796 79.8442 25.561 79.8393 24.9522C79.8148 21.9568 79.8295 18.9613 79.8295 15.9659C79.8295 15.6931 79.8393 15.4204 79.8197 15.1476C79.7363 14.0079 79.5204 12.9169 78.6274 11.933L78.6324 11.9379Z" fill="white"/>
<path d="M77.5283 27.977C77.3271 28.0014 77.1063 28.0598 76.8806 28.0501C75.7865 28.016 74.6925 27.9624 73.5984 27.9186C72.9311 27.8942 72.5926 27.451 72.4601 26.9104C72.2786 26.1554 72.1314 25.3713 72.1216 24.6017C72.0823 21.7426 72.1069 18.8787 72.1069 16.0197C72.1069 14.5195 71.7193 13.1671 70.9441 11.9624C72.0676 11.9624 73.1568 11.8942 74.2264 11.9868C75.0457 12.055 75.5854 12.6638 75.816 13.4187C76.0122 14.0617 76.1496 14.7484 76.1545 15.4157C76.1889 18.2407 76.1987 21.0705 76.1545 23.8955C76.13 25.3226 76.4293 26.5938 77.4792 27.6264C77.5234 27.6702 77.543 27.7433 77.5626 27.8114C77.5724 27.8407 77.5528 27.8748 77.5283 27.977Z" fill="white"/>
<path d="M11.9565 6.56095C11.9565 5.66476 11.9811 4.88546 11.9418 4.11103C11.9271 3.86262 11.7652 3.60448 11.618 3.3853C10.833 2.20174 10.8723 1.6952 11.8682 0.70646C12.0596 0.516506 12.2656 0.336292 12.5306 0.0878906C12.6483 0.292457 12.7415 0.453187 12.8348 0.613918C13.1733 1.15943 13.5069 1.70981 13.8503 2.25045C13.9779 2.45014 14.1496 2.62549 14.2772 2.82518C14.7138 3.51194 14.6942 3.78469 14.1496 4.35456C13.9387 4.57374 13.7032 4.77343 13.4628 5.00235C13.242 4.90494 13.0359 4.81727 12.7906 4.71011C12.7415 5.57708 12.6925 6.38561 12.6385 7.34512C12.6827 7.41331 12.7955 7.61788 12.9378 7.80783C13.5903 8.68941 13.9288 9.66841 13.8454 10.774C13.8356 10.8763 13.8454 10.9786 13.8454 11.0809C13.8111 13.3116 14.1545 12.8733 12.3098 14.7144C11.7112 15.3086 11.0293 15.6008 10.2001 15.6008C8.82636 15.6008 7.45261 15.6106 6.07887 15.596C5.74034 15.596 5.39199 15.5375 5.06818 15.4401C4.25375 15.2014 3.94956 14.7972 3.91522 13.9643C3.89559 13.5308 3.91522 13.0925 3.91522 12.5567C4.20468 12.6541 4.3715 12.6833 4.50396 12.7613C5.06328 13.0876 5.61768 12.9804 6.0298 12.5859C7.35449 11.3147 8.63502 9.98987 9.98914 8.63584C9.1747 7.65684 8.2327 6.97982 7.28089 6.34664C6.72649 5.97648 6.08377 6.29307 5.97584 6.98957C5.84827 7.78835 5.85809 8.61148 5.84337 9.42001C5.83355 9.74634 5.90715 10.0775 5.96112 10.55C5.12215 10.0727 4.53831 9.54177 4.20959 8.83553C3.89069 8.15364 3.979 7.42305 4.46962 6.80935C5.09271 6.03492 5.90715 5.50402 6.90802 5.4261C8.52708 5.29946 10.151 5.27024 11.515 6.40022C11.5886 6.45867 11.7014 6.47328 11.9663 6.56582L11.9565 6.56095ZM6.82952 12.8782C6.85405 12.9512 6.87858 13.0291 6.90311 13.1022C8.67917 13.1022 10.4552 13.1217 12.2313 13.0827C12.5306 13.0778 12.8249 12.8392 13.085 12.7223C12.928 11.5826 11.6769 9.90707 10.6564 9.2885C9.36604 10.4964 8.09533 11.6897 6.82952 12.8782Z" fill="white"/>
<path d="M11.721 23.6762V20.3399C12.7758 21.2068 13.7375 21.9228 13.7767 23.2963C13.7816 23.4668 13.7571 23.6373 13.7816 23.8077C14.0466 25.6781 13.2665 27.0759 11.8829 28.2838C10.9851 29.068 10.0333 29.5453 8.84104 29.5453C8.08548 29.5453 7.33482 29.5453 6.57926 29.5453C3.34605 29.5697 0.941997 26.9493 0.83406 23.798C0.79481 22.6437 0.819341 21.4845 0.83406 20.3301C0.843873 19.3073 0.941997 18.2747 0 17.4808C0.956716 17.2421 1.16768 17.3006 1.39337 17.9289C1.52584 18.3088 1.59943 18.7228 1.61415 19.1222C1.6485 20.1402 1.63378 21.163 1.64359 22.1858C1.66812 24.9036 3.63552 26.8714 6.38301 26.9006C8.06095 26.9201 9.74379 26.8908 11.4217 26.9103C12.0154 26.9152 12.4913 26.7545 12.8494 26.2674C13.2517 25.717 13.2812 25.0887 12.82 24.587C12.4766 24.212 12.035 23.9246 11.7259 23.6714L11.721 23.6762Z" fill="white"/>
<path d="M13.6835 31.971C12.8151 31.2209 11.9958 30.5098 11.0439 29.6866C11.4021 29.6136 11.6131 29.5356 11.8191 29.5308C12.8838 29.5162 13.9435 29.5064 15.0082 29.5308C16.4899 29.56 17.79 29.0924 18.8203 28.0452C19.5121 27.3439 20.1548 26.584 20.719 25.7804C21.3176 24.928 21.5433 23.686 20.3854 22.7704C19.8605 22.3563 19.6495 21.8303 19.7084 21.1582C19.7623 20.5834 19.728 20.0038 19.7427 19.4242C19.7427 19.3658 19.8016 19.3122 19.8703 19.1953C20.9938 19.9649 21.8082 20.8952 21.8082 22.3369C21.8082 23.6276 21.8377 24.9232 21.8033 26.2139C21.7052 29.8425 19.0019 31.6251 16.22 31.9563C15.4105 32.0538 14.5813 31.971 13.6835 31.971Z" fill="white"/>
<path d="M19.9144 0.263026C19.6249 0.540652 19.3355 0.823148 19.0411 1.10077C18.3787 1.71934 18.0598 2.46942 18.0647 3.37535C18.0795 5.45511 18.0304 7.53487 18.0795 9.60975C18.1187 11.2609 17.5692 12.6003 16.2691 13.6426C15.7637 14.0469 15.2976 14.5047 14.8021 14.9285C14.4979 15.1866 14.1888 15.4691 13.5559 15.2597C14.0024 14.8408 14.3556 14.4804 14.7383 14.1589C15.3565 13.6329 15.6165 12.9802 15.6116 12.1766C15.5969 9.89225 15.6312 7.6128 15.5969 5.32847C15.5773 3.97444 15.9894 2.87368 17.0737 2.01645C17.7164 1.50991 18.2855 0.910819 18.9233 0.394533C19.1539 0.204578 19.4826 0.131519 19.7672 0.00488281L19.9144 0.267897V0.263026Z" fill="white"/>
<path d="M3.31177 22.4244C3.90052 21.7767 4.42058 21.2019 5.03876 20.5249C5.71092 21.1483 6.29476 21.6939 6.93748 22.2929C7.54585 21.7669 8.17875 21.2165 8.9196 20.5785C9.41022 21.085 9.91066 21.5331 10.3228 22.0494C10.6809 22.4926 10.6662 23.0235 10.2786 23.457C9.85669 23.9343 9.37097 24.3581 8.90488 24.8159C8.26707 24.0171 7.68813 23.2865 7.02088 22.4537C6.7216 23.608 5.91207 24.134 5.17614 24.8111C4.54323 23.9977 3.92995 23.2135 3.31177 22.4196V22.4244Z" fill="white"/>
<path d="M74.1038 10.7351C72.9509 10.7302 72.0579 9.83887 72.0874 8.72837C72.1168 7.59838 73.0147 6.76064 74.1725 6.78012C75.3304 6.7996 76.2086 7.67631 76.1939 8.79169C76.1743 9.90219 75.2715 10.7399 74.1038 10.7351Z" fill="white"/>
</g>
<defs>
<clipPath id="clip0_439_266">
<rect width="135" height="32" fill="white"/>
</clipPath>
</defs>
</svg>
