<svg width="118" height="103" viewBox="0 0 118 103" fill="none" xmlns="http://www.w3.org/2000/svg">
<path d="M53.6498 103C48.0773 100.8 46.5747 98.2919 47.1676 92.2481C47.4877 88.9787 48.6602 86.0017 50.4492 83.2838C55.5365 75.5588 61.163 68.2591 68.0966 62.016C70.3303 60.0058 70.2798 59.6171 67.8776 57.9259C67.0555 57.3477 66.2166 56.7829 65.4687 56.1184C63.2249 54.1315 62.8442 52.3174 64.0301 49.5762C65.6607 45.8151 67.3049 42.0605 68.9187 38.2927C69.1882 37.6681 69.8149 36.8607 68.9962 36.369C68.4975 36.0699 67.6115 36.1497 66.9882 36.3391C64.0806 37.2262 61.8065 38.9307 60.4554 41.6917C60.0781 42.4626 59.6165 43.044 58.6395 42.6486C57.6625 42.2566 56.6921 41.7283 56.9954 40.4956C57.2144 39.6085 57.6153 38.6815 58.188 37.9738C60.3679 35.2758 63.1979 33.5747 66.6816 33.0364C68.639 32.7341 70.3607 33.3321 71.8195 34.5881C73.1974 35.7742 73.5377 37.2893 72.8269 38.9539C71.4758 42.1104 70.0777 45.2502 68.6997 48.3967C68.2112 49.5131 67.6788 50.6162 67.2476 51.7525C66.631 53.3872 66.877 54.168 68.2112 55.2545C71.715 58.102 72.0991 58.0854 75.5963 55.311C79.5819 52.1512 83.3924 48.8453 86.6874 44.9379C88.5269 42.755 90.7169 40.7448 93.493 39.6384C95.4943 38.841 96.313 39.4058 96.7745 41.5323C96.8992 42.1037 97.3406 42.7051 97.8089 43.0872C99.4867 44.4528 99.6012 44.8083 98.4827 46.6889C97.8864 47.689 97.2125 48.6492 96.6432 49.6626C95.5179 51.6661 96.0131 53.457 98.0043 54.6199C99.7057 55.6134 101.552 55.9257 103.513 55.6798C104.625 55.5403 105.753 55.3907 106.865 55.4439C107.377 55.4672 107.866 55.9689 108.364 56.2546C108.034 56.7032 107.802 57.3178 107.357 57.5704C103.486 59.7633 98.0043 58.8728 94.6217 55.5668C92.6878 53.6763 92.5699 53.6829 90.4945 55.3542C89.0593 56.5071 87.6375 57.68 86.1382 58.7499C83.8068 60.4145 82.3143 60.1885 80.4815 58.0189C79.1743 56.4739 79.1608 56.4606 77.5942 57.7132C76.8664 58.2947 76.196 58.9426 75.3638 59.6835C75.9736 60.5275 76.4082 61.3016 77.0046 61.9263C81.9875 67.1427 82.6108 73.1267 80.751 79.825C77.7896 90.4872 70.647 97.2685 60.7688 101.701C59.7513 102.156 58.717 102.571 57.6928 103.007H53.6498V103ZM72.9043 61.893C72.0351 62.6007 71.2232 63.1922 70.4954 63.87C65.5799 68.4352 61.1764 73.4456 57.2413 78.8448C54.4449 82.6824 52.1742 86.8124 50.8265 91.3643C50.4121 92.7631 50.1864 94.3181 50.338 95.7568C50.749 99.6176 53.3331 101.252 57.0762 100.232C57.8309 100.026 58.5654 99.7439 59.2897 99.4548C63.2687 97.8766 66.5266 95.265 69.5554 92.3578C75.5929 86.5665 78.5274 79.516 78.2073 71.1929C78.0557 67.2955 76.4352 64.1756 72.9043 61.893ZM85.6901 54.8492C89.1637 52.1213 93.237 49.8919 94.1129 44.5425C90.3901 46.7886 87.6038 49.4633 85.3937 52.7227C84.9759 53.3407 84.548 54.1049 85.6901 54.8492Z" fill="white"/>
<path d="M25.3492 0C26.6733 0.754226 26.6497 1.83074 26.2656 3.12987C23.5535 12.2769 20.0631 21.1416 16.4042 29.9464C14.5984 34.2924 12.8195 38.6449 10.9665 43.147C11.6032 43.2367 12.0783 43.3431 12.5601 43.3697C15.9595 43.5424 18.6548 45.0708 20.902 47.5029C21.8858 48.5662 22.8932 49.6061 23.9106 50.6361C26.1073 52.8589 28.7521 53.5899 31.7674 52.7294C36.6122 51.3505 40.9078 48.9582 44.2668 45.2436C45.6179 43.7484 46.4163 41.7682 47.4574 40.0039C47.9661 39.1433 48.3907 38.2296 48.96 37.4156C49.6945 36.3623 50.9411 36.1198 51.9013 36.771C52.9356 37.4754 52.9322 38.3825 52.3662 39.3892C51.6553 40.6451 50.9849 41.921 50.2571 43.167C48.9904 45.3366 48.6871 47.6392 49.2262 50.058C49.617 51.8123 50.4997 52.2941 52.2719 51.922C53.1209 51.7459 54.2462 51.0182 54.7111 52.3738C55.1558 53.6697 54.007 54.0916 53.1007 54.5036C51.2915 55.3276 49.5901 54.8292 48.2828 53.5833C47.0161 52.3772 46.0457 50.8654 44.8497 49.3736C43.2494 50.3271 41.4705 51.4302 39.6478 52.4636C38.4349 53.1513 37.1984 53.8258 35.9081 54.3541C30.659 56.5038 25.9018 55.6333 21.7274 51.8655C20.1979 50.4866 18.8334 48.925 17.3307 47.5162C15.2116 45.526 13.8639 45.4828 11.5729 47.2604C8.74623 49.45 6.73487 52.314 4.80099 55.2479C4.46408 55.7562 4.12717 56.2779 3.71277 56.7198C3.03221 57.4441 2.22025 57.3909 1.42177 56.9092C0.586226 56.4075 0.299851 55.6997 0.714253 54.7894C0.896186 54.3873 1.08149 53.9753 1.3308 53.6132C5.27604 47.9615 7.79277 41.612 10.4645 35.3423C15.1577 24.3246 19.6285 13.2239 23.1189 1.76429C23.3076 1.14629 23.7085 0.591419 24.0117 0.00664516C24.4598 0.00664516 24.9113 0.00664516 25.3594 0.00664516L25.3492 0Z" fill="white"/>
<path d="M118 57.1484C116.292 58.0455 115.399 57.6534 114.718 55.7097C115.972 54.4405 116.491 54.4571 118 55.8194V57.1484Z" fill="white"/>
<path d="M54.6307 26.4943C54.2803 26.6704 53.812 27.0658 53.2999 27.1289C52.3801 27.2419 51.0224 26.0923 51.2279 25.3779C51.329 25.0191 51.9691 24.6237 52.4003 24.5772C53.4448 24.4609 54.6475 25.4111 54.6307 26.4976V26.4943Z" fill="white"/>
<path d="M0 68.6844V62.7403H2.23036C2.71214 62.7403 3.1097 62.82 3.42639 62.9795C3.74309 63.139 3.97893 63.355 4.13391 63.6341C4.28889 63.9132 4.36638 64.2222 4.36638 64.5677C4.36638 64.9133 4.29226 65.199 4.14402 65.4715C3.99577 65.7472 3.7633 65.9665 3.44661 66.1326C3.12991 66.2988 2.72562 66.3818 2.23373 66.3818H1.10507V68.6811H0V68.6844ZM1.1017 65.5014H2.1596C2.54368 65.5014 2.81995 65.4183 2.99178 65.2522C3.16023 65.086 3.24446 64.8568 3.24446 64.5677C3.24446 64.2786 3.16023 64.0427 2.99178 63.8766C2.82332 63.7105 2.54705 63.6274 2.1596 63.6274H1.1017V65.5047V65.5014Z" fill="white"/>
<path d="M6.43794 68.6843L8.64134 62.7402H9.88118L12.0846 68.6843H10.9121L10.4303 67.3088H8.0787L7.58681 68.6843H6.43457H6.43794ZM8.38529 66.4615H10.1339L9.25452 63.9895L8.38529 66.4615Z" fill="white"/>
<path d="M16.0909 68.6844L13.8875 62.7403H15.0667L16.7715 67.5713L18.483 62.7403H19.6453L17.4419 68.6844H16.0909Z" fill="white"/>
<path d="M22.6064 68.6843V62.7402H23.7081V67.8337H26.3765V68.6843H22.6064Z" fill="white"/>
<path d="M29.2103 68.6844L31.4137 62.7403H32.6535L34.8569 68.6844H33.6844L33.2027 67.3088H30.851L30.3591 68.6844H29.2069H29.2103ZM31.1576 66.4616H32.9062L32.0268 63.9896L31.1576 66.4616Z" fill="white"/>
<path d="M37.879 68.6844V62.7403H38.9807V65.1425L41.2111 62.7403H42.5722L40.3519 65.0993L42.6328 68.6811H41.2818L39.5602 65.93L38.9841 66.5513V68.6811H37.8824L37.879 68.6844Z" fill="white"/>
<path d="M48.0231 68.7873C47.42 68.7873 46.8944 68.6578 46.443 68.3953C45.9915 68.1361 45.6377 67.7739 45.3851 67.3121C45.129 66.8503 45.001 66.3187 45.001 65.7106C45.001 65.1026 45.129 64.571 45.3851 64.1091C45.6411 63.6473 45.9949 63.2885 46.443 63.026C46.8944 62.7668 47.42 62.6339 48.0231 62.6339C48.6261 62.6339 49.145 62.7635 49.5998 63.026C50.0546 63.2851 50.405 63.6473 50.6577 64.1091C50.9104 64.571 51.0351 65.1026 51.0351 65.7106C51.0351 66.3187 50.907 66.8503 50.6577 67.3121C50.405 67.7739 50.0513 68.1328 49.5998 68.3953C49.145 68.6544 48.6228 68.7873 48.0231 68.7873ZM48.0231 67.8105C48.5958 67.8105 49.054 67.6244 49.3977 67.249C49.738 66.8768 49.9098 66.3618 49.9098 65.7139C49.9098 65.066 49.738 64.551 49.3977 64.1789C49.0574 63.8068 48.5992 63.6174 48.0231 63.6174C47.447 63.6174 46.9888 63.8035 46.6451 64.1789C46.3015 64.551 46.1296 65.066 46.1296 65.7139C46.1296 66.3618 46.3015 66.8768 46.6451 67.249C46.9888 67.6211 47.447 67.8105 48.0231 67.8105Z" fill="white"/>
<path d="M56.3114 68.7874C55.8701 68.7874 55.4793 68.711 55.139 68.5614C54.7987 68.4119 54.5325 68.196 54.3371 67.9169C54.1417 67.6378 54.0406 67.2955 54.0373 66.8935H55.1996C55.2097 67.1693 55.3142 67.4052 55.5062 67.5946C55.6983 67.784 55.9644 67.8803 56.3013 67.8803C56.5944 67.8803 56.8269 67.8105 56.9987 67.671C57.1706 67.5314 57.2582 67.3487 57.2582 67.1161C57.2582 66.8835 57.1807 66.6842 57.0291 66.548C56.8774 66.4117 56.6753 66.3021 56.4226 66.2157C56.1699 66.1293 55.9004 66.0396 55.614 65.9433C55.1491 65.7838 54.7953 65.5811 54.5494 65.3319C54.3068 65.0827 54.1822 64.7505 54.1822 64.3384C54.1754 63.9863 54.2596 63.6872 54.4348 63.4347C54.61 63.1822 54.8492 62.9862 55.1525 62.8499C55.4557 62.7104 55.8061 62.6406 56.2036 62.6406C56.6012 62.6406 56.9583 62.7104 57.2683 62.8533C57.5782 62.9961 57.8174 63.1922 57.9926 63.448C58.1678 63.7038 58.2622 64.0062 58.2723 64.3551H57.0931C57.0863 64.1457 57.0055 63.9597 56.8471 63.8002C56.6888 63.6374 56.4698 63.5576 56.1901 63.5576C55.9476 63.551 55.7454 63.6108 55.5837 63.7304C55.422 63.85 55.3378 64.0294 55.3378 64.262C55.3378 64.4614 55.4018 64.6175 55.5264 64.7338C55.6511 64.8501 55.8263 64.9465 56.0419 65.0262C56.2609 65.106 56.5102 65.189 56.7898 65.2821C57.0897 65.3851 57.3592 65.5047 57.6085 65.6376C57.8545 65.7738 58.0533 65.9532 58.2015 66.1758C58.3498 66.3984 58.4239 66.6875 58.4239 67.0364C58.4239 67.3487 58.343 67.6378 58.1813 67.9036C58.0196 68.1694 57.7837 68.382 57.467 68.5448C57.1503 68.7076 56.7629 68.7874 56.3047 68.7874H56.3114Z" fill="white"/>
</svg>
